<svg version="1.2" xmlns="http://www.w3.org/2000/svg" viewBox="0 0 143 132" width="143" height="132">
	<title>Rust-svg</title>
	<style>
		.s0 { fill: #000000 } 
	</style>
	<path id="Layer" fill-rule="evenodd" class="s0" d="m123.5 65.6q0.2 0.3 0.2 0.7 0 0.4-0.2 0.8-0.2 0.3-0.6 0.5l-4.3 2.7q-0.1 0.7-0.2 1.3l3.8 3.5q0.1 0.2 0.3 0.3 0.1 0.2 0.1 0.4 0.1 0.2 0.1 0.4 0 0.2 0 0.3c-0.1 0.6-0.5 1-1 1.2l-4.8 1.8q-0.2 0.6-0.4 1.2l3 4.2q0.2 0.3 0.3 0.7 0 0.4-0.1 0.8-0.2 0.3-0.5 0.6-0.3 0.2-0.7 0.3l-5.1 0.8q-0.3 0.6-0.6 1.1l2.2 4.7c0.2 0.5 0.1 1.1-0.2 1.5q-0.1 0.2-0.2 0.3-0.2 0.1-0.3 0.2-0.2 0.1-0.4 0.1-0.2 0.1-0.4 0.1l-5.1-0.2q-0.4 0.5-0.8 1l1.1 5c0.2 0.5 0 1.1-0.4 1.4q-0.1 0.2-0.3 0.3-0.1 0.1-0.3 0.1-0.2 0.1-0.4 0.1-0.2 0-0.4-0.1l-5-1.1q-0.5 0.4-1 0.8l0.2 5.1q0 0.4-0.2 0.8-0.2 0.3-0.5 0.5-0.3 0.3-0.7 0.3-0.4 0-0.8-0.1l-4.7-2.2q-0.5 0.3-1.1 0.6l-0.8 5.1q-0.1 0.4-0.3 0.7-0.3 0.3-0.6 0.5-0.4 0.1-0.8 0.1-0.4-0.1-0.7-0.3l-4.2-3q-0.1 0-0.3 0.1-0.2 0-0.3 0.1-0.2 0-0.3 0.1-0.2 0-0.3 0.1l-1.8 4.8q-0.1 0.2-0.2 0.3-0.1 0.2-0.3 0.3-0.1 0.2-0.3 0.2-0.2 0.1-0.4 0.2c-0.5 0.1-1-0.1-1.4-0.5l-3.5-3.8q-0.1 0-0.3 0.1-0.2 0-0.3 0-0.2 0-0.3 0-0.2 0-0.4 0.1l-2.7 4.4q-0.2 0.3-0.5 0.5-0.4 0.2-0.8 0.2-0.4 0-0.7-0.2-0.3-0.2-0.6-0.5l-2.7-4.4q-0.6-0.1-1.3-0.2l-3.5 3.8q-0.1 0.1-0.3 0.3-0.1 0.1-0.3 0.1-0.2 0.1-0.4 0.1-0.2 0-0.4 0c-0.5-0.1-0.9-0.5-1.1-1l-1.8-4.8q-0.2-0.1-0.3-0.1-0.2-0.1-0.3-0.1-0.2-0.1-0.3-0.1-0.2-0.1-0.3-0.1l-4.2 3q-0.3 0.2-0.7 0.3-0.4 0-0.8-0.1-0.4-0.2-0.6-0.5-0.2-0.3-0.3-0.7l-0.8-5.1q-0.6-0.3-1.2-0.6l-4.7 2.2q-0.3 0.1-0.7 0.1-0.4 0-0.7-0.3-0.4-0.2-0.5-0.5-0.2-0.4-0.2-0.8l0.2-5.1q-0.5-0.4-1-0.8l-5.1 1.1c-0.5 0.2-1 0-1.4-0.4-0.3-0.3-0.5-0.9-0.4-1.4l1.2-5q-0.4-0.5-0.8-1l-5.2 0.2c-0.5 0-1-0.3-1.3-0.7q-0.1-0.2-0.2-0.3 0-0.2 0-0.4 0-0.2 0-0.4 0-0.2 0.1-0.4l2.1-4.7q-0.3-0.5-0.6-1.1l-5.1-0.8q-0.3-0.1-0.7-0.3-0.3-0.3-0.4-0.6-0.2-0.4-0.1-0.8 0-0.4 0.3-0.7l3-4.2q-0.2-0.6-0.4-1.2l-4.8-1.8q-0.4-0.2-0.7-0.5-0.2-0.3-0.3-0.7-0.1-0.3 0.1-0.7 0.1-0.4 0.4-0.7l3.7-3.5q0-0.6-0.1-1.3l-4.4-2.7q-0.3-0.2-0.5-0.5-0.2-0.4-0.2-0.8 0-0.4 0.2-0.7 0.2-0.3 0.5-0.6l4.4-2.7q0.1-0.6 0.1-1.3l-3.7-3.5q-0.3-0.2-0.5-0.6-0.1-0.4 0-0.8 0.1-0.4 0.3-0.7 0.3-0.3 0.7-0.4l4.8-1.8q0.2-0.6 0.4-1.2l-3-4.2q-0.3-0.3-0.3-0.7-0.1-0.4 0.1-0.8 0.1-0.4 0.4-0.6 0.4-0.2 0.7-0.3l5.1-0.8q0.1-0.2 0.2-0.3 0.1-0.2 0.1-0.3 0.1-0.2 0.2-0.3 0.1-0.1 0.1-0.3l-2.1-4.7q-0.2-0.3-0.1-0.7 0-0.4 0.2-0.7 0.2-0.4 0.6-0.5 0.3-0.2 0.7-0.2l5.2 0.2q0.1-0.2 0.2-0.3 0.1-0.1 0.2-0.2 0.1-0.2 0.2-0.3 0.1-0.1 0.2-0.2l-1.2-5.1q0-0.1 0-0.3 0-0.2 0-0.4 0.1-0.2 0.2-0.4 0.1-0.1 0.2-0.3 0.2-0.1 0.3-0.2 0.2-0.1 0.4-0.2 0.2 0 0.4 0 0.2 0 0.3 0l5.1 1.2q0.5-0.4 1-0.8l-0.2-5.2c0-0.5 0.2-1 0.7-1.3q0.1-0.1 0.3-0.2 0.2 0 0.4 0 0.2 0 0.4 0 0.2 0 0.3 0.1l4.7 2.1q0.6-0.3 1.2-0.6l0.8-5.1q0.1-0.3 0.3-0.7 0.2-0.3 0.6-0.4 0.4-0.2 0.8-0.1 0.4 0 0.7 0.3l4.2 3q0.6-0.2 1.2-0.4l1.8-4.8q0.1-0.4 0.4-0.7 0.3-0.2 0.7-0.3 0.4-0.1 0.8 0 0.4 0.2 0.6 0.5l3.5 3.7q0.7 0 1.3-0.1l2.8-4.4q0.2-0.3 0.5-0.5 0.3-0.2 0.7-0.2 0.4 0 0.8 0.2 0.3 0.2 0.5 0.5l2.7 4.4q0.7 0.1 1.3 0.1l3.5-3.7q0.3-0.3 0.7-0.5 0.4-0.1 0.7 0 0.4 0.1 0.7 0.3 0.3 0.3 0.5 0.7l1.8 4.8q0.1 0 0.3 0.1 0.1 0 0.3 0.1 0.1 0 0.3 0.1 0.2 0 0.3 0.1l4.2-3q0.3-0.3 0.7-0.3 0.4-0.1 0.8 0.1 0.3 0.1 0.6 0.4 0.2 0.4 0.3 0.7l0.8 5.1q0.1 0.1 0.3 0.2 0.1 0.1 0.3 0.1 0.1 0.1 0.3 0.2 0.1 0.1 0.2 0.1l4.7-2.1q0.4-0.2 0.8-0.1 0.4 0 0.7 0.2 0.3 0.2 0.5 0.6 0.2 0.3 0.2 0.7l-0.2 5.2q0.1 0.1 0.2 0.2 0.2 0.1 0.3 0.2 0.1 0.1 0.2 0.2 0.2 0.1 0.3 0.2l5-1.2q0.4-0.1 0.8 0 0.4 0.2 0.6 0.4 0.3 0.3 0.4 0.7 0.1 0.4 0 0.7l-1.1 5.1q0.1 0.1 0.2 0.2 0.1 0.1 0.2 0.3 0.1 0.1 0.2 0.2 0.1 0.1 0.2 0.3l5.1-0.2q0.2 0 0.4 0 0.2 0.1 0.4 0.2 0.2 0 0.3 0.2 0.1 0.1 0.2 0.3 0.2 0.1 0.2 0.3 0.1 0.2 0.1 0.4 0 0.2 0 0.4-0.1 0.2-0.1 0.3l-2.2 4.7q0.1 0.2 0.2 0.3 0.1 0.1 0.1 0.3 0.1 0.1 0.2 0.3 0.1 0.1 0.1 0.3l5.1 0.8q0.4 0.1 0.7 0.3 0.3 0.2 0.5 0.6 0.1 0.4 0.1 0.8-0.1 0.4-0.3 0.7l-3 4.2q0 0.1 0.1 0.3 0 0.1 0.1 0.3 0 0.1 0.1 0.3 0 0.1 0.1 0.3l4.8 1.8q0.2 0.1 0.3 0.2 0.2 0.1 0.3 0.2 0.2 0.2 0.2 0.4 0.1 0.1 0.2 0.3c0.1 0.5-0.1 1.1-0.5 1.4l-3.8 3.5q0 0.2 0.1 0.4 0 0.1 0 0.3 0 0.1 0 0.3 0 0.2 0.1 0.3l4.3 2.7q0.4 0.3 0.6 0.6zm-24.9 27.2q0.5-0.5 1-1 0.4-0.5 0.9-1 0.4-0.5 0.8-1.1 0.5-0.5 0.9-1-0.3 0-0.6 0h-15.6c-2.5 0-4.9-3.6-5.5-5.4-0.6-1.6-1.5-6.6-1.9-8.2-1.2-5-5.1-5.2-6-5.2h-9.9v7h9.1c0.4 0 0.6 0 0.6 0.4v11c0 0.3-0.2 0.4-0.6 0.4h-31.3q0.4 0.5 0.8 1 0.4 0.5 0.8 1 0.4 0.5 0.9 1 0.4 0.5 0.9 0.9l6.4-1.3q0.5-0.2 1.1-0.1 0.5 0.1 1 0.4 0.5 0.3 0.8 0.8 0.3 0.5 0.5 1l1.5 7.3q1.9 0.9 3.9 1.6 1.9 0.6 4 1.1 2 0.4 4.1 0.6 2.1 0.3 4.1 0.3 2.1 0 4.1-0.2 2-0.3 4-0.7 2-0.4 3.9-1.1 2-0.6 3.8-1.4l1.6-7.3q0.1-0.6 0.4-1 0.3-0.5 0.8-0.8 0.5-0.3 1-0.4 0.6-0.1 1.1 0zm-3.8 8.7q0.6-0.1 1.1-0.4 0.5-0.4 0.9-0.9 0.3-0.5 0.5-1.1 0.1-0.6 0-1.2-0.1-0.6-0.5-1.1-0.3-0.6-0.8-0.9-0.5-0.4-1.1-0.5-0.6-0.1-1.2 0-0.7 0.1-1.2 0.4-0.5 0.4-0.8 0.9-0.4 0.5-0.5 1.1-0.1 0.6 0 1.2 0.1 0.6 0.4 1.1 0.3 0.6 0.9 0.9 0.5 0.4 1.1 0.5 0.6 0.1 1.2 0zm-44.1-1.5c0.5-0.7 0.6-1.6 0.4-2.3-0.1-0.8-0.6-1.5-1.3-2-0.7-0.4-1.5-0.6-2.3-0.5q-0.6 0.2-1.1 0.5-0.5 0.4-0.8 0.9-0.4 0.5-0.5 1.1-0.1 0.6 0 1.2 0.2 0.7 0.5 1.2 0.4 0.5 0.9 0.8 0.5 0.3 1.1 0.5 0.6 0.1 1.2-0.1c0.8-0.2 1.5-0.6 1.9-1.3zm-14.4-47.8q-0.5-0.4-1.1-0.6-0.5-0.2-1.2-0.2-0.6 0-1.1 0.2-0.6 0.3-1 0.7-0.5 0.5-0.7 1.1-0.2 0.6-0.2 1.2 0 0.6 0.3 1.2 0.2 0.5 0.7 0.9 0.4 0.5 1 0.7 0.6 0.2 1.2 0.2 0.6 0 1.2-0.3 0.5-0.2 1-0.7 0.4-0.4 0.6-1 0.2-0.6 0.2-1.2 0-0.6-0.2-1.2-0.3-0.5-0.7-1zm-3.2 13.8q0 1.3 0.1 2.6 0.1 1.4 0.3 2.7 0.1 1.3 0.4 2.6 0.3 1.3 0.7 2.6h10.9v-24.5h-5.4l1.3 3.2q0.3 0.5 0.3 1 0 0.6-0.2 1.1-0.2 0.6-0.6 1-0.4 0.4-0.9 0.6l-6.7 3q-0.2 2-0.2 4.1zm76.3-3.8l-7-3.2q-0.5-0.2-0.9-0.6-0.4-0.4-0.6-0.9-0.2-0.6-0.2-1.1 0-0.6 0.2-1.1l3.7-8.3c-5.5-9.6-15-16.5-26.2-18.6l-5.3 5.1q-0.5 0.4-1 0.6-0.5 0.2-1.1 0.2-0.5 0-1-0.3-0.6-0.2-1-0.6l-4.7-5c-8.5 1.6-15.9 5.9-21.4 12.1h40.6c1 0 4.8 0.4 8.2 2.7 2.4 1.6 6 4.8 6 10.1 0 4.8-4 8.4-7.9 10.8 3.1 2.5 5.1 3.9 6.3 10.5 0.2 1.2 2.5 2.3 4.5 2.1 2-0.3 4.4-1.2 4.4-5.4v-1.8c0-0.4 0.2-0.7 0.6-0.7h3.9q0.1-1.4 0.1-2.8 0-1.9-0.2-3.8zm-34.7-2.7c2.5 0 5.6-0.9 5.6-3.4 0-3-4-3.8-4.7-3.8h-12.9v7.2c0 0 12 0 12 0zm-6.3-34.4q-0.3 0.6-0.3 1.2 0 0.6 0.2 1.2 0.2 0.6 0.6 1 0.5 0.5 1 0.7 0.6 0.3 1.2 0.3 0.6 0 1.2-0.2 0.6-0.3 1-0.7 0.5-0.4 0.7-1 0.3-0.6 0.3-1.2 0-0.6-0.2-1.2-0.2-0.5-0.7-1-0.4-0.4-1-0.7-0.5-0.2-1.1-0.3-0.7 0-1.2 0.3-0.6 0.2-1.1 0.6-0.4 0.4-0.6 1zm36.8 29.5q-0.1 0.6 0.2 1.2 0.2 0.5 0.6 1 0.4 0.4 1 0.7 0.6 0.2 1.2 0.3 0.6 0 1.2-0.3 0.6-0.2 1-0.6 0.5-0.4 0.7-1 0.3-0.6 0.3-1.2 0-0.6-0.2-1.2-0.3-0.6-0.7-1-0.4-0.4-1-0.7-0.5-0.3-1.2-0.3-0.6 0-1.2 0.2-0.5 0.3-1 0.7-0.4 0.4-0.7 1-0.2 0.5-0.2 1.2z"/>
</svg>