<svg width="198" height="99" viewBox="0 0 198 99" fill="none" xmlns="http://www.w3.org/2000/svg">
<path d="M162.497 40.3074L158.781 44.1473C155.686 41.1483 152.665 39.6461 149.712 39.6461C147.835 39.6461 146.224 40.2665 144.89 41.5047C143.547 42.7428 142.882 44.1882 142.882 45.8422C142.882 47.3008 143.432 48.6908 144.537 50.0134C145.641 51.3611 147.959 52.9451 151.491 54.7654C155.797 56.9936 158.722 59.1399 160.265 61.207C161.782 63.3005 162.543 65.6554 162.543 68.2716C162.543 71.9624 161.247 75.0868 158.653 77.6489C156.062 80.2097 152.822 81.4888 148.936 81.4888C146.343 81.4888 143.868 80.9265 141.509 79.7966C139.152 78.6693 137.198 77.113 135.656 75.129L139.289 70.9988C142.242 74.3318 145.374 75.9976 148.686 75.9976C151.004 75.9976 152.979 75.2544 154.605 73.7681C156.234 72.2805 157.05 70.5354 157.05 68.5211C157.05 66.8685 156.514 65.398 155.437 64.1018C154.361 62.8359 151.932 61.2374 148.149 59.3115C144.092 57.218 141.332 55.1535 139.871 53.1141C138.409 51.0773 137.677 48.7488 137.677 46.1352C137.677 42.7204 138.842 39.885 141.173 37.6265C143.502 35.3693 146.446 34.2407 150.003 34.2407C154.138 34.2368 158.304 36.2603 162.497 40.3074Z" fill="#F37920"/>
<path d="M195.332 40.3074L191.616 44.1473C188.524 41.1483 185.502 39.6461 182.549 39.6461C180.67 39.6461 179.062 40.2665 177.725 41.5047C176.385 42.7428 175.717 44.1882 175.717 45.8422C175.717 47.3008 176.27 48.6908 177.374 50.0134C178.476 51.3611 180.794 52.9451 184.329 54.7654C188.632 56.9936 191.56 59.1399 193.103 61.207C194.619 63.3005 195.378 65.6554 195.378 68.2716C195.378 71.9624 194.085 75.0868 191.491 77.6489C188.9 80.2097 185.659 81.4888 181.772 81.4888C179.178 81.4888 176.703 80.9265 174.347 79.7966C171.988 78.6693 170.036 77.113 168.491 75.129L172.124 70.9988C175.077 74.3318 178.212 75.9976 181.524 75.9976C183.842 75.9976 185.816 75.2544 187.443 73.7681C189.069 72.2818 189.887 70.5354 189.887 68.5211C189.887 66.8685 189.349 65.398 188.272 64.1018C187.196 62.8359 184.767 61.2374 180.984 59.3115C176.93 57.218 174.167 55.1535 172.706 53.1141C171.244 51.0773 170.512 48.7488 170.512 46.1352C170.512 42.7204 171.679 39.885 174.009 37.6265C176.339 35.3693 179.284 34.2407 182.841 34.2407C186.973 34.2368 191.143 36.2603 195.332 40.3074Z" fill="#F37920"/>
<path d="M7.7682 80.3285H2.6532V35.137L7.7682 34.4546V80.3285Z" fill="black"/>
<path d="M44.9473 74.3063C42.3205 75.5392 39.4126 76.1569 36.2195 76.1569C32.6159 76.1569 29.3647 75.3597 26.462 73.7638C23.5607 72.1679 21.2771 69.9279 19.6139 67.0384C17.9494 64.1502 17.1178 61.0707 17.1178 57.7957C17.1178 52.7626 18.9262 48.4871 22.5416 44.9653C26.1584 41.4449 30.7045 39.684 36.1772 39.684C39.4271 39.684 42.3469 40.2833 44.9473 41.4687L44.2649 35.5735C41.5193 34.6799 39.3545 34.2324 36.4069 34.2324C31.6694 34.2324 27.3874 35.2792 23.562 37.3714C19.734 39.4649 16.7244 42.3755 14.5358 46.1085C12.3486 49.8375 11.5936 53.8793 11.5936 58.23C11.5936 64.702 13.5947 70.1958 18.2767 74.7102C22.9574 79.2246 28.8499 81.4831 35.9542 81.4831C39.2014 81.4831 41.8572 81.0449 44.6081 80.1631L44.9473 74.3063Z" fill="black"/>
<path d="M123.227 37.0785C121.924 35.7862 120.553 34.6523 119.122 33.6597C118.677 34.3315 118.223 35.3374 117.747 35.9842C117.182 36.7445 116.581 37.1339 115.916 37.8084C117.179 38.6585 118.383 39.6472 119.53 40.7758C124.153 45.3351 126.463 50.8632 126.463 57.3537C126.463 63.8032 124.153 69.3168 119.53 73.8986C114.907 78.4816 109.311 80.7691 102.737 80.7691C96.1647 80.7691 90.5665 78.4697 85.9452 73.8669C81.3226 69.268 79.0126 63.761 79.0126 57.351C79.0126 50.9002 81.3226 45.3865 85.9452 40.8061C87.3365 39.4267 88.8994 37.6989 90.3857 36.6138C91.1236 36.0739 93.1551 34.9071 93.1551 34.9071C93.1551 34.9071 87.9318 35.6951 86.1921 36.0713C85.1704 36.2917 82.0987 37.2963 82.0987 37.2963C76.593 42.868 73.8355 49.5498 73.8355 57.351C73.8355 65.1984 76.6498 71.9265 82.2783 77.5325C87.9067 83.1399 94.747 85.9422 102.798 85.9422C110.769 85.9422 117.578 83.1491 123.227 77.5615C128.876 71.9766 131.699 65.2367 131.699 57.3484C131.698 49.4244 128.876 42.666 123.227 37.0785Z" fill="#F37920"/>
<path d="M51.4272 35.3071V80.3284H55.6908V59.0117H67.2883V55.4292H55.6908V39.2288L71.3817 39.0586L70.1871 35.3071H51.4272Z" fill="#F37920"/>
<path d="M83.0346 35.5949C83.0346 35.5949 87.8104 31.1637 95.2156 29.5018C103.137 27.7251 111.969 28.9447 111.969 28.9447C111.969 28.9447 113.482 26.1015 114.472 25.6474C114.872 25.4639 115.962 25.6513 116.233 25.3055C118.664 22.2167 121.94 14.5765 124.191 11.0944C127.204 6.43346 132.832 2.96582 132.832 2.96582C132.832 2.96582 126.068 8.08214 121.973 19.8499C120.886 22.981 119.721 29.9413 118.279 32.9245C117.126 35.3058 115.338 36.8397 113.846 37.5868C112.596 38.2111 108.273 38.0409 108.273 38.0409C108.273 38.0409 105.114 37.5445 105.715 37.2436C107.078 36.5611 108.713 35.0616 108.687 34.7884C108.657 34.4214 106.326 33.7852 105.488 33.6598C103.206 33.3166 98.5697 33.2334 96.2637 33.4314C92.9584 33.7179 83.0346 35.5949 83.0346 35.5949Z" fill="url(#paint0_linear_18_36)"/>
<path d="M4.20289 89.6108V95.04H3.21289V89.6108H4.20289Z" fill="black"/>
<path d="M5.34601 92.2835C5.34601 91.8321 5.33809 91.4545 5.31433 91.1153H6.18421L6.23305 91.7027H6.25681C6.42577 91.3978 6.85345 91.0269 7.50553 91.0269C8.19061 91.0269 8.89945 91.4691 8.89945 92.7099V95.0397H7.90945V92.8234C7.90945 92.2597 7.69957 91.8321 7.15969 91.8321C6.76501 91.8321 6.49177 92.1145 6.38617 92.4115C6.35449 92.5 6.34657 92.6214 6.34657 92.7336V95.0397H5.34601V92.2835Z" fill="black"/>
<path d="M11.0471 89.9976V91.1169H11.9896V91.8588H11.0471V93.5919C11.0471 94.0671 11.1765 94.3179 11.554 94.3179C11.7229 94.3179 11.8523 94.2928 11.9407 94.2691L11.9566 95.0268C11.8114 95.0822 11.554 95.1218 11.2398 95.1218C10.8768 95.1218 10.5706 95.0017 10.3858 94.7997C10.1772 94.5753 10.0809 94.2202 10.0809 93.7041V91.8601H9.5159V91.1182H10.0809V90.2325L11.0471 89.9976Z" fill="black"/>
<path d="M13.3901 93.3569C13.4152 94.0658 13.9696 94.372 14.5992 94.372C15.0586 94.372 15.3886 94.3073 15.6869 94.1951L15.8321 94.8802C15.4942 95.0175 15.0269 95.1218 14.4619 95.1218C13.1895 95.1218 12.4397 94.3403 12.4397 93.1405C12.4397 92.0528 13.0997 91.0298 14.3563 91.0298C15.6301 91.0298 16.0486 92.0765 16.0486 92.9385C16.0486 93.1233 16.0314 93.2685 16.0169 93.3569H13.3901ZM15.114 92.6626C15.1219 92.3009 14.9609 91.703 14.2996 91.703C13.6871 91.703 13.4297 92.26 13.3888 92.6626H15.114Z" fill="black"/>
<path d="M16.8445 92.3812C16.8445 91.8492 16.8366 91.4704 16.8129 91.1153H17.6748L17.7065 91.8651H17.7382C17.9309 91.308 18.3903 91.0269 18.81 91.0269C18.9064 91.0269 18.9631 91.0348 19.0437 91.0506V91.9852C18.9631 91.9693 18.8747 91.9535 18.7533 91.9535C18.2781 91.9535 17.956 92.2597 17.8675 92.7033C17.8504 92.7904 17.8359 92.896 17.8359 93.0082V95.0397H16.8445V92.3812Z" fill="black"/>
<path d="M19.7102 92.2835C19.7102 91.8321 19.7023 91.4545 19.6786 91.1153H20.5484L20.5973 91.7027H20.6224C20.7913 91.3978 21.2177 91.0269 21.8711 91.0269C22.5562 91.0269 23.265 91.4691 23.265 92.7099V95.0397H22.2737V92.8234C22.2737 92.2597 22.0638 91.8321 21.5252 91.8321C21.1306 91.8321 20.856 92.1145 20.7517 92.4115C20.72 92.5 20.7108 92.6214 20.7108 92.7336V95.0397H19.7116V92.2835H19.7102Z" fill="black"/>
<path d="M26.5241 95.0398L26.4594 94.6042H26.4343C26.1928 94.9104 25.7822 95.1282 25.274 95.1282C24.4847 95.1282 24.0412 94.5554 24.0412 93.9587C24.0412 92.9687 24.919 92.4684 26.3696 92.4764V92.413C26.3696 92.1556 26.2654 91.7279 25.5724 91.7279C25.1856 91.7279 24.783 91.8494 24.5177 92.0183L24.325 91.3742C24.6154 91.1973 25.1223 91.0283 25.7427 91.0283C26.9993 91.0283 27.3623 91.8256 27.3623 92.6796V94.0973C27.3623 94.4524 27.3781 94.7969 27.419 95.0398H26.5241ZM26.3947 93.1218C25.6938 93.106 25.0246 93.2591 25.0246 93.8558C25.0246 94.2425 25.274 94.4207 25.5882 94.4207C25.9829 94.4207 26.2733 94.1633 26.3617 93.8808C26.3868 93.8082 26.3934 93.7277 26.3934 93.663V93.1218H26.3947Z" fill="black"/>
<path d="M29.4941 89.9976V91.1169H30.4366V91.8588H29.4941V93.5919C29.4941 94.0671 29.6235 94.3179 30.0023 94.3179C30.1713 94.3179 30.3006 94.2928 30.3891 94.2691L30.4049 95.0268C30.2597 95.0822 30.0023 95.1218 29.6881 95.1218C29.3265 95.1218 29.0202 95.0017 28.8354 94.7997C28.6255 94.5753 28.5292 94.2202 28.5292 93.7041V91.8601H27.9655V91.1182H28.5292V90.2325L29.4941 89.9976Z" fill="black"/>
<path d="M32.2397 90.02C32.2397 90.3196 32.0219 90.552 31.6761 90.552C31.3461 90.552 31.1283 90.3183 31.1283 90.02C31.1283 89.7151 31.354 89.4814 31.684 89.4814C32.0219 89.4814 32.2318 89.7151 32.2397 90.02ZM31.185 95.04V91.1156H32.1843V95.04H31.185Z" fill="black"/>
<path d="M36.9759 93.0413C36.9759 94.4841 35.9608 95.1282 34.9629 95.1282C33.8501 95.1282 32.9974 94.3626 32.9974 93.106C32.9974 91.8164 33.8435 91.0283 35.0275 91.0283C36.1944 91.0283 36.9759 91.8494 36.9759 93.0413ZM34.0191 93.0822C34.0191 93.8399 34.39 94.4115 34.9945 94.4115C35.5582 94.4115 35.9529 93.8558 35.9529 93.0664C35.9529 92.4539 35.6783 91.753 35.0025 91.753C34.3002 91.753 34.0191 92.4288 34.0191 93.0822Z" fill="black"/>
<path d="M37.7863 92.2835C37.7863 91.8321 37.7784 91.4545 37.7546 91.1153H38.6245L38.6734 91.7027H38.6984C38.8674 91.3978 39.2938 91.0269 39.9472 91.0269C40.6322 91.0269 41.3411 91.4691 41.3411 92.7099V95.0397H40.3498V92.8234C40.3498 92.2597 40.1399 91.8321 39.6013 91.8321C39.2066 91.8321 38.9321 92.1145 38.8278 92.4115C38.7961 92.5 38.7869 92.6214 38.7869 92.7336V95.0397H37.7876V92.2835H37.7863Z" fill="black"/>
<path d="M44.6002 95.0398L44.5355 94.6042H44.5104C44.2689 94.9104 43.8583 95.1282 43.3501 95.1282C42.5608 95.1282 42.1172 94.5554 42.1172 93.9587C42.1172 92.9687 42.9951 92.4684 44.4457 92.4764V92.413C44.4457 92.1556 44.3415 91.7279 43.6485 91.7279C43.2617 91.7279 42.8591 91.8494 42.5938 92.0183L42.4011 91.3742C42.6915 91.1973 43.1983 91.0283 43.8187 91.0283C45.0754 91.0283 45.4384 91.8256 45.4384 92.6796V94.0973C45.4384 94.4524 45.4542 94.7969 45.4951 95.0398H44.6002ZM44.4708 93.1218C43.7699 93.106 43.1006 93.2591 43.1006 93.8558C43.1006 94.2425 43.3501 94.4207 43.6643 94.4207C44.059 94.4207 44.3494 94.1633 44.4378 93.8808C44.4629 93.8082 44.4695 93.7277 44.4695 93.663V93.1218H44.4708Z" fill="black"/>
<path d="M46.4825 89.3188H47.4817V95.0397H46.4825V89.3188Z" fill="black"/>
<path d="M54.1504 94.8785C53.9167 95 53.4006 95.1201 52.7485 95.1201C51.0246 95.1201 49.9765 94.0416 49.9765 92.3903C49.9765 90.6017 51.2173 89.522 52.8766 89.522C53.5287 89.522 53.9972 89.6593 54.1979 89.7635L53.9801 90.5542C53.7227 90.4407 53.3676 90.3443 52.9162 90.3443C51.8127 90.3443 51.0154 91.0373 51.0154 92.3428C51.0154 93.5348 51.7163 94.3004 52.9096 94.3004C53.3122 94.3004 53.7319 94.2185 53.9893 94.0997L54.1504 94.8785Z" fill="black"/>
<path d="M55.5245 93.3569C55.5496 94.0658 56.104 94.372 56.7336 94.372C57.193 94.372 57.523 94.3073 57.8213 94.1951L57.9665 94.8802C57.6286 95.0175 57.1613 95.1218 56.5963 95.1218C55.3239 95.1218 54.5741 94.3403 54.5741 93.1405C54.5741 92.0528 55.2341 91.0298 56.4907 91.0298C57.7645 91.0298 58.183 92.0765 58.183 92.9385C58.183 93.1233 58.1658 93.2685 58.1513 93.3569H55.5245ZM57.2497 92.6626C57.2577 92.3009 57.0966 91.703 56.4353 91.703C55.8228 91.703 55.5654 92.26 55.5245 92.6626H57.2497Z" fill="black"/>
<path d="M58.9789 92.2835C58.9789 91.8321 58.971 91.4545 58.9473 91.1153H59.8171L59.866 91.7027H59.8911C60.06 91.3978 60.4864 91.0269 61.1398 91.0269C61.8249 91.0269 62.5337 91.4691 62.5337 92.7099V95.0397H61.5424V92.8234C61.5424 92.2597 61.3325 91.8321 60.7939 91.8321C60.3993 91.8321 60.1247 92.1145 60.0204 92.4115C59.9887 92.5 59.9795 92.6214 59.9795 92.7336V95.0397H58.9803V92.2835H58.9789Z" fill="black"/>
<path d="M64.6813 89.9976V91.1169H65.6238V91.8588H64.6813V93.5919C64.6813 94.0671 64.8107 94.3179 65.1882 94.3179C65.3572 94.3179 65.4865 94.2928 65.575 94.2691L65.5908 95.0268C65.4456 95.0822 65.1882 95.1218 64.8741 95.1218C64.5111 95.1218 64.2048 95.0017 64.02 94.7997C63.8115 94.5753 63.7151 94.2202 63.7151 93.7041V91.8601H63.1501V91.1182H63.7151V90.2325L64.6813 89.9976Z" fill="black"/>
<path d="M66.3709 92.3812C66.3709 91.8492 66.363 91.4704 66.3392 91.1153H67.2012L67.2329 91.8651H67.2646C67.4573 91.308 67.9166 91.0269 68.3364 91.0269C68.4328 91.0269 68.4895 91.0348 68.57 91.0506V91.9852C68.4895 91.9693 68.4011 91.9535 68.2796 91.9535C67.8044 91.9535 67.4824 92.2597 67.3939 92.7033C67.3768 92.7904 67.3622 92.896 67.3622 93.0082V95.0397H66.3709V92.3812Z" fill="black"/>
<path d="M69.8663 93.3569C69.8914 94.0658 70.4458 94.372 71.0754 94.372C71.5348 94.372 71.8648 94.3073 72.1631 94.1951L72.3083 94.8802C71.9704 95.0175 71.5031 95.1218 70.9381 95.1218C69.6657 95.1218 68.9159 94.3403 68.9159 93.1405C68.9159 92.0528 69.5759 91.0298 70.8325 91.0298C72.1063 91.0298 72.5248 92.0765 72.5248 92.9385C72.5248 93.1233 72.5076 93.2685 72.4931 93.3569H69.8663ZM71.5902 92.6626C71.5981 92.3009 71.4371 91.703 70.7758 91.703C70.1633 91.703 69.9059 92.26 69.865 92.6626H71.5902Z" fill="black"/>
<path d="M75.1001 95.0398V91.8573H74.5681V91.1154H75.1001V90.9465C75.1001 90.4383 75.2374 89.9314 75.5753 89.6093C75.8657 89.3348 76.2604 89.2305 76.5983 89.2305C76.8649 89.2305 77.0735 89.2701 77.2345 89.3268L77.1619 90.0911C77.0576 90.0515 76.9204 90.0185 76.7435 90.0185C76.2524 90.0185 76.0835 90.4304 76.0835 90.9135V91.1141H76.9454V91.8559H76.0927V95.0398H75.1001Z" fill="black"/>
<path d="M81.1972 93.0413C81.1972 94.4841 80.1808 95.1282 79.1829 95.1282C78.0714 95.1282 77.2174 94.3626 77.2174 93.106C77.2174 91.8164 78.0635 91.0283 79.2475 91.0283C80.4144 91.0283 81.1972 91.8494 81.1972 93.0413ZM78.2391 93.0822C78.2391 93.8399 78.61 94.4115 79.2132 94.4115C79.7782 94.4115 80.1729 93.8558 80.1729 93.0664C80.1729 92.4539 79.8983 91.753 79.2225 91.753C78.5215 91.753 78.2391 92.4288 78.2391 93.0822Z" fill="black"/>
<path d="M82.0076 92.3812C82.0076 91.8492 81.9997 91.4704 81.976 91.1153H82.8379L82.8696 91.8651H82.9013C83.094 91.308 83.5534 91.0269 83.9731 91.0269C84.0695 91.0269 84.1262 91.0348 84.2068 91.0506V91.9852C84.1262 91.9693 84.0378 91.9535 83.9164 91.9535C83.4412 91.9535 83.1191 92.2597 83.0306 92.7033C83.0135 92.7904 82.9989 92.896 82.9989 93.0082V95.0397H82.0076V92.3812Z" fill="black"/>
<path d="M86.5815 89.6108H89.7151V90.424H87.5715V91.9222H89.5699V92.7353H87.5715V95.04H86.5815V89.6108Z" fill="black"/>
<path d="M90.4622 92.3812C90.4622 91.8492 90.4543 91.4704 90.4306 91.1153H91.2925L91.3242 91.8651H91.3559C91.5486 91.308 92.0093 91.0269 92.4277 91.0269C92.5241 91.0269 92.5808 91.0348 92.6614 91.0506V91.9852C92.5795 91.9693 92.4924 91.9535 92.371 91.9535C91.8958 91.9535 91.5737 92.2597 91.4839 92.7033C91.4681 92.7904 91.4522 92.896 91.4522 93.0082V95.0397H90.4622V92.3812Z" fill="black"/>
<path d="M93.9576 93.3569C93.9814 94.0658 94.5371 94.372 95.1654 94.372C95.6248 94.372 95.9561 94.3073 96.2531 94.1951L96.3983 94.8802C96.0604 95.0175 95.5931 95.1218 95.0281 95.1218C93.7556 95.1218 93.0059 94.3403 93.0059 93.1405C93.0059 92.0528 93.6672 91.0298 94.9239 91.0298C96.1963 91.0298 96.6148 92.0765 96.6148 92.9385C96.6148 93.1233 96.5989 93.2685 96.5831 93.3569H93.9576ZM95.6802 92.6626C95.6881 92.3009 95.5271 91.703 94.8671 91.703C94.2546 91.703 93.9972 92.26 93.9576 92.6626H95.6802Z" fill="black"/>
<path d="M98.1117 93.3569C98.1367 94.0658 98.6911 94.372 99.3208 94.372C99.7801 94.372 100.11 94.3073 100.407 94.1951L100.552 94.8802C100.213 95.0175 99.7471 95.1218 99.1822 95.1218C97.9097 95.1218 97.1613 94.3403 97.1613 93.1405C97.1613 92.0528 97.8212 91.0298 99.0779 91.0298C100.352 91.0298 100.77 92.0765 100.77 92.9385C100.77 93.1233 100.753 93.2685 100.738 93.3569H98.1117ZM99.8369 92.6626C99.8448 92.3009 99.6838 91.703 99.0238 91.703C98.41 91.703 98.1526 92.26 98.113 92.6626H99.8369Z" fill="black"/>
<path d="M105.44 95.0398L105.376 94.6042H105.351C105.109 94.9104 104.698 95.1282 104.19 95.1282C103.401 95.1282 102.957 94.5554 102.957 93.9587C102.957 92.9687 103.835 92.4684 105.286 92.4764V92.413C105.286 92.1556 105.182 91.7279 104.489 91.7279C104.102 91.7279 103.699 91.8494 103.434 92.0183L103.241 91.3742C103.532 91.1973 104.038 91.0283 104.659 91.0283C105.915 91.0283 106.278 91.8256 106.278 92.6796V94.0973C106.278 94.4524 106.294 94.7969 106.335 95.0398H105.44ZM105.311 93.1218C104.61 93.106 103.942 93.2591 103.942 93.8558C103.942 94.2425 104.19 94.4207 104.506 94.4207C104.9 94.4207 105.191 94.1633 105.279 93.8808C105.304 93.8082 105.311 93.7277 105.311 93.663V93.1218Z" fill="black"/>
<path d="M107.323 92.2835C107.323 91.8321 107.315 91.4545 107.292 91.1153H108.161L108.21 91.7027H108.235C108.404 91.3978 108.83 91.0269 109.483 91.0269C110.169 91.0269 110.877 91.4691 110.877 92.7099V95.0397H109.886V92.8234C109.886 92.2597 109.677 91.8321 109.138 91.8321C108.742 91.8321 108.468 92.1145 108.364 92.4115C108.332 92.5 108.324 92.6214 108.324 92.7336V95.0397H107.324V92.2835H107.323Z" fill="black"/>
<path d="M115.546 89.3187V93.9361C115.546 94.3387 115.562 94.7743 115.578 95.0396H114.691L114.651 94.4192H114.635C114.4 94.8535 113.927 95.128 113.354 95.128C112.419 95.128 111.677 94.3307 111.677 93.1203C111.669 91.8082 112.49 91.0268 113.433 91.0268C113.973 91.0268 114.36 91.2512 114.536 91.5429H114.554V89.3174H115.546V89.3187ZM114.555 92.752C114.555 92.6702 114.547 92.5751 114.53 92.4946C114.443 92.1079 114.127 91.7937 113.677 91.7937C113.041 91.7937 112.686 92.3587 112.686 93.0913C112.686 93.808 113.041 94.3307 113.669 94.3307C114.072 94.3307 114.426 94.0575 114.522 93.6298C114.547 93.5427 114.554 93.4437 114.554 93.3394V92.752H114.555Z" fill="black"/>
<path d="M123.131 92.2679C123.131 94.0882 122.027 95.1284 120.529 95.1284C118.998 95.1284 118.03 93.9588 118.03 92.3643C118.03 90.6958 119.077 89.521 120.608 89.521C122.196 89.521 123.131 90.7222 123.131 92.2679ZM119.079 92.3484C119.079 93.4533 119.636 94.3311 120.586 94.3311C121.546 94.3311 122.085 93.444 122.085 92.3088C122.085 91.2872 121.577 90.3196 120.586 90.3196C119.603 90.3196 119.079 91.2291 119.079 92.3484Z" fill="black"/>
<path d="M123.967 92.4224C123.967 91.9063 123.949 91.4878 123.934 91.1169H124.805L124.852 91.7215H124.869C125.158 91.2779 125.618 91.0298 126.214 91.0298C127.117 91.0298 127.866 91.8033 127.866 93.0283C127.866 94.4459 126.972 95.131 126.079 95.131C125.587 95.131 125.176 94.9211 124.975 94.607H124.958V96.6385H123.968V92.4224H123.967ZM124.957 93.3965C124.957 93.4929 124.964 93.5827 124.988 93.6711C125.085 94.0737 125.44 94.3628 125.858 94.3628C126.488 94.3628 126.857 93.8401 126.857 93.0665C126.857 92.3735 126.519 91.8099 125.883 91.8099C125.471 91.8099 125.092 92.1082 124.997 92.5425C124.972 92.6244 124.957 92.7128 124.957 92.792V93.3965Z" fill="black"/>
<path d="M129.377 93.3569C129.402 94.0658 129.957 94.372 130.586 94.372C131.046 94.372 131.376 94.3073 131.673 94.1951L131.818 94.8802C131.479 95.0175 131.013 95.1218 130.448 95.1218C129.175 95.1218 128.427 94.3403 128.427 93.1405C128.427 92.0528 129.087 91.0298 130.343 91.0298C131.617 91.0298 132.036 92.0765 132.036 92.9385C132.036 93.1233 132.018 93.2685 132.004 93.3569H129.377ZM131.101 92.6626C131.109 92.3009 130.948 91.703 130.288 91.703C129.674 91.703 129.417 92.26 129.377 92.6626H131.101Z" fill="black"/>
<path d="M132.83 92.2835C132.83 91.8321 132.822 91.4545 132.8 91.1153H133.668L133.717 91.7027H133.742C133.911 91.3978 134.338 91.0269 134.991 91.0269C135.676 91.0269 136.385 91.4691 136.385 92.7099V95.0397H135.394V92.8234C135.394 92.2597 135.185 91.8321 134.645 91.8321C134.249 91.8321 133.976 92.1145 133.872 92.4115C133.84 92.5 133.832 92.6214 133.832 92.7336V95.0397H132.832V92.2835H132.83Z" fill="black"/>
<path d="M139.12 93.9602C139.442 94.1463 139.925 94.3073 140.433 94.3073C141.07 94.3073 141.423 94.009 141.423 93.5655C141.423 93.155 141.15 92.9134 140.457 92.6626C139.564 92.3405 138.992 91.8653 138.992 91.0839C138.992 90.1982 139.734 89.521 140.909 89.521C141.497 89.521 141.932 89.6504 142.214 89.7942L141.973 90.5915C141.78 90.4872 141.4 90.3341 140.893 90.3341C140.263 90.3341 139.99 90.672 139.99 90.9862C139.99 91.4046 140.304 91.5987 141.029 91.8812C141.973 92.2362 142.432 92.7114 142.432 93.4929C142.432 94.3628 141.771 95.1191 140.369 95.1191C139.796 95.1191 139.201 94.9594 138.902 94.7812L139.12 93.9602Z" fill="black"/>
<path d="M147.06 93.0413C147.06 94.4841 146.045 95.1282 145.047 95.1282C143.934 95.1282 143.081 94.3626 143.081 93.106C143.081 91.8164 143.928 91.0283 145.112 91.0283C146.278 91.0283 147.06 91.8494 147.06 93.0413ZM144.104 93.0822C144.104 93.8399 144.474 94.4115 145.079 94.4115C145.642 94.4115 146.038 93.8558 146.038 93.0664C146.038 92.4539 145.764 91.753 145.087 91.753C144.386 91.753 144.104 92.4288 144.104 93.0822Z" fill="black"/>
<path d="M151.386 93.8636C151.386 94.3309 151.401 94.7163 151.416 95.0397H150.547L150.498 94.4444H150.483C150.312 94.7256 149.926 95.1295 149.225 95.1295C148.508 95.1295 147.856 94.7031 147.856 93.4214V91.1167H148.847V93.2511C148.847 93.9045 149.056 94.3243 149.581 94.3243C149.976 94.3243 150.233 94.0418 150.337 93.7923C150.369 93.7039 150.394 93.5996 150.394 93.4874V91.118H151.386V93.8636Z" fill="black"/>
<path d="M152.452 92.3812C152.452 91.8492 152.444 91.4704 152.422 91.1153H153.282L153.314 91.8651H153.346C153.538 91.308 153.998 91.0269 154.419 91.0269C154.514 91.0269 154.571 91.0348 154.653 91.0506V91.9852C154.571 91.9693 154.484 91.9535 154.362 91.9535C153.887 91.9535 153.565 92.2597 153.475 92.7033C153.459 92.7904 153.443 92.896 153.443 93.0082V95.0397H152.452V92.3812Z" fill="black"/>
<path d="M158.132 94.9182C157.923 95.0146 157.512 95.1189 157.021 95.1189C155.796 95.1189 154.998 94.3374 154.998 93.1204C154.998 91.9443 155.804 91.0269 157.18 91.0269C157.543 91.0269 157.914 91.1074 158.14 91.2117L157.963 91.9535C157.802 91.8809 157.567 91.8017 157.215 91.8017C156.457 91.8017 156.006 92.3574 156.013 93.0742C156.013 93.8794 156.536 94.3387 157.215 94.3387C157.56 94.3387 157.802 94.2661 157.996 94.1869L158.132 94.9182Z" fill="black"/>
<path d="M159.49 93.3569C159.515 94.0658 160.07 94.372 160.699 94.372C161.159 94.372 161.489 94.3073 161.787 94.1951L161.931 94.8802C161.593 95.0175 161.126 95.1218 160.562 95.1218C159.288 95.1218 158.54 94.3403 158.54 93.1405C158.54 92.0528 159.2 91.0298 160.457 91.0298C161.73 91.0298 162.149 92.0765 162.149 92.9385C162.149 93.1233 162.132 93.2685 162.117 93.3569H159.49ZM161.216 92.6626C161.223 92.3009 161.062 91.703 160.401 91.703C159.79 91.703 159.533 92.26 159.492 92.6626H161.216Z" fill="black"/>
<path d="M164.628 93.9602C164.95 94.1463 165.433 94.3073 165.941 94.3073C166.577 94.3073 166.931 94.009 166.931 93.5655C166.931 93.155 166.658 92.9134 165.965 92.6626C165.071 92.3405 164.5 91.8653 164.5 91.0839C164.5 90.1982 165.242 89.521 166.416 89.521C167.005 89.521 167.439 89.6504 167.722 89.7942L167.48 90.5915C167.288 90.4872 166.907 90.3341 166.401 90.3341C165.771 90.3341 165.498 90.672 165.498 90.9862C165.498 91.4046 165.812 91.5987 166.536 91.8812C167.48 92.2362 167.94 92.7114 167.94 93.4929C167.94 94.3628 167.278 95.1191 165.876 95.1191C165.304 95.1191 164.708 94.9594 164.41 94.7812L164.628 93.9602Z" fill="black"/>
<path d="M172.568 93.0413C172.568 94.4841 171.552 95.1282 170.555 95.1282C169.442 95.1282 168.589 94.3626 168.589 93.106C168.589 91.8164 169.435 91.0283 170.619 91.0283C171.787 91.0283 172.568 91.8494 172.568 93.0413ZM169.612 93.0822C169.612 93.8399 169.982 94.4115 170.586 94.4115C171.15 94.4115 171.546 93.8558 171.546 93.0664C171.546 92.4539 171.271 91.753 170.594 91.753C169.893 91.753 169.612 92.4288 169.612 93.0822Z" fill="black"/>
<path d="M173.493 95.0398V91.8573H172.962V91.1154H173.493V90.9465C173.493 90.4383 173.63 89.9314 173.968 89.6093C174.259 89.3348 174.653 89.2305 174.99 89.2305C175.256 89.2305 175.465 89.2701 175.626 89.3268L175.553 90.0911C175.449 90.0515 175.311 90.0185 175.135 90.0185C174.644 90.0185 174.474 90.4304 174.474 90.9135V91.1141H175.336V91.8559H174.483V95.0398H173.493Z" fill="black"/>
<path d="M177.189 89.9976V91.1169H178.131V91.8588H177.189V93.5919C177.189 94.0671 177.318 94.3179 177.697 94.3179C177.866 94.3179 177.995 94.2928 178.084 94.2691L178.1 95.0268C177.956 95.0822 177.697 95.1218 177.383 95.1218C177.02 95.1218 176.714 95.0017 176.529 94.7997C176.32 94.5753 176.224 94.2202 176.224 93.7041V91.8601H175.659V91.1182H176.224V90.2325L177.189 89.9976Z" fill="black"/>
<path d="M179.532 91.1152L179.944 92.8972C180.031 93.3144 180.121 93.7434 180.193 94.1697H180.209C180.29 93.7434 180.418 93.3078 180.531 92.9052L181.039 91.1166H181.845L182.336 92.8563C182.457 93.3157 182.561 93.7434 182.65 94.1697H182.666C182.73 93.7434 182.819 93.3157 182.923 92.8563L183.359 91.1166H184.333L183.101 95.0396H182.182L181.715 93.4437C181.594 93.0332 181.505 92.6623 181.417 92.1884H181.4C181.318 92.6702 181.214 93.057 181.101 93.4437L180.602 95.0396H179.677L178.517 91.1152H179.532Z" fill="black"/>
<path d="M187.126 95.0398L187.061 94.6042H187.036C186.795 94.9104 186.384 95.1282 185.876 95.1282C185.086 95.1282 184.643 94.5554 184.643 93.9587C184.643 92.9687 185.521 92.4684 186.971 92.4764V92.413C186.971 92.1556 186.867 91.7279 186.174 91.7279C185.787 91.7279 185.385 91.8494 185.119 92.0183L184.927 91.3742C185.217 91.1973 185.724 91.0283 186.344 91.0283C187.601 91.0283 187.964 91.8256 187.964 92.6796V94.0973C187.964 94.4524 187.98 94.7969 188.021 95.0398H187.126ZM186.997 93.1218C186.296 93.106 185.628 93.2591 185.628 93.8558C185.628 94.2425 185.876 94.4207 186.191 94.4207C186.586 94.4207 186.876 94.1633 186.965 93.8808C186.99 93.8082 186.997 93.7277 186.997 93.663V93.1218Z" fill="black"/>
<path d="M189.008 92.3812C189.008 91.8492 189 91.4704 188.978 91.1153H189.838L189.87 91.8651H189.902C190.095 91.308 190.554 91.0269 190.975 91.0269C191.07 91.0269 191.127 91.0348 191.209 91.0506V91.9852C191.127 91.9693 191.04 91.9535 190.918 91.9535C190.443 91.9535 190.121 92.2597 190.031 92.7033C190.015 92.7904 189.999 92.896 189.999 93.0082V95.0397H189.008V92.3812Z" fill="black"/>
<path d="M192.504 93.3569C192.529 94.0658 193.083 94.372 193.713 94.372C194.172 94.372 194.502 94.3073 194.8 94.1951L194.944 94.8802C194.606 95.0175 194.139 95.1218 193.575 95.1218C192.302 95.1218 191.553 94.3403 191.553 93.1405C191.553 92.0528 192.213 91.0298 193.47 91.0298C194.744 91.0298 195.162 92.0765 195.162 92.9385C195.162 93.1233 195.145 93.2685 195.13 93.3569H192.504ZM194.229 92.6626C194.237 92.3009 194.076 91.703 193.414 91.703C192.803 91.703 192.546 92.26 192.505 92.6626H194.229Z" fill="black"/>
<defs>
<linearGradient id="paint0_linear_18_36" x1="83.0337" y1="20.5139" x2="132.831" y2="20.5139" gradientUnits="userSpaceOnUse">
<stop offset="0.005"/>
<stop offset="1" stop-color="#964000"/>
</linearGradient>
</defs>
</svg>
