<svg width="238" height="355" viewBox="0 0 238 355" fill="none" xmlns="http://www.w3.org/2000/svg">
<g clip-path="url(#clip0_6_11)">
<path d="M230.89 349.173C236.547 348.9 234.272 339.019 233.866 335.39C229.387 322.136 230.441 307.675 228.678 293.782C227.581 280.813 226.171 267.883 224.985 254.925C222.655 228.619 205.928 175.067 186.836 166.455C184.431 155.918 174.499 146.083 161.932 146.083C153.361 135.952 143.044 128.822 129.812 130.261C124.343 130.51 119.039 136.301 113.801 137.419C110.867 137.823 84.8317 136.783 79.6164 139.876C75.9836 141.739 72.7042 145.181 73.7723 149.563C75.4766 154.872 70.1802 149.127 59.1317 154.794C36.6024 168.305 50.065 186.38 50.6616 186.94C36.6024 206.473 24.3138 222.32 18.6282 246.195C14.9433 263.92 15.3581 282.218 12.2706 300.034C11.1805 306.212 9.50815 312.178 7.69996 318.176C5.73867 326.027 4.78495 345.594 3.7039 345.77C1.73471 346.258 4.84204 350.296 6.92862 350.299C64.7791 359.881 123.541 350.696 181.702 349.195C198.092 348.627 214.5 348.496 230.89 349.173Z" fill="#D08B5B"/>
<path d="M113.873 154.619C113.873 160.767 135.251 183.611 142.629 182.104C147.547 181.099 154.978 174.547 164.923 162.447V154.619L162.776 146.096C174.942 146.524 184.485 156.154 186.836 166.453C205.735 174.98 222.32 227.551 224.91 254.126L224.984 254.924C226.171 267.883 227.581 280.811 228.678 293.781C230.44 307.673 229.387 322.134 233.866 335.389L233.892 335.614C234.361 339.409 236.434 348.905 230.89 349.172C214.5 348.495 198.092 348.626 181.701 349.195C123.539 350.696 64.7774 359.881 6.92689 350.299C4.84061 350.297 1.73328 346.259 3.70247 345.771C4.78352 345.596 5.7387 326.028 7.69999 318.177L8.07235 316.936C9.73769 311.353 11.2572 305.786 12.2721 300.034C15.3596 282.218 14.9448 263.92 18.6297 246.195C24.3153 222.32 36.6033 206.474 50.6631 186.941C50.0665 186.381 36.6039 168.306 59.1332 154.794C70.1817 149.128 75.4781 154.872 73.7738 149.562C72.7057 145.18 75.9851 141.738 79.6179 139.875C84.8317 136.783 110.867 137.824 113.801 137.419C115.239 137.068 116.621 136.516 117.904 135.778L117.666 136.57C115.137 145.031 113.873 151.047 113.873 154.619Z" fill="#9FD8E5"/>
<path d="M143.415 355C143.237 355.002 143.064 354.934 142.936 354.811C142.807 354.687 142.733 354.517 142.729 354.339C141.88 342.021 141.326 329.753 140.791 317.89V317.879C140.411 309.447 140.169 300.797 140.052 291.433C139.893 291.433 139.73 291.436 139.574 291.437H139.551C139.32 291.439 139.08 291.442 138.845 291.442C132.519 291.47 125.978 291.499 119.546 291.499C114.04 291.499 109.143 291.478 104.574 291.435L104.577 291.438C104.597 291.459 104.613 291.483 104.625 291.51C105.442 293.436 105.532 295.89 105.51 298.037C105.475 300.43 105.173 302.811 104.61 305.138C104.109 307.225 103.428 309.265 102.574 311.235C101.717 313.212 100.72 315.127 99.5915 316.964C97.3154 320.626 94.6684 324.044 91.6922 327.166L91.5019 327.367C91.2994 327.581 91.088 327.799 90.8834 328.01L90.8737 328.02C89.6706 329.263 88.4262 330.548 87.7093 332.118C87.024 333.617 86.6941 335.322 86.3748 336.97C86.294 337.387 86.2108 337.818 86.1239 338.232L86.0741 338.466L84.412 346.132C84.2993 346.651 84.2048 347.217 84.1046 347.815C83.7379 350.007 83.3222 352.492 81.8038 353.875C81.2444 354.413 80.5019 354.719 79.7254 354.733C78.4629 354.733 77.3028 353.875 76.7688 352.547C76.2059 351.147 76.5932 349.647 76.9691 348.195V348.193C77.0329 347.946 77.0987 347.691 77.1576 347.445L80.2286 334.554C80.7462 332.399 81.2997 330.31 82.3737 328.448C83.4861 326.521 85.0835 325.147 86.7752 323.692L86.7937 323.677C88.3815 322.311 89.8912 320.858 91.3158 319.324C92.7405 317.79 94.0736 316.173 95.308 314.482C97.7981 311.109 99.8223 307.416 101.326 303.504C102.07 301.544 102.657 299.529 103.081 297.476C103.272 296.541 103.372 295.572 103.468 294.636C103.553 293.618 103.696 292.606 103.896 291.604C103.914 291.54 103.948 291.482 103.995 291.436C104.043 291.39 104.101 291.357 104.166 291.341C104.158 291.317 104.155 291.292 104.158 291.267C104.161 291.242 104.169 291.219 104.183 291.198C104.196 291.178 104.214 291.162 104.234 291.15C104.255 291.139 104.278 291.132 104.302 291.131L113.645 290.532C121.623 290.018 130.162 289.455 138.553 288.821L140.02 288.716C139.915 277.984 139.979 266.438 140.215 253.417C140.288 249.367 140.335 245.248 140.381 241.265V241.248C140.456 234.625 140.535 227.775 140.735 221.041C140.9 215.523 141.259 210.07 141.623 204.998C141.93 200.722 142.389 196.399 142.834 192.218C142.957 191.058 143.084 189.859 143.208 188.664C143.208 188.61 143.23 188.557 143.268 188.519C143.307 188.48 143.359 188.459 143.414 188.459C143.468 188.459 143.521 188.48 143.559 188.519C143.598 188.557 143.62 188.61 143.62 188.664L144.028 192.601C144.48 196.974 144.992 202.056 145.35 207.04C145.784 213.086 146.074 219.17 146.211 225.124C146.716 246.964 146.797 269.146 146.835 288.224C149.609 288.032 152.484 287.84 155.382 287.654C157.097 287.543 158.94 287.428 161.184 287.292L166.116 286.993L168.146 286.869C168.337 286.857 168.534 286.84 168.726 286.823H168.728C169.095 286.791 169.474 286.759 169.841 286.759C170.534 286.759 171.41 286.86 172.036 287.653C172.488 288.224 172.568 288.842 172.255 289.346C171.483 290.589 170.336 290.63 169.007 290.677H168.992L168.726 290.687C167.379 290.742 166.013 290.796 164.665 290.847C162.098 290.947 159.056 291.06 155.963 291.147C152.899 291.233 149.827 291.303 146.829 291.354C146.799 300.218 146.435 309.002 146.033 317.97L145.853 321.962C145.309 334.016 144.802 344.135 144.098 354.338C144.094 354.516 144.021 354.685 143.893 354.809C143.765 354.933 143.593 355.002 143.415 355V355ZM55.8304 353.847C55.5036 353.854 55.1809 353.773 54.896 353.613C54.6112 353.453 54.3748 353.219 54.2116 352.936L54.4166 353.071C54.436 353.085 54.4569 353.097 54.4789 353.106C54.4827 353.097 54.2714 352.936 53.8141 352.6L53.3214 351.964C52.9656 351.456 52.7334 350.873 52.6432 350.26C52.568 349.498 52.5816 348.73 52.6836 347.971C52.7082 347.708 52.7336 347.439 52.7506 347.182L53.8817 329.757C54.2067 324.753 54.555 319.692 54.8934 314.797C55.4736 306.383 56.0734 297.684 56.562 289.115C56.8822 283.5 57.1855 276.856 57.004 270.147C56.901 266.335 56.7657 263.41 56.5649 260.664C56.312 257.196 55.9566 254.113 55.4789 251.238C55.4631 251.152 55.4666 251.064 55.4889 250.98C55.5113 250.896 55.552 250.817 55.6083 250.751C55.6604 250.689 55.7252 250.638 55.7984 250.603C55.8717 250.568 55.9516 250.55 56.0327 250.548C56.1245 250.55 56.2142 250.576 56.293 250.622C56.3719 250.669 56.4371 250.736 56.4823 250.816C57.4594 252.355 58.3321 253.957 59.0947 255.613C59.8405 257.238 60.4847 258.907 61.0238 260.611C62.0946 264.063 62.8194 267.612 63.1876 271.207C63.5293 274.445 63.6879 277.7 63.6627 280.956C63.6542 284.476 63.4836 288.022 63.3354 290.719C62.959 297.583 62.5202 304.448 62.0659 311.462L61.3783 322.062L59.6511 348.635C59.6229 349.537 59.4441 350.429 59.1222 351.273C58.807 352.075 58.2167 352.739 57.4566 353.148C57.2481 353.325 57.0215 353.48 56.7806 353.61C56.4881 353.765 56.1619 353.846 55.8307 353.847H55.8304ZM4.47126 353.416C3.84177 353.415 3.23084 353.203 2.73772 352.812C2.2376 352.415 1.86578 351.879 1.66867 351.272C0.95937 349.088 0.49307 346.833 0.278201 344.547C0.0548515 342.259 -0.036046 339.961 0.00596238 337.662C0.0457737 333.548 0.509458 329.201 1.46376 323.982C2.57613 317.905 4.12584 311.815 5.62491 305.926V305.924L5.62755 305.914C6.31927 303.196 7.03441 300.387 7.69686 297.616C8.61603 293.77 9.39762 289.855 10.0197 285.979C10.64 282.114 11.1236 278.15 11.4573 274.199C11.6282 272.176 11.7848 270.118 11.9362 268.127V268.11C12.3999 262.013 12.8793 255.709 13.8339 249.557C14.4522 245.557 15.3596 241.606 16.549 237.736C17.7443 233.868 19.2284 230.095 20.9888 226.448C24.5271 219.121 28.9845 212.394 32.4726 207.352C35.1157 203.531 37.8378 199.892 40.564 196.534C43.472 192.952 46.4888 189.561 49.5312 186.455C48.9342 186.423 48.3557 186.237 47.8515 185.916C47.0535 185.398 46.4171 184.667 46.0146 183.806C45.605 182.952 45.3387 182.037 45.2263 181.097C44.9469 178.958 44.8547 176.8 44.9505 174.646C45.0443 172.492 45.3642 170.353 45.9051 168.266C46.775 164.917 48.3668 161.799 50.5692 159.128C51.664 157.812 52.9194 156.638 54.3062 155.634C55.7133 154.617 57.2544 153.799 58.8857 153.203C60.6032 152.618 62.4049 152.316 64.2198 152.31C64.379 152.306 64.5485 152.304 64.7382 152.304C65.0181 152.304 65.2991 152.309 65.5707 152.313H65.5716C65.8471 152.317 66.1316 152.321 66.417 152.321C67.4481 152.356 68.4783 152.23 69.4705 151.948C70.5673 151.587 71.4994 150.812 72.3196 149.575C72.9975 148.473 73.5707 147.31 74.0315 146.102C74.0997 145.938 74.1641 145.783 74.2297 145.627L74.2754 145.519C74.863 144.063 75.6066 142.675 76.4931 141.379C77.3922 140.086 78.5202 138.969 79.8214 138.082C82.9188 135.975 86.8335 135.109 89.8975 134.591L90.1182 134.553C92.872 134.087 95.6594 133.847 98.4525 133.835C104.304 133.835 109.481 134.998 113.835 137.292C113.848 137.299 113.858 137.31 113.864 137.324C113.87 137.337 113.87 137.353 113.866 137.367C113.863 137.381 113.856 137.394 113.844 137.404C113.833 137.413 113.819 137.419 113.804 137.419H113.801L111.476 137.327C108.669 137.217 106.315 137.144 103.948 137.144C101.277 137.144 98.9127 137.242 96.7222 137.443C94.3056 137.654 91.9074 138.039 89.5462 138.595L88.8053 138.773C87.481 139.076 86.1775 139.463 84.9029 139.932C83.6317 140.395 82.4437 141.061 81.3849 141.902C80.4394 142.711 79.6558 143.692 79.0755 144.792C78.4905 145.893 77.9715 147.028 77.5212 148.191L77.4307 148.412L77.3028 148.72C76.8386 149.872 76.2584 150.974 75.571 152.009C74.8806 153.046 73.998 153.943 72.9707 154.65C71.8838 155.362 70.661 155.842 69.3792 156.059C68.103 156.271 66.814 156.395 65.521 156.431H65.518C64.9302 156.461 64.3222 156.493 63.7303 156.54C62.3654 156.651 61.0266 156.977 59.7633 157.505C58.518 158.027 57.3513 158.72 56.2965 159.562C55.2334 160.41 54.2773 161.383 53.4491 162.461C52.6169 163.541 51.9098 164.711 51.3414 165.95C50.0956 168.662 49.398 171.892 49.2683 175.551C49.1794 177.234 49.231 178.92 49.4226 180.594C49.5202 181.072 49.6618 181.541 49.8456 181.993C49.9919 182.37 50.2709 183.001 50.4685 183.001H50.4805C50.5595 182.99 50.6391 182.984 50.7188 182.984C51.0161 182.976 51.3093 183.056 51.5607 183.215C51.8121 183.373 52.0102 183.604 52.1297 183.876C54.0032 182.068 55.906 180.34 57.7862 178.742C62.6372 174.607 67.8431 170.906 73.3436 167.681C77.1816 165.44 81.7514 162.89 86.5422 160.972H86.4904C86.1371 160.97 85.7886 161.054 85.4749 161.216C85.4561 161.226 85.4353 161.233 85.4139 161.234C85.3925 161.236 85.3709 161.233 85.3507 161.226C85.3305 161.219 85.312 161.207 85.2965 161.192C85.281 161.178 85.2689 161.16 85.2609 161.14C85.2494 161.113 85.2462 161.083 85.2518 161.055C85.2574 161.026 85.2715 161 85.2923 160.98C85.7547 160.483 86.3163 160.088 86.9409 159.821C87.5108 159.588 88.1214 159.471 88.7371 159.476C89.2311 159.479 89.723 159.54 90.2034 159.654C90.6035 159.527 90.9692 159.416 91.3207 159.314C91.3368 159.309 91.3535 159.306 91.3702 159.306C91.4039 159.307 91.4366 159.318 91.4631 159.339C91.4895 159.36 91.5084 159.389 91.5166 159.422C91.5279 159.457 91.5274 159.495 91.5151 159.529C91.5028 159.564 91.4793 159.594 91.4484 159.614L91.0204 159.887C92.9094 160.519 94.7544 161.751 96.2371 162.741L96.2647 162.759C100.116 165.329 103.605 168.469 106.979 171.506L106.994 171.52C107.333 171.825 107.684 172.141 108.03 172.451L108.719 173.067C111.908 175.911 115.393 178.877 119.257 181.31C121.232 182.591 123.324 183.683 125.505 184.57C125.93 184.738 126.413 184.889 126.921 185.05C128.658 185.598 130.627 186.219 131.306 187.748C131.472 187.94 131.596 188.164 131.669 188.407C131.741 188.65 131.762 188.906 131.729 189.157C131.684 189.435 131.583 189.701 131.432 189.939C131.28 190.176 131.081 190.38 130.847 190.538C130.305 191.133 129.516 191.435 128.502 191.435C127.185 191.435 125.747 190.953 124.39 190.431C122.177 189.584 120.036 188.557 117.989 187.362C114.447 185.285 110.836 182.571 106.952 179.065C104.588 176.931 102.276 174.673 100.039 172.488C98.9071 171.382 97.7374 170.24 96.5697 169.122C95.8431 168.426 95.1128 167.711 94.4064 167.019C93.6544 166.283 92.8769 165.522 92.1009 164.781L91.3459 164.067C91.2312 163.96 91.1097 163.844 90.9809 163.721C90.1785 162.899 89.2847 162.171 88.317 161.552C87.4725 162.055 86.6125 162.556 85.7808 163.041C84.4357 163.825 83.0461 164.635 81.6999 165.464C78.9719 167.146 76.0578 169.098 72.7906 171.433C67.1824 175.456 61.8883 179.898 56.9539 184.722C54.7435 186.877 52.5454 189.175 50.4214 191.554C48.3723 193.848 46.3316 196.283 44.3563 198.793C40.4711 203.754 36.8448 208.912 33.4916 214.247L32.9808 215.058C30.74 218.633 28.9997 221.596 27.5088 224.383C25.7908 227.551 24.2788 230.826 22.9823 234.188C21.5923 237.884 20.5066 241.687 19.7363 245.559C18.9633 249.43 18.3992 253.34 18.0463 257.271C17.7065 260.861 17.4664 264.519 17.234 268.057C16.9606 272.221 16.6778 276.526 16.2311 280.746C15.835 284.488 15.2417 288.379 14.4162 292.643C13.7429 296.128 12.9154 299.863 11.8135 304.397L11.3607 306.25C11.2701 306.619 11.1796 306.987 11.089 307.356L11.0723 307.423V307.426C9.47314 313.927 7.8198 320.65 6.98582 327.413C6.48606 331.246 6.25483 335.11 6.2938 338.976C6.34649 342.15 6.77271 345.325 7.18487 348.396L7.18721 348.414C7.27854 349.094 7.3728 349.797 7.46179 350.489C7.49648 350.844 7.44946 351.202 7.32434 351.535C7.19922 351.869 6.99932 352.17 6.73992 352.414C6.2456 352.922 5.60293 353.261 4.90392 353.383C4.76072 353.404 4.6161 353.415 4.47126 353.416ZM234.794 349.499C233.999 349.508 233.227 349.233 232.617 348.724C232.286 348.433 232.021 348.076 231.837 347.676C231.654 347.276 231.556 346.843 231.551 346.403C231.284 340.907 230.731 335.428 229.895 329.989C229.091 324.56 228.083 319.068 227.107 313.757V313.753C226.324 309.492 225.515 305.085 224.814 300.726C223.965 295.444 223.292 289.636 222.754 282.969C222.276 277.025 221.948 270.962 221.631 265.098V265.095C221.225 257.601 220.806 249.851 220.068 242.273C219.671 238.195 219.216 234.489 218.677 230.945C218.072 226.967 217.377 223.294 216.554 219.714C215.362 214.506 213.82 209.384 211.936 204.383C210.05 199.384 207.777 194.538 205.139 189.89C203.768 187.486 202.345 185.219 200.909 183.155C199.399 180.974 197.764 178.883 196.01 176.892C193.527 174.089 190.182 170.47 186.32 167.333C186.121 167.525 185.886 167.675 185.629 167.775C185.371 167.876 185.096 167.924 184.82 167.918C184.297 167.914 183.785 167.761 183.346 167.477C182.886 167.186 182.536 166.751 182.351 166.24C182.144 165.56 182.026 164.855 181.999 164.144C181.969 163.627 181.904 163.113 181.805 162.604C181.568 161.501 181.228 160.422 180.79 159.381C179.88 157.293 178.639 155.365 177.114 153.671C176.313 152.777 175.444 151.947 174.513 151.188C173.583 150.431 172.598 149.743 171.566 149.13C170.261 148.352 168.853 147.907 167.491 147.476C166.666 147.214 165.812 146.944 164.982 146.602C164.965 146.595 164.95 146.584 164.94 146.569C164.929 146.554 164.924 146.536 164.924 146.517C164.925 146.5 164.931 146.484 164.941 146.471C164.952 146.457 164.966 146.448 164.982 146.443C165.742 146.193 166.537 146.071 167.337 146.083C169.172 146.083 171.139 146.619 172.648 147.086C173.945 147.495 175.192 148.051 176.363 148.742C177.536 149.433 178.644 150.226 179.676 151.113C180.757 152.037 181.743 153.068 182.619 154.188C183.495 155.309 184.255 156.516 184.888 157.79L185.008 158.035C185.659 159.323 186.192 160.667 186.601 162.051C187.055 163.673 187.153 165.083 186.894 166.241C186.877 166.316 186.858 166.387 186.836 166.455C189.184 167.603 191.447 168.919 193.607 170.391C195.77 171.87 197.804 173.528 199.687 175.348C201.883 177.485 203.929 179.771 205.811 182.188C207.691 184.607 209.423 187.136 210.997 189.764C212.553 192.361 213.969 195.04 215.239 197.789C216.467 200.442 217.606 203.252 218.624 206.143C219.59 208.881 220.478 211.782 221.265 214.763C222.004 217.56 222.679 220.528 223.274 223.585C224.328 229 225.168 234.885 225.847 241.577C226.477 247.784 226.892 253.911 227.246 259.607L227.616 265.651C228.064 272.919 228.488 279.023 229.098 285.189C229.809 292.386 230.697 298.733 231.811 304.593L231.99 305.523C232.538 308.347 233.147 311.225 233.735 314.009V314.013C234.848 319.278 235.999 324.722 236.813 330.117C237.252 333.022 237.56 335.677 237.754 338.234C237.969 340.951 238.042 343.677 237.972 346.402C237.975 346.84 237.886 347.273 237.709 347.673C237.532 348.074 237.273 348.432 236.947 348.725C236.346 349.233 235.582 349.507 234.794 349.497V349.499ZM198.623 347.073C198.287 347.076 197.953 347.008 197.645 346.874C197.337 346.74 197.061 346.542 196.835 346.294C195.183 344.514 195.066 341.634 194.962 339.092V339.089C194.933 338.371 194.905 337.692 194.845 337.058C194.619 334.65 194.359 332.212 194.072 329.813L193.926 328.607C193.871 328.163 193.817 327.709 193.765 327.271C193.529 324.952 193.168 322.648 192.681 320.369C192.178 318.119 191.015 316.069 189.34 314.48C188.838 313.981 188.321 313.484 187.821 313.003L187.815 312.997C186.586 311.814 185.316 310.591 184.171 309.265C182.467 307.28 180.916 305.169 179.531 302.95C178.37 301.028 177.363 299.017 176.519 296.936L176.374 296.593C176.224 296.235 176.058 295.862 175.882 295.466C175.071 293.642 174.153 291.576 174.207 289.759C174.208 289.735 174.215 289.712 174.229 289.692C174.243 289.672 174.262 289.656 174.284 289.647C174.306 289.638 174.331 289.635 174.355 289.639C174.378 289.644 174.4 289.655 174.418 289.671C174.997 290.262 175.487 290.934 175.872 291.666C176.032 291.935 176.196 292.214 176.366 292.475C177.081 293.572 177.83 294.643 178.593 295.658C180.167 297.752 181.947 299.752 183.637 301.603C185.27 303.387 186.993 305.088 188.797 306.699C189.476 307.306 190.195 307.9 190.89 308.474C192.238 309.537 193.511 310.69 194.701 311.926C198.155 315.69 198.9 320.752 199.621 325.647L199.622 325.659C199.671 325.991 199.722 326.334 199.772 326.67L199.858 327.231C200.318 330.211 200.75 333.327 201.143 336.491V336.494C201.315 337.884 201.511 339.459 201.668 341.009L201.714 341.486C201.798 342.217 201.809 342.955 201.745 343.688C201.679 344.423 201.436 345.13 201.037 345.75C200.769 346.154 200.405 346.485 199.978 346.715C199.563 346.944 199.097 347.066 198.622 347.071L198.623 347.073ZM216.533 346.033C216.019 346.016 215.517 345.873 215.071 345.618C214.624 345.363 214.247 345.003 213.971 344.57C213.005 343.188 212.931 340.999 212.865 339.067C212.841 338.378 212.819 337.728 212.759 337.145C212.484 334.475 212.241 332.31 211.995 330.332C211.439 325.846 210.692 321.325 209.969 317.107C209.12 312.15 208.043 307.143 207.003 302.302C206.125 298.21 205.216 293.981 204.447 289.8C202.449 278.937 201.498 269.943 201.452 261.494C201.417 254.963 201.884 248.333 202.336 241.921V241.919C202.548 238.903 202.768 235.785 202.933 232.711C203.413 223.756 203.987 214.208 204.685 203.517C204.686 203.459 204.711 203.405 204.754 203.365C204.796 203.325 204.852 203.304 204.91 203.306C204.938 203.305 204.966 203.309 204.992 203.32C205.019 203.33 205.042 203.346 205.062 203.365C205.082 203.385 205.098 203.409 205.109 203.435C205.119 203.461 205.124 203.489 205.124 203.517C205.172 205.765 205.22 208.032 205.276 210.743C205.369 215.178 205.427 219.689 205.485 224.052V224.057C205.581 231.423 205.68 239.04 205.942 246.527C206.235 254.923 206.706 262.258 207.381 268.952C207.815 273.252 208.435 277.698 209.278 282.544C209.983 286.597 210.858 291.001 211.954 296.007C212.442 298.235 212.95 300.489 213.438 302.669L213.442 302.69C213.96 304.998 214.496 307.384 215.009 309.735C215.189 310.559 215.375 311.399 215.554 312.211L215.575 312.305C216.362 315.866 217.176 319.547 217.8 323.188C218.484 327.177 219.226 331.885 219.544 336.561L219.582 337.146C219.607 337.557 219.649 338.003 219.695 338.474C219.816 339.52 219.87 340.572 219.855 341.624C219.808 342.823 219.576 343.743 219.143 344.438C218.514 345.45 217.562 346.031 216.532 346.031L216.533 346.033ZM142.453 184.226C141.246 184.211 140.059 183.922 138.98 183.383C137.884 182.832 136.845 182.176 135.877 181.424L135.65 181.254C133.353 179.518 131.293 177.86 129.351 176.186C125.155 172.626 121.263 168.723 117.715 164.518C115.958 162.431 114.308 160.256 112.771 158.003C111.227 155.753 109.9 153.362 108.81 150.861C108.788 150.81 108.779 150.753 108.784 150.697C108.788 150.641 108.807 150.587 108.838 150.54C108.864 150.499 108.899 150.465 108.94 150.442C108.982 150.418 109.029 150.405 109.077 150.404C109.155 150.406 109.23 150.439 109.285 150.495C110.384 151.539 111.417 152.625 112.283 153.55C112.294 152.915 112.252 152.267 112.211 151.64C112.126 150.733 112.117 149.821 112.184 148.913C112.243 148.351 112.278 147.758 112.313 147.186C112.396 145.823 112.482 144.413 112.86 143.143C113.071 142.434 113.503 141.81 114.095 141.364C114.686 140.918 115.405 140.673 116.146 140.666C116.442 140.666 116.736 140.705 117.021 140.783C117.488 140.928 117.92 141.165 118.293 141.481C118.666 141.797 118.971 142.184 119.19 142.621C119.383 142.972 119.5 143.359 119.533 143.759C119.567 144.158 119.516 144.56 119.383 144.938C118.871 146.298 118.066 147.532 117.285 148.726V148.728C116.997 149.169 116.7 149.626 116.419 150.083C115.908 150.872 115.337 151.621 114.711 152.322C114.125 152.982 113.585 153.682 113.095 154.417L114.168 155.572C114.643 156.082 115.207 156.684 115.788 157.284L117.66 159.22C119.049 160.654 120.548 162.186 122.093 163.674C124.743 166.226 126.826 168.157 128.848 169.935C131.354 172.139 133.694 174.037 136.002 175.737C137.029 176.493 138.226 177.367 139.443 178.172L139.88 178.461C140.592 178.927 141.428 179.426 142.33 179.426C142.404 179.426 142.479 179.422 142.551 179.416C144.563 179.231 146.421 177.373 147.914 175.879C148.177 175.616 148.424 175.369 148.663 175.139L148.748 175.058C152.786 171.242 156.465 167.065 159.739 162.579C160.435 161.619 161.122 160.625 161.841 159.542C160.57 158.059 160.572 155.425 160.573 153.308V153.304C160.573 152.802 160.573 152.328 160.558 151.903C160.499 150.435 160.492 148.943 160.485 147.499L160.483 147.209L160.479 146.894L160.477 146.78C160.457 145.802 160.439 144.878 161.073 144.075C161.084 144.062 161.098 144.052 161.114 144.045C161.13 144.038 161.147 144.035 161.165 144.036C161.191 144.036 161.216 144.042 161.239 144.054C162.069 144.488 162.368 145.185 162.713 145.992L162.726 146.021C162.752 146.08 162.778 146.14 162.804 146.201L162.844 146.293C163.208 147.119 163.565 147.965 163.911 148.784V148.787L163.923 148.816C164.02 149.044 164.117 149.273 164.213 149.501C164.625 150.472 165.013 151.47 165.388 152.434L165.565 152.892C165.749 153.364 165.943 153.884 166.159 154.481C166.271 154.807 166.389 155.139 166.52 155.496L166.55 155.522C166.705 155.654 166.847 155.802 166.973 155.962C167.244 156.101 167.481 156.297 167.669 156.535C167.857 156.774 167.992 157.05 168.064 157.345C168.453 158.74 167.705 159.89 166.981 161.001L166.874 161.166C163.813 165.913 160.321 170.367 156.441 174.474C154.535 176.481 152.495 178.433 150.376 180.278L150.007 180.597C149.071 181.428 148.066 182.178 147.003 182.839C145.94 183.499 144.756 183.943 143.521 184.146C143.168 184.199 142.811 184.226 142.453 184.226V184.226Z" fill="black"/>
<path d="M137.229 109.725C142.131 106.444 166.948 107.086 169.239 109.603C171.529 112.12 176.823 119.304 165.484 122.833C154.145 126.361 140.108 125.125 136.451 120.805L136.236 120.547C132.778 116.347 132.422 112.94 137.229 109.725Z" fill="white"/>
<path d="M187.662 73.6802C186.575 65.0218 183.162 55.829 179.572 47.757C171.5 30.6904 153.021 28.3405 136.455 24.8217C120.107 22.4453 102.798 20.2994 86.6968 25.0409C77.6453 27.2552 74.1094 38.0194 75.5385 46.5144C76.3538 51.8078 78.7667 56.8176 80.8229 61.7234C84.9126 71.7981 87.5074 82.5839 87.5118 93.4916C87.231 100.62 86.2237 108.756 94.4269 111.775C102.235 115.651 102.895 126.16 112.669 132.123C116.621 140.117 127.387 140.82 135.136 142.675C140.034 143.61 144.987 144.3 149.953 144.745C164.334 146.585 175.838 142.424 183.366 129.632C188.404 121.847 192.155 112.858 191.228 103.423C190.304 93.4858 188.768 83.6023 187.662 73.6802Z" fill="#D08B5B"/>
<path d="M152.548 147.634C149.423 147.643 146.309 147.279 143.271 146.549C140.274 145.837 137.398 144.69 134.736 143.145C133.898 142.653 133.539 141.843 133.775 140.979C133.901 140.53 134.163 140.13 134.526 139.836C134.901 139.523 135.373 139.352 135.861 139.351C136.195 139.353 136.524 139.429 136.826 139.573C139.043 140.623 141.334 141.51 143.681 142.225C146.031 142.94 148.453 143.391 150.903 143.57C151.773 143.631 152.654 143.662 153.522 143.662C157.518 143.669 161.488 143.011 165.267 141.714C167.172 141.054 169.012 140.22 170.763 139.222C172.512 138.225 174.171 137.077 175.721 135.793C178.828 133.217 181.484 130.142 183.58 126.695C185.649 123.325 187.117 119.623 187.922 115.753C188.397 113.333 188.646 110.873 188.666 108.407C188.701 106.278 188.619 103.997 188.398 101.014L188.372 100.679C187.524 89.5031 186.51 80.5138 185.182 72.39C184.517 68.324 183.657 64.1952 182.624 60.1178C181.617 56.1377 180.416 52.0963 179.058 48.1057C178.007 47.1809 176.827 46.413 175.556 45.8257C172.014 45.6781 168.433 45.603 164.911 45.603C159.189 45.603 153.424 45.8006 147.777 46.1902C139.893 46.7314 132.043 47.674 124.256 49.0142L123.422 49.1604C123.037 49.2288 122.636 49.2916 122.249 49.3524C120.859 49.5708 119.422 49.7964 118.159 50.3351C117.528 50.5953 116.99 51.0379 116.613 51.6061C116.251 52.1838 115.992 52.82 115.849 53.4862C114.992 56.9389 114.841 60.6617 114.695 64.2618L114.681 64.6029C114.617 66.1595 114.645 67.7479 114.671 69.2839C114.705 71.2716 114.741 73.3277 114.579 75.3364C114.481 76.8346 114.188 78.3137 113.708 79.7365C113.462 80.4381 113.146 81.1128 112.763 81.7499C112.372 82.3958 111.901 82.99 111.362 83.5184C110.55 84.2509 109.649 84.8777 108.68 85.3839C108.274 85.6177 107.854 85.8595 107.448 86.1199C107.069 86.3356 106.75 86.644 106.523 87.0161C106.328 87.4017 106.26 87.8389 106.33 88.2652C106.426 88.9414 106.578 89.6085 106.784 90.2599C107.286 92.0321 107.805 93.8643 106.347 95.2425C106.16 95.4155 105.914 95.5116 105.66 95.5115C105.54 95.5136 105.422 95.4908 105.312 95.4445C105.202 95.3982 105.103 95.3294 105.021 95.2425C104.358 94.5788 103.626 93.9873 102.838 93.4782C102.57 93.2911 102.294 93.0982 102.036 92.9073C101.962 92.8596 101.905 92.789 101.875 92.7064C101.845 92.6238 101.843 92.5336 101.869 92.4495C101.894 92.371 101.944 92.3025 102.011 92.2538C102.077 92.2052 102.158 92.179 102.24 92.1789C102.308 92.1796 102.375 92.1946 102.437 92.223C102.733 92.3554 103.038 92.5025 103.333 92.6448C103.66 92.8026 103.998 92.9663 104.336 93.1148C103.591 92.5285 102.754 92.0693 101.859 91.7556C100.988 91.4416 100.094 91.196 99.1844 91.0213C98.5895 90.9039 97.9846 90.8452 97.3782 90.8459C97.1019 90.8459 96.822 90.8582 96.5498 90.8828C95.8628 91.2102 95.1549 91.5139 94.5537 91.7682C93.7817 92.0918 92.9381 92.415 91.9747 92.7565C90.4898 93.9743 89.3605 95.5688 88.7052 97.3726C88.0389 99.1949 87.8514 101.157 88.1604 103.073C88.3319 104.188 88.6795 105.27 89.1903 106.277C89.6898 107.291 90.4383 108.163 91.3661 108.811C92.5854 109.629 94.0592 109.804 95.4863 109.977C96.6572 110.119 97.8677 110.264 98.9446 110.76C100.029 111.273 100.978 112.031 101.716 112.975C102.456 113.916 103.079 114.943 103.573 116.033L103.999 116.932C104.899 118.935 105.976 120.853 107.217 122.666C108.735 124.762 110.53 126.644 112.553 128.26C113.528 129.038 114.556 129.748 115.628 130.385L115.921 130.558C116.933 131.151 117.777 131.755 117.853 133.139C117.852 133.369 117.792 133.595 117.677 133.794C117.563 133.993 117.399 134.16 117.2 134.276C116.819 134.527 116.373 134.66 115.917 134.66C114.858 134.66 113.824 133.959 112.911 133.342L112.908 133.34C112.791 133.26 112.679 133.185 112.567 133.11C111.088 132.13 109.689 131.036 108.384 129.836C105.892 127.545 103.778 124.877 102.116 121.929C101.694 121.138 101.314 120.325 100.98 119.492C100.246 117.765 99.4868 115.98 98.1619 114.824C97.1408 113.934 95.7735 113.789 94.4509 113.649C94.2112 113.623 93.9635 113.597 93.7238 113.566C92.3305 113.436 90.9751 113.04 89.7312 112.4C84.6348 109.573 83.1934 102.736 84.4035 97.4427C84.6096 96.5545 84.8927 95.6859 85.2498 94.8467C85.1136 94.8692 84.9757 94.8805 84.8377 94.8804C84.3342 94.8666 83.8412 94.734 83.3989 94.4934C82.9566 94.2529 82.5776 93.9112 82.293 93.4963C82.0567 93.1736 81.9054 92.7968 81.8527 92.4005C81.8 92.0042 81.8477 91.6011 81.9915 91.228C82.0339 91.1198 82.0819 91.0146 82.1282 90.9132V90.9105C82.1457 90.8716 82.1631 90.8332 82.1803 90.7954C80.8604 89.9314 79.8993 88.6186 79.4754 87.1006C79.2444 86.2833 79.1936 85.4256 79.3264 84.5868C78.7088 84.1762 78.215 83.6054 77.8979 82.9355C76.8711 82.5053 76.0157 81.748 75.465 80.7815C75.1269 80.1781 74.9458 79.4996 74.9381 78.8082C74.9467 78.1826 75.0994 77.5673 75.3845 77.0102C75.3061 76.8687 75.2294 76.7211 75.1562 76.5717C74.1247 75.926 73.265 75.0405 72.6507 73.9909C72.1451 73.1309 71.857 72.1606 71.8115 71.1643C71.766 70.168 71.9644 69.1756 72.3896 68.2731C72.3586 68.1735 72.3337 68.0893 72.3138 68.0156C70.4201 67.0542 69.1184 65.548 68.6485 63.7745C68.4033 62.8423 68.4048 61.8624 68.6529 60.931C68.8999 60.0145 69.3384 59.1605 69.9395 58.4253C67.9082 56.9413 67.1978 55.0492 67.7674 52.6406C68.0295 51.5555 68.5405 50.5462 69.26 49.6921C69.257 49.6683 69.2527 49.6447 69.2472 49.6213L69.2454 49.6131L69.0809 49.4857C66.5318 47.4773 65.8316 45.2689 66.9972 42.9222C67.5246 41.8242 68.3808 40.9171 69.4474 40.3265L69.4972 40.1687C68.7318 38.6049 68.5663 36.8154 69.0317 35.1381C69.2279 34.4214 69.5625 33.75 70.0167 33.1615C70.4611 32.5873 71.0025 32.0949 71.6165 31.7067C71.5309 30.9982 71.5516 30.2808 71.678 29.5784C71.7834 28.95 71.9965 28.3445 72.3079 27.7883C72.6098 27.249 73.005 26.7674 73.4754 26.366C73.5073 26.211 73.5494 26.0462 73.6042 25.8629C73.9457 24.789 74.4859 23.7886 75.1966 22.9135C75.4296 22.614 75.7284 22.372 76.07 22.2062C76.4117 22.0405 76.7869 21.9555 77.1667 21.9577C77.0392 20.2834 77.5107 18.6183 78.4971 17.2586C79.0951 16.4258 79.8982 15.7613 80.8287 15.3293C81.4109 15.0677 82.0424 14.9336 82.6808 14.9359C82.8542 14.9364 83.0275 14.9461 83.1998 14.9651C83.5287 14.2704 84.0208 13.6653 84.6342 13.2013C85.2603 12.7325 85.9958 12.4306 86.7711 12.3244C87.0679 12.2822 87.3672 12.2607 87.6669 12.2601C87.9481 12.2599 88.2289 12.2803 88.507 12.3212C88.8146 12.1787 89.1292 12.0519 89.4496 11.9412C89.6621 11.8667 89.8723 11.7992 90.1053 11.7252C90.8571 10.7903 91.8412 10.0687 92.9595 9.63228C93.5787 9.38975 94.238 9.26504 94.9032 9.26456C95.5495 9.26609 96.1906 9.38055 96.7974 9.60276L97.1751 9.52383C97.4716 9.00449 97.8698 8.55008 98.346 8.1877C98.8871 7.78829 99.5039 7.50296 100.159 7.34907C100.517 7.26101 100.885 7.21664 101.254 7.21695C102.548 7.24881 103.793 7.71579 104.787 8.54227H104.79C104.796 8.54238 104.802 8.54129 104.808 8.53905C105.099 7.83576 105.564 7.21794 106.16 6.7437C106.807 6.27041 107.592 6.02459 108.393 6.0448C108.455 6.0448 108.518 6.0448 108.581 6.0483C109.176 6.07459 109.759 6.22715 110.291 6.49583C110.824 6.7648 111.308 7.12042 111.725 7.54813C112.197 7.48967 112.662 7.43705 113.133 7.38444C113.635 6.79531 114.192 6.25495 114.796 5.77061C115.195 5.43378 115.698 5.24393 116.221 5.23277C116.547 5.23644 116.867 5.32382 117.151 5.48653C117.434 5.64924 117.67 5.88183 117.837 6.16201C117.996 6.40317 118.145 6.65075 118.289 6.89044L118.297 6.90447L118.973 6.85799C119.354 6.32915 119.839 5.88378 120.399 5.54934C120.992 5.20989 121.66 5.02183 122.343 5.00185C122.396 4.9998 122.449 4.99863 122.501 4.99863C123.638 4.99863 124.593 5.50461 125.419 6.54523C125.981 6.53149 126.575 6.52009 127.234 6.50986C127.953 5.68058 128.79 4.96243 129.72 4.37894C130.01 4.20221 130.345 4.11102 130.686 4.11586C130.948 4.11328 131.209 4.1624 131.453 4.2604C131.696 4.3584 131.918 4.50337 132.106 4.68703C132.5 5.09696 132.871 5.52807 133.218 5.97844C134.104 4.99858 135.284 4.33293 136.582 4.08196C136.735 3.90144 136.926 3.75651 137.141 3.65729C137.356 3.55808 137.59 3.50698 137.827 3.50757C138.431 3.53072 139.004 3.7793 139.433 4.20414C139.941 4.35463 140.426 4.5751 140.874 4.8592C141.556 4.77653 142.244 4.73748 142.931 4.74228C143.263 4.74228 143.614 4.74929 144.004 4.76362C144.259 4.62072 144.525 4.49853 144.8 4.39823C145.479 4.14386 146.197 4.01059 146.921 4.0045C148.08 4.01303 149.208 4.37075 150.159 5.03078C150.842 4.35645 151.764 3.97892 152.724 3.98053C152.799 3.98053 152.876 3.98257 152.952 3.98696C153.427 4.00994 153.89 4.13794 154.309 4.36169C154.7 4.57749 155.055 4.85162 155.363 5.1746C155.682 4.71198 156.1 4.32542 156.586 4.0425C157.107 3.74144 157.69 3.56486 158.291 3.52657C158.426 3.51693 158.563 3.51225 158.701 3.51225C160.211 3.51225 161.766 4.10125 163.198 5.21552C163.593 4.75046 164.084 4.37611 164.637 4.1181C165.191 3.86009 165.793 3.72452 166.404 3.72067C166.709 3.66574 167.019 3.63825 167.329 3.63853C167.857 3.63805 168.382 3.71507 168.888 3.86711C170.011 4.21242 171.026 4.84233 171.833 5.69549C173.196 4.39209 174.626 3.73119 176.084 3.73119C176.198 3.73119 176.314 3.73528 176.429 3.74347C177.563 3.83716 178.641 4.27504 179.519 4.99834C180.405 5.71746 181.1 6.64296 181.544 7.69341C182.326 8.00324 183.076 8.38899 183.784 8.8451C184.503 9.31171 185.165 9.86111 185.756 10.482C185.798 10.5253 185.839 10.5712 185.879 10.6156L185.882 10.6188L185.946 10.6893C186.6 10.9264 187.209 11.2732 187.747 11.715C188.543 12.3583 189.108 13.2418 189.36 14.2332C189.587 15.2119 189.556 16.233 189.269 17.196C189.339 17.4819 189.405 17.7923 189.477 18.1723C190.285 18.2865 191.056 18.5865 191.728 19.0486C192.401 19.5108 192.957 20.1224 193.352 20.8355C193.908 21.8795 194.159 23.0583 194.077 24.2377C194.043 24.8286 193.937 25.4132 193.761 25.9784C193.588 26.5376 193.344 27.0725 193.036 27.5703C192.511 28.3974 191.855 29.1336 191.093 29.75C191.507 30.7012 191.635 31.7525 191.46 32.7751C191.295 33.7943 190.847 34.7468 190.166 35.5245C189.829 36.0595 189.425 36.5497 188.964 36.9831C189.213 37.9482 189.131 38.9688 188.731 39.8819C188.328 40.8069 187.639 41.5791 186.765 42.0862L186.611 42.4715C186.582 42.5452 186.556 42.6057 186.532 42.6624C186.513 42.7375 186.491 42.8117 186.469 42.8834L186.463 42.9029C186.416 43.6424 186.16 44.3533 185.725 44.9538C185.396 45.4041 185.044 45.8369 184.67 46.2504C184.01 47.0043 183.387 47.7158 182.986 48.7236L182.924 48.8876C182.807 49.1956 182.603 49.4627 182.335 49.6557C182.068 49.8488 181.75 49.9593 181.421 49.9735C181.298 49.9739 181.176 49.9556 181.058 49.9195C182.075 52.0166 182.983 54.1652 183.776 56.3567C184.537 58.4502 185.247 60.6997 185.884 63.0429C187.081 67.5532 188.037 72.1237 188.75 76.7351C189.437 81.0028 190.011 85.4885 190.506 90.4475L190.956 95.016C191.335 98.8999 191.704 103.042 191.706 107.226C191.73 111.775 191.047 116.3 189.683 120.64C188.308 124.976 186.183 129.038 183.405 132.642C182.069 134.369 180.591 135.983 178.987 137.465C177.391 138.941 175.673 140.28 173.852 141.469C172.032 142.656 170.112 143.684 168.115 144.542C166.106 145.404 164.023 146.086 161.893 146.579C158.828 147.282 155.693 147.636 152.548 147.634V147.634ZM93.6509 45.5328C93.4622 45.5274 93.2768 45.5824 93.1216 45.6897C92.9665 45.7971 92.8497 45.9511 92.7885 46.1294C92.5032 46.8886 92.5113 47.7267 92.8113 48.4802C93.1192 49.2309 93.7101 49.8307 94.4568 50.1504C94.6024 50.2153 94.7598 50.2497 94.9193 50.2515C95.0685 50.2548 95.2157 50.2179 95.3457 50.1448C95.4757 50.0716 95.5836 49.9649 95.6581 49.8359C95.7193 49.7221 95.7568 49.5971 95.7681 49.4685C95.7795 49.3399 95.7646 49.2103 95.7243 49.0876C95.6969 48.9895 95.6488 48.8985 95.5831 48.8206C95.5175 48.7427 95.4358 48.6799 95.3437 48.6362C94.4618 48.2513 94.1553 47.5708 94.4571 46.669L94.4825 46.5959C94.5314 46.4835 94.5509 46.3605 94.5394 46.2385C94.5279 46.1164 94.4857 45.9993 94.4167 45.8979C94.3269 45.781 94.2108 45.687 94.0777 45.6236C93.9446 45.5601 93.7983 45.529 93.6509 45.5328V45.5328ZM79.1804 42.2298C78.9644 42.232 78.757 42.3141 78.5981 42.4601C78.2005 42.7987 77.8731 43.2118 77.6345 43.6761C77.3967 44.1412 77.3067 44.6677 77.3766 45.1853C77.5074 46.1207 78.1485 46.9412 79.2819 47.6254C79.4149 47.7095 79.5684 47.7552 79.7257 47.7576C79.9192 47.7556 80.1052 47.6828 80.2485 47.553C80.3942 47.4245 80.4995 47.2567 80.5518 47.0698C80.6084 46.8903 80.6011 46.6968 80.5311 46.5221C80.4612 46.3473 80.3329 46.2021 80.168 46.111L80.0591 46.0447C79.6274 45.7769 79.1771 45.4375 79.1095 44.9514C79.0343 44.4098 79.5193 43.9824 79.8396 43.6998C79.9643 43.602 80.0543 43.467 80.0964 43.3144C80.1386 43.1618 80.1306 42.9998 80.0738 42.8521C80.0024 42.6724 79.8797 42.5177 79.7211 42.407C79.5624 42.2963 79.3747 42.2346 79.1812 42.2295L79.1804 42.2298ZM84.2952 28.7752C84.1281 28.7789 83.9665 28.8353 83.8336 28.9365C82.8216 29.6576 82.2997 30.4647 82.2376 31.403C82.1776 32.3138 82.5696 33.222 83.4033 34.1019C83.4765 34.1848 83.5662 34.2517 83.6667 34.2981C83.7672 34.3446 83.8763 34.3696 83.987 34.3717C84.1669 34.3629 84.3406 34.3034 84.4879 34.1999C84.6352 34.0964 84.75 33.9532 84.8189 33.7871C84.8881 33.6334 84.9086 33.4624 84.8775 33.2968C84.8464 33.1313 84.7653 32.9792 84.6451 32.861C84.206 32.3966 83.9911 31.9256 84.0265 31.4971C84.0534 31.2942 84.124 31.0994 84.2333 30.9262C84.3426 30.753 84.4882 30.6054 84.66 30.4936L84.7203 30.4495C84.8823 30.3362 85.0027 30.1732 85.0634 29.9852C85.1241 29.7973 85.1216 29.5947 85.0563 29.4083C85.0126 29.236 84.9155 29.0818 84.7788 28.9679C84.6421 28.854 84.4729 28.7861 84.2952 28.774V28.7752ZM100.594 103.852C100.284 103.853 99.9768 103.781 99.6991 103.642C99.4214 103.502 99.1806 103.299 98.9964 103.049C98.754 102.731 98.5225 102.406 98.2986 102.095V102.093C97.7372 101.253 97.095 100.47 96.3809 99.7546C96.0402 99.4448 95.6803 99.1567 95.3033 98.892C94.5809 98.3615 93.8341 97.8131 93.4679 97.0124C93.4622 97.0033 93.4585 96.9931 93.4568 96.9825C93.4552 96.9719 93.4558 96.961 93.4586 96.9506C93.4613 96.9402 93.4661 96.9305 93.4728 96.922C93.4794 96.9135 93.4877 96.9065 93.4972 96.9014C93.8833 96.6888 94.3186 96.5813 94.7595 96.5895C95.8572 96.5895 97.0208 97.1247 98.0257 97.6263C99.8407 98.531 101.334 99.787 102.227 101.163C102.408 101.405 102.517 101.693 102.543 101.994C102.569 102.295 102.509 102.598 102.372 102.867C102.187 103.172 101.926 103.423 101.614 103.596C101.303 103.768 100.951 103.857 100.594 103.852V103.852Z" fill="black"/>
<path d="M151.754 126.015C147.545 126.015 143.584 125.468 140.298 124.432C138.695 123.945 137.159 123.264 135.724 122.402C134.461 121.652 133.354 120.668 132.462 119.502C130.772 117.213 130.408 114.464 131.379 111.333C131.961 110.37 132.71 109.519 133.591 108.819C134.423 108.172 135.353 107.66 136.346 107.304C138.096 106.663 140.173 106.364 142.885 106.364C144.545 106.364 146.255 106.475 147.764 106.573L147.898 106.582C149.487 106.685 150.986 106.783 152.406 106.783C152.678 106.783 152.943 106.779 153.192 106.772C153.54 106.797 153.922 106.809 154.363 106.809C155.611 106.809 157.104 106.708 158.685 106.601L159.054 106.576C160.876 106.454 162.657 106.343 164.411 106.343C165.983 106.317 167.554 106.448 169.1 106.732C169.786 106.865 170.457 107.063 171.105 107.322C171.697 107.558 172.253 107.876 172.755 108.267C174.113 109.959 174.958 111.614 175.267 113.186C175.563 114.604 175.381 116.079 174.75 117.382C174.106 118.719 172.993 119.959 171.437 121.065C169.758 122.216 167.927 123.127 165.997 123.774C161.889 125.219 156.83 126.015 151.754 126.015ZM152.195 119.044C151.588 119.067 150.997 119.25 150.483 119.574C150.029 119.818 149.65 120.18 149.386 120.622C149.072 121.275 149.15 122.598 149.176 123.033C149.178 123.08 149.181 123.124 149.182 123.152C150.415 123.276 151.677 123.339 152.933 123.339C153.765 123.339 154.61 123.312 155.445 123.257C155.353 122.951 155.274 122.63 155.198 122.319C155.063 121.572 154.802 120.854 154.426 120.195C154.225 119.887 153.955 119.629 153.638 119.441C153.248 119.221 152.815 119.088 152.368 119.051C152.312 119.047 152.254 119.044 152.195 119.044L152.195 119.044ZM159.468 119.547C159.228 119.548 158.99 119.578 158.758 119.639C158.435 119.732 158.134 119.888 157.871 120.099C157.609 120.309 157.391 120.568 157.229 120.863C156.88 121.462 156.714 122.15 156.751 122.842C156.75 122.914 156.728 122.985 156.689 123.045C156.681 123.061 156.674 123.075 156.667 123.089C158.459 122.877 160.232 122.53 161.972 122.053C161.9 121.316 161.566 120.629 161.031 120.116C160.598 119.74 160.041 119.538 159.468 119.547V119.547ZM144.028 117.924C143.862 117.923 143.695 117.937 143.531 117.964C143.106 118.051 142.717 118.263 142.413 118.572C142.139 118.856 141.924 119.192 141.78 119.559C141.567 120.088 141.45 120.651 141.435 121.221C143.164 121.846 144.943 122.328 146.751 122.664C147.062 122.725 147.399 122.786 147.81 122.854L147.833 122.565C147.867 122.1 147.856 121.632 147.8 121.168C147.74 120.56 147.541 119.973 147.22 119.453C146.56 118.449 145.115 117.924 144.03 117.924H144.028ZM165.996 117.847C165.545 117.851 165.1 117.953 164.693 118.147C164.272 118.346 163.896 118.626 163.585 118.971C163.256 119.333 163.008 119.76 162.857 120.224C162.706 120.689 162.656 121.18 162.71 121.665C163.078 121.548 163.447 121.427 163.806 121.302C165.413 120.788 166.96 120.105 168.422 119.265C168.174 118.84 167.82 118.486 167.395 118.238C166.97 117.989 166.488 117.855 165.996 117.847L165.996 117.847ZM150.456 108.9C149.265 108.89 148.074 108.988 146.9 109.193L146.849 109.755C146.84 109.847 146.831 109.94 146.822 110.031C146.641 111.897 146.471 113.659 147.447 114.407C147.843 114.71 148.702 114.876 149.866 114.876C150.887 114.875 151.904 114.756 152.898 114.522C152.956 114.508 153.015 114.431 153.078 114.296C153.358 113.48 153.518 112.628 153.554 111.766C153.64 110.539 153.544 109.543 153.292 109.034C152.299 108.945 151.345 108.9 150.457 108.9L150.456 108.9ZM157.29 108.803C157.071 109.766 156.952 110.75 156.934 111.738C156.938 112.757 157.132 113.433 157.513 113.751C157.911 114.083 158.781 114.281 159.84 114.281C160.758 114.281 161.61 114.126 161.959 113.896C162.259 113.698 162.437 113.15 162.486 112.266C162.518 111.277 162.472 110.286 162.348 109.304C160.68 108.984 158.987 108.817 157.289 108.802L157.29 108.803ZM163.49 109.34L163.474 109.641C163.364 111.868 163.633 113.207 164.275 113.616C164.669 113.866 165.125 113.999 165.591 114C166.267 113.987 166.915 113.727 167.411 113.269C168.069 112.695 168.606 111.812 169.007 110.644C168.855 110.244 168.134 109.925 166.864 109.697C165.902 109.54 164.933 109.433 163.96 109.375C163.755 109.361 163.591 109.349 163.49 109.339V109.34ZM145.756 109.212L144.91 109.22L144.431 109.226C143.17 109.226 141.913 109.346 140.676 109.586C140.403 110.136 140.257 110.74 140.247 111.354C140.245 111.823 140.377 112.284 140.628 112.681C140.88 113.067 141.233 113.377 141.649 113.577C142.071 113.781 142.534 113.886 143.002 113.885C143.433 113.892 143.859 113.803 144.251 113.623C144.642 113.444 144.988 113.179 145.263 112.848C145.724 112.277 146.192 111.216 145.8 109.409L145.755 109.212H145.756ZM158.718 102.666C157.469 102.646 156.234 102.398 155.074 101.933C153.543 101.319 152.102 100.502 150.789 99.5046C150.484 99.2679 150.272 98.9317 150.191 98.5549C150.12 98.1985 150.149 97.8294 150.276 97.4886C150.419 97.0839 150.668 96.7246 150.997 96.4474C151.308 96.1732 151.706 96.0179 152.121 96.0089C152.431 96.0116 152.733 96.1043 152.991 96.2755C153.084 96.347 153.182 96.4223 153.284 96.5012C154.133 97.1843 155.03 97.8068 155.967 98.3641C157.179 99.053 158.231 99.3871 159.182 99.3871C159.648 99.3902 160.11 99.2996 160.54 99.1205C161.019 98.9123 161.45 98.6076 161.806 98.2255C162.144 97.7881 162.385 97.2834 162.512 96.7454C162.639 96.2074 162.649 95.6485 162.542 95.1063C162.283 94.0582 161.741 93.1012 160.975 92.3396C160.274 91.5999 159.477 90.9573 158.604 90.4291C158.486 90.3277 158.403 90.1913 158.367 90.0396C158.331 89.8879 158.345 89.7287 158.406 89.5852C158.472 89.3776 158.6 89.1944 158.771 89.0591C158.971 88.9055 159.218 88.8242 159.471 88.8281C159.555 88.8284 159.639 88.8359 159.722 88.8503C160.709 89.008 161.658 89.3501 162.518 89.8588C163.256 90.3023 163.896 90.8913 164.398 91.5898C165.332 92.9305 165.757 94.5591 165.598 96.1843C165.528 97.0165 165.32 97.8314 164.984 98.5959C164.649 99.3634 164.179 100.065 163.598 100.668C162.965 101.317 162.205 101.829 161.366 102.173C160.526 102.517 159.625 102.685 158.718 102.666V102.666ZM172.554 90.1239C172.023 90.1173 171.509 89.9411 171.086 89.6212C170.599 89.2532 170.195 88.7857 169.903 88.2499C169.196 86.9239 168.841 85.4392 168.871 83.9373C168.841 82.4354 169.196 80.9508 169.903 79.6248C170.195 79.0891 170.599 78.6216 171.086 78.2536C171.506 77.9284 172.022 77.7519 172.554 77.7519C173.085 77.7519 173.602 77.9284 174.022 78.2536C174.509 78.6216 174.912 79.0891 175.205 79.6248C175.912 80.9508 176.267 82.4354 176.237 83.9373C176.267 85.4392 175.912 86.9239 175.205 88.2499C174.912 88.7857 174.509 89.2532 174.022 89.6212C173.599 89.9412 173.084 90.1174 172.554 90.1239V90.1239ZM139.698 90.1239C139.167 90.1174 138.653 89.9412 138.23 89.6212C137.743 89.2531 137.339 88.7857 137.047 88.2499C136.34 86.9243 135.985 85.4401 136.015 83.9387C135.985 82.4369 136.34 80.9523 137.047 79.6263C137.339 79.0906 137.743 78.6231 138.23 78.2551C138.65 77.9299 139.166 77.7534 139.698 77.7534C140.229 77.7534 140.746 77.9299 141.166 78.2551C141.653 78.6231 142.056 79.0905 142.349 79.6263C143.055 80.9524 143.41 82.437 143.379 83.9387C143.41 85.4404 143.055 86.925 142.349 88.2511C142.056 88.7865 141.653 89.2535 141.166 89.6212C140.743 89.9411 140.228 90.1173 139.698 90.1239V90.1239ZM126.259 74.2926C126.194 74.2901 126.131 74.271 126.075 74.2373C126.02 74.2035 125.974 74.1561 125.942 74.0997C125.902 74.0384 125.879 73.968 125.875 73.8952C125.87 73.8223 125.885 73.7496 125.917 73.684C126.738 72.1347 127.835 70.7479 129.155 69.5917C130.463 68.4209 131.919 67.4271 133.487 66.6359C135.105 65.7894 136.839 65.185 138.633 64.8423L139.183 64.7458L139.464 64.6982C140.113 64.581 140.77 64.5157 141.428 64.5029C142.681 64.5029 143.588 64.8406 144.2 65.5348C144.595 65.9985 144.794 66.5972 144.756 67.2047C144.743 67.4152 144.688 67.6207 144.592 67.8086C144.496 67.9965 144.363 68.1626 144.2 68.2965C143.319 69.0077 142.393 69.1535 141.272 69.1535C141.042 69.1535 140.804 69.1477 140.572 69.1418H140.564C140.342 69.1363 140.091 69.1299 139.842 69.1299C139.612 69.1299 139.407 69.1351 139.215 69.1462C137.741 69.2303 136.28 69.4791 134.861 69.8878C131.764 70.7717 129.224 72.3751 126.461 74.2265C126.402 74.2683 126.331 74.2914 126.259 74.2926V74.2926ZM180.717 72.0789C180.637 72.0599 180.559 72.0407 180.485 72.0205C179.606 71.7796 178.754 71.4478 177.944 71.0304L177.119 70.6244C176.167 70.1384 175.182 69.7195 174.172 69.3707C171.989 68.6573 169.74 68.1617 167.459 67.8911C166.973 67.8438 166.508 67.6676 166.113 67.3807C165.735 67.0984 165.469 66.6931 165.359 66.2351C165.27 65.9494 165.245 65.6476 165.285 65.3509C165.325 65.0543 165.43 64.77 165.592 64.5181C165.836 64.1049 166.209 63.7834 166.654 63.6032C166.943 63.4873 167.251 63.4286 167.562 63.4305C167.737 63.4307 167.913 63.4482 168.085 63.4828L168.505 63.5687L168.784 63.6272C171.648 64.241 173.974 65.0154 175.896 65.9905C177.016 66.5443 178.059 67.2411 178.999 68.0632C179.912 68.8632 180.658 69.8344 181.196 70.9217C181.275 71.5285 181.203 71.6794 181.121 71.7817L181.097 71.8109C181.09 71.82 181.083 71.8293 181.077 71.8401C180.992 71.963 180.863 72.0486 180.717 72.0792V72.0789Z" fill="black"/>
</g>
<defs>
<clipPath id="clip0_6_11">
<rect width="238" height="355" fill="white"/>
</clipPath>
</defs>
</svg>
