<svg width="235" height="333" viewBox="0 0 235 333" fill="none" xmlns="http://www.w3.org/2000/svg">
<g clip-path="url(#clip0_7_21)">
<path d="M199.676 206.3H131.019V290.981H199.676V206.3Z" fill="#FDEA6B"/>
<path d="M42.9204 333H42.9159C42.5799 333.01 42.2459 332.945 41.9379 332.81C41.63 332.675 41.3559 332.473 41.1353 332.219C40.8748 331.892 40.6867 331.513 40.5833 331.107C40.48 330.702 40.4637 330.279 40.5356 329.866C40.84 327.847 41.1353 325.793 41.4204 323.807V323.803V323.796C41.5778 322.7 41.7406 321.568 41.9031 320.454C35.7062 322.14 29.3181 323.02 22.8968 323.071C20.1868 323.074 17.4798 322.89 14.7952 322.52C12.098 322.145 9.43395 321.56 6.82738 320.77C6.70266 320.643 6.65589 320.539 6.68887 320.461C6.74583 320.325 7.03245 320.262 7.5913 320.262C7.80117 320.262 8.01854 320.27 8.2425 320.279L8.29436 320.281C8.48654 320.289 8.66793 320.297 8.81514 320.297C8.91497 320.301 9.01497 320.293 9.11285 320.273C6.95101 318.808 5.18926 316.824 3.98785 314.503C3.40898 313.383 2.94219 312.207 2.59432 310.995C2.2388 309.752 1.97702 308.483 1.81121 307.201C1.48993 304.528 1.40966 301.832 1.57136 299.145C1.70208 296.42 1.9851 293.722 2.25853 291.113V291.109C2.40844 289.667 2.55235 288.305 2.66508 286.984C3.62448 280.788 4.49843 274.352 5.3436 268.126V268.121C7.50226 252.226 9.73437 235.79 13.742 220.143C14.7772 216.101 15.9105 212.2 17.1107 208.549C18.3969 204.635 19.8117 200.85 21.3152 197.298C22.9081 193.536 24.6591 189.897 26.5194 186.483C28.4495 182.938 30.5763 179.503 32.8898 176.196C35.3235 172.917 38.0235 169.845 40.9623 167.011C43.9048 164.171 47.098 161.603 50.5029 159.34C53.8934 157.086 57.5072 155.188 61.2869 153.677C65.0834 152.163 69.0447 151.103 73.089 150.518L73.5418 150.456C74.3237 150.352 75.1374 150.257 75.9244 150.165C80.0489 149.685 84.3128 149.188 87.8003 147.015C89.6141 145.565 91.0083 143.66 92.3595 141.82C93.4233 140.369 94.4282 138.997 95.5513 137.976C96.0822 137.477 96.6863 137.063 97.3424 136.747C97.9945 136.439 98.7051 136.276 99.4258 136.269H99.4513C100.108 136.315 100.743 136.523 101.3 136.876C101.972 137.245 102.692 137.742 103.453 138.269C104.166 138.761 104.902 139.269 105.658 139.714C105.761 137.934 106.348 136.343 106.913 134.803C107.332 133.781 107.649 132.72 107.862 131.636L107.892 131.431C107.965 130.9 108.005 130.373 108.044 129.864C108.211 127.685 108.369 125.628 110.992 123.472C112.269 122.529 113.65 121.737 115.108 121.111C116.8 120.373 118.545 119.765 120.33 119.295C122.254 118.78 124.209 118.391 126.183 118.127C128.175 117.856 130.183 117.718 132.194 117.714C134.567 117.692 136.936 117.933 139.257 118.431C141.515 118.942 143.405 119.714 144.873 120.724C146.218 121.661 147.437 122.767 148.501 124.015C149.497 125.192 150.368 126.47 151.099 127.828C152.567 130.512 153.563 133.387 154.617 136.431C155.382 138.639 156.172 140.92 157.16 143.128C157.971 142.762 158.852 142.581 159.741 142.598C161.375 142.624 162.976 143.065 164.393 143.88C165.061 144.255 165.668 144.728 166.196 145.283C166.672 145.775 167.032 146.367 167.249 147.016C167.968 147.893 168.288 149.7 168.598 151.448V151.45C168.823 152.722 169.035 153.924 169.389 154.765C171.671 155.129 173.884 155.59 175.968 156.136C177.963 156.656 179.929 157.284 181.855 158.018C183.647 158.703 185.397 159.492 187.096 160.384C188.698 161.227 190.247 162.169 191.733 163.204C193.158 164.201 194.52 165.285 195.81 166.452C197.071 167.594 198.262 168.812 199.376 170.098C200.482 171.378 201.515 172.72 202.47 174.116C203.432 175.524 204.323 176.98 205.139 178.477C206.81 181.571 208.226 184.795 209.375 188.119C210.592 191.619 211.615 195.184 212.44 198.797C214.087 205.851 215.243 213.324 216.472 222.373C218.113 231.645 220.374 241.076 222.561 250.196V250.197C223.98 256.113 225.446 262.232 226.735 268.267C228.181 275.037 229.243 280.976 229.982 286.422C230.832 292.479 231.293 298.585 231.361 304.701C231.383 307.824 231.281 310.92 231.057 313.9C230.822 317.028 230.444 320.138 229.934 323.145C230.682 324.221 231.32 325.369 231.839 326.573C232.159 327.124 232.317 327.754 232.295 328.391C232.274 329.012 232.102 329.618 231.793 330.156C231.515 330.674 231.104 331.108 230.603 331.414C230.102 331.72 229.528 331.886 228.942 331.895H228.94C228.891 331.895 228.842 331.895 228.792 331.891C227.818 331.806 226.832 331.71 225.878 331.617H225.874C223.45 331.381 220.945 331.137 218.457 331.044C213.409 330.869 207.973 330.783 201.839 330.783C198.262 330.783 194.376 330.812 189.609 330.873L188.298 330.891C168.843 331.133 149.07 331.476 129.949 331.807C101.427 332.3 71.9321 332.812 42.9204 333ZM149.107 224.216C148.443 227.086 149.515 229.421 150.649 231.893C151.29 233.2 151.823 234.556 152.241 235.95C152.511 236.935 152.408 238.455 152.318 239.797C152.28 240.344 152.245 240.86 152.241 241.28C152.292 242.084 152.721 242.971 153.138 243.829C153.667 244.921 154.214 246.051 154.028 247.068C153.59 249.457 152.422 251.855 151.293 254.175C150.33 256.151 149.336 258.195 148.82 260.191C148.555 261.165 148.43 262.172 148.448 263.181C148.474 264.208 148.698 265.221 149.108 266.162C150.907 269.706 156.327 271.523 159.914 272.725L159.932 272.731C160.951 273.114 162.005 273.39 163.08 273.556C164.245 273.739 165.421 273.829 166.6 273.825C170.187 273.808 173.74 273.117 177.073 271.789C178.65 271.167 180.146 270.358 181.53 269.379C182.782 268.506 183.87 267.416 184.743 266.162C186.191 264.005 187.809 259.721 189.11 256.279C189.91 254.162 190.6 252.335 191.116 251.327L191.422 247.05C191.778 242.028 192.155 236.295 192.127 231.822C192.097 226.854 191.574 224.087 190.531 223.361C188.214 221.748 184.888 220.553 180.646 219.809C176.666 219.162 172.638 218.856 168.606 218.895C164.091 218.895 160.129 219.198 157.6 219.452C154.662 219.748 152.806 220.061 152.648 220.165C152.289 220.403 151.983 220.582 151.713 220.74C150.967 221.179 150.516 221.445 149.978 222.295C149.263 222.39 148.534 222.49 147.811 222.593C147.331 222.751 147.079 223.076 147.14 223.464C147.19 223.712 147.332 223.931 147.539 224.077C147.791 224.261 148.096 224.357 148.408 224.351C148.647 224.349 148.884 224.303 149.107 224.216H149.107Z" fill="#D08B5B"/>
<path d="M42.9159 333C42.5799 333.01 42.2459 332.945 41.9379 332.81C41.63 332.675 41.3559 332.473 41.1353 332.219C40.8748 331.892 40.6867 331.513 40.5833 331.107C40.48 330.701 40.4637 330.278 40.5356 329.866C40.8408 327.842 41.1353 325.789 41.421 323.804L41.4279 323.755C41.5835 322.674 41.7442 321.554 41.9046 320.454C35.7077 322.14 29.3196 323.02 22.8982 323.071C20.1883 323.074 17.4813 322.89 14.7967 322.52C12.0987 322.146 9.43388 321.561 6.82646 320.772C6.70174 320.645 6.65527 320.541 6.68795 320.463C6.74492 320.327 7.03154 320.264 7.59039 320.264C7.80026 320.264 8.01732 320.272 8.24158 320.281L8.29345 320.283C8.48593 320.291 8.66762 320.299 8.81422 320.299C8.91406 320.303 9.01406 320.295 9.11194 320.275C6.95017 318.809 5.18871 316.825 3.98784 314.503C3.40896 313.382 2.94218 312.207 2.5943 310.995C2.23906 309.751 1.97759 308.483 1.81209 307.2C1.49082 304.528 1.41054 301.832 1.57224 299.145C1.70296 296.42 1.98598 293.722 2.25941 291.113C2.40932 289.67 2.55353 288.307 2.66656 286.984C3.62596 280.787 4.49992 274.351 5.34509 268.126V268.121C7.50374 252.225 9.73585 235.789 13.7434 220.142C14.7787 216.1 15.912 212.2 17.1121 208.548C18.3983 204.635 19.8129 200.85 21.3167 197.298C22.9096 193.535 24.6605 189.897 26.5209 186.483C28.4505 182.937 30.5768 179.503 32.8898 176.196C35.3235 172.917 38.0235 169.845 40.9623 167.011C43.9047 164.171 47.098 161.603 50.5029 159.34C53.8936 157.085 57.5076 155.188 61.2875 153.677C65.0839 152.163 69.0453 151.103 73.0896 150.518L73.5423 150.456L73.9981 150.396C74.634 150.315 75.2906 150.239 75.9259 150.165C80.0498 149.684 84.314 149.187 87.8009 147.014C89.6144 145.564 91.0089 143.66 92.3601 141.819C93.3795 140.429 94.3413 139.116 95.4074 138.11C95.9111 137.62 96.4799 137.202 97.0978 136.868C97.7003 136.545 98.3616 136.348 99.042 136.287L102.019 138.116L119.306 146.675C120.973 147.143 122.242 147.664 123.076 148.225C123.909 148.785 124.332 149.4 124.332 150.054V163.423C124.332 164.314 125.126 165.788 126.691 167.806C128.256 169.824 130.637 172.442 133.767 175.587L139.578 169.785L139.448 169.025C138.897 165.767 138.618 163.557 138.618 162.457C138.618 162.16 138.978 161.651 139.684 160.941C140.699 159.963 141.767 159.041 142.882 158.178C145.711 155.931 150.014 152.813 155.673 148.911L160.647 144.221L160.117 142.606C160.899 142.646 161.674 142.786 162.421 143.022C163.168 143.253 163.885 143.573 164.556 143.975C165.942 144.81 166.899 145.89 167.249 147.015C167.969 147.892 168.289 149.699 168.599 151.447V151.449C168.823 152.721 169.036 153.923 169.39 154.764C171.671 155.128 173.885 155.589 175.969 156.135C177.964 156.655 179.929 157.283 181.856 158.017C183.648 158.702 185.398 159.491 187.096 160.383C188.699 161.226 190.248 162.168 191.733 163.203C193.159 164.199 194.521 165.284 195.811 166.451C197.072 167.593 198.262 168.811 199.376 170.098C200.482 171.378 201.515 172.72 202.47 174.116C203.432 175.524 204.323 176.98 205.139 178.477C206.81 181.57 208.227 184.794 209.376 188.117C210.592 191.618 211.615 195.183 212.441 198.796C214.088 205.85 215.244 213.322 216.472 222.371C218.114 231.643 220.375 241.074 222.562 250.195V250.196C223.98 256.112 225.447 262.23 226.736 268.265C228.182 275.036 229.244 280.974 229.982 286.42C230.833 292.478 231.294 298.583 231.361 304.7C231.384 307.823 231.282 310.918 231.057 313.899C230.822 317.026 230.444 320.136 229.935 323.143C230.683 324.219 231.321 325.368 231.84 326.572C232.16 327.123 232.318 327.753 232.296 328.39C232.275 329.01 232.102 329.616 231.793 330.155C231.516 330.673 231.105 331.107 230.604 331.413C230.103 331.718 229.529 331.884 228.942 331.894H228.94C228.892 331.894 228.842 331.894 228.793 331.89C227.822 331.805 226.838 331.71 225.886 331.617H225.878C223.453 331.38 220.946 331.136 218.458 331.044C213.408 330.868 207.972 330.783 201.839 330.783C198.263 330.783 194.377 330.811 189.609 330.873L188.298 330.89C168.851 331.132 149.078 331.475 129.956 331.806H129.95C101.426 332.301 71.9318 332.811 42.9197 333.001L42.9159 333ZM92.2147 253.786L89.809 271.263L95.5954 283.743L108.697 279.322L130.047 273.686L142.297 261.238L149.208 258.914C148.78 260.081 148.526 261.304 148.452 262.545C148.389 263.786 148.613 265.024 149.107 266.163C150.906 269.707 156.327 271.524 159.914 272.726L159.932 272.732C160.95 273.115 162.005 273.391 163.08 273.557C164.244 273.74 165.421 273.83 166.599 273.826C170.187 273.809 173.739 273.118 177.073 271.79C178.649 271.168 180.145 270.359 181.529 269.38C182.781 268.507 183.869 267.417 184.741 266.163C186.19 264.005 187.808 259.722 189.109 256.28C189.908 254.163 190.599 252.336 191.115 251.328L191.51 245.772C191.861 240.728 192.178 235.481 192.121 231.303C192.058 226.661 191.537 224.064 190.53 223.363C188.212 221.75 184.886 220.555 180.645 219.811C176.665 219.163 172.636 218.857 168.604 218.897C164.089 218.897 160.127 219.2 157.598 219.454C154.66 219.749 152.805 220.063 152.647 220.167C152.287 220.405 151.981 220.584 151.712 220.742C150.965 221.181 150.515 221.446 149.977 222.297L149.598 222.347L151.73 219.451L150.975 219.047C148.294 217.623 146.051 216.54 144.307 215.828C142.563 215.116 141.27 214.755 140.463 214.755C139.619 214.755 138.315 215.421 136.587 216.733C134.28 218.566 132.095 220.548 130.046 222.667L129.583 222.881C126.873 224.115 124.232 225.495 121.672 227.016C119.58 228.29 117.999 229.484 116.972 230.564L116.899 230.642C114.824 232.87 110.662 238.878 104.524 248.497L95.5936 253.787L92.2147 253.786ZM152.08 235.404L148.851 229.214V224.296C148.938 224.275 149.024 224.248 149.107 224.216C148.443 227.087 149.514 229.422 150.649 231.894C151.199 233.032 151.677 234.205 152.08 235.404L152.08 235.404Z" fill="#417505"/>
<path d="M43.4978 331.067C43.1468 331.067 42.8009 330.982 42.4896 330.82L42.4167 330.78L42.2944 330.709C41.8548 330.441 41.5109 330.041 41.3119 329.566C41.0923 329.097 41.0601 328.562 41.222 328.07C41.6528 326.815 42.0091 325.535 42.289 324.237C42.5528 323.121 42.8254 321.967 43.1959 320.863L42.5663 321.144L41.7379 321.504C38.3601 323.011 34.8843 324.286 31.3344 325.322C27.4048 326.427 23.8511 326.964 20.4704 326.964C17.973 326.973 15.4854 326.651 13.0722 326.007C10.9089 325.443 8.85928 324.508 7.01359 323.245C5.16465 321.985 3.64163 320.302 2.57036 318.336C1.54769 316.356 0.864209 314.218 0.548426 312.012C0.229178 309.807 0.0574028 307.582 0.0342465 305.354C-0.105302 299.883 0.185415 294.409 0.903704 288.984C1.35455 285.317 2.00916 281.678 2.86448 278.083C2.36526 277.641 2.04782 277.029 1.97374 276.365C1.62955 273.583 2.05649 270.697 2.46903 267.905V267.898C2.56257 267.264 2.65941 266.61 2.74426 265.973C3.21556 262.438 3.70186 259.181 4.23163 256.017C5.38411 249.129 6.70688 242.413 8.16308 236.057C9.48855 230.27 11.0596 224.392 12.8327 218.587C14.5662 212.911 16.5378 207.155 18.6934 201.48L19.0685 200.498C21.2976 194.693 23.44 189.725 25.6179 185.311C28.0297 180.349 30.8265 175.585 33.9827 171.062C35.4645 168.918 37.0752 166.867 38.8058 164.92C40.5376 162.975 42.4707 161.221 44.5724 159.685C48.2532 157.021 52.6026 154.85 57.8691 153.049C60.2169 152.249 62.6042 151.57 65.0217 151.016C67.3659 150.476 69.8268 150.03 72.3371 149.688C73.0813 149.586 73.8437 149.489 74.5812 149.395C78.8716 148.849 83.3076 148.284 87.2789 146.535C87.1397 146.272 87.0555 145.983 87.0316 145.687C87.0077 145.39 87.0445 145.092 87.1398 144.81C87.3183 144.231 87.6883 143.729 88.1891 143.388C91.0955 141.466 93.8127 139.037 96.4406 136.69C96.8253 136.346 97.2228 135.991 97.6165 135.642C97.7743 135.496 97.9805 135.414 98.1951 135.412C98.344 135.414 98.49 135.453 98.6196 135.526C98.7491 135.6 98.8579 135.705 98.9359 135.832C99.0109 135.958 99.0509 136.101 99.0517 136.247C99.0525 136.394 99.0141 136.538 98.9404 136.664C97.966 138.595 96.8093 140.429 95.486 142.139C94.6288 143.203 93.7135 144.203 92.8518 145.125C95.1304 147.098 97.0651 149.509 98.938 151.84L99.0529 151.983C99.6357 152.709 100.218 153.451 100.781 154.168C102.554 156.429 104.388 158.767 106.438 160.847C107.719 162.161 109.145 163.325 110.689 164.317C112.233 165.3 113.885 166.101 115.612 166.703L116.332 166.953C118.174 167.563 119.948 168.359 121.629 169.329C123.485 170.457 124.834 171.757 125.754 173.306C125.824 173.421 125.86 173.554 125.86 173.688C125.86 173.823 125.824 173.955 125.754 174.071C125.685 174.196 125.585 174.301 125.464 174.376C125.342 174.451 125.203 174.493 125.06 174.497C124.924 174.497 124.791 174.458 124.677 174.384C122.441 172.998 119.91 172.305 117.46 171.635C116.063 171.252 114.618 170.857 113.236 170.336C111.418 169.65 109.68 168.771 108.049 167.714C106.421 166.652 104.896 165.438 103.497 164.087C101.146 161.83 99.0706 159.269 97.0639 156.793L97.0537 156.78C96.6439 156.275 96.2202 155.752 95.8005 155.24C93.369 152.318 90.692 149.611 87.7988 147.148C85.5823 148.606 83.1864 149.769 80.671 150.609C78.2659 151.447 75.7754 152.084 73.0027 152.771L72.4349 152.912C69.3987 153.665 66.9339 154.351 64.6784 155.074C62.117 155.879 59.6073 156.84 57.1633 157.953C54.9918 158.935 52.8795 160.044 50.8373 161.274C48.7936 162.5 46.8755 163.925 45.1108 165.528C41.275 169.054 38.3117 173.608 35.8349 177.6C32.899 182.385 30.3129 187.377 28.097 192.536C26.1183 197.07 24.1977 202.066 22.0552 208.253C20.1619 213.722 18.3912 219.342 16.7926 224.958C15.2075 230.527 13.7498 236.237 12.4606 241.928C11.1921 247.529 10.128 253.254 9.20762 259.429C8.79088 262.224 8.41252 265.086 8.08273 267.935C7.99758 268.671 7.92742 269.424 7.85936 270.152V270.158C7.6462 272.441 7.42584 274.8 6.72217 277.009C6.57359 277.531 6.2617 277.992 5.83233 278.324C5.46082 278.596 5.0117 278.741 4.55153 278.737C4.51465 278.737 4.47747 278.737 4.4409 278.734L4.24962 281.13C4.00557 284.202 3.76062 287.475 3.67997 290.734C3.53516 296.579 3.6368 301.815 3.99148 306.74L4.04574 307.467C4.16348 309.478 4.48728 311.472 5.01204 313.416C5.65574 315.597 6.61454 317.287 7.94361 318.583C9.33954 319.945 11.1852 320.972 13.4284 321.637C15.4701 322.215 17.5811 322.511 19.7029 322.516C19.833 322.518 19.9625 322.519 20.0881 322.519C22.3268 322.507 24.5589 322.274 26.7521 321.824C28.9617 321.371 31.1376 320.766 33.2646 320.015C37.5492 318.527 41.7005 316.576 45.7152 314.688L46.7544 314.2C51.0081 312.204 55.3195 310.044 59.5684 307.78C63.7058 305.575 67.9068 303.206 72.0535 300.739C76.1945 298.276 80.3715 295.681 84.4682 293.027C86.4577 291.738 88.468 290.404 90.4434 289.063C90.8377 288.795 91.2307 288.514 91.6109 288.242C92.3185 287.736 93.05 287.213 93.7996 286.769C93.5178 286.512 93.3219 286.175 93.2383 285.803C93.1985 285.613 93.1972 285.416 93.2346 285.225C93.2719 285.034 93.3471 284.852 93.4557 284.691C92.6193 283.951 91.8963 283.093 91.3099 282.142C90.7061 281.167 90.2087 280.129 89.8261 279.048C89.0791 276.921 88.657 274.694 88.5741 272.441C88.4614 269.536 88.8179 266.597 89.1626 263.755L89.1644 263.74C89.2196 263.285 89.2766 262.815 89.3308 262.352C89.5344 260.614 89.7854 258.899 90.0258 257.303C90.0678 257.024 90.1044 256.747 90.1433 256.453C90.1964 256.052 90.251 255.638 90.319 255.23C85.8692 257.679 81.2647 260.043 76.6335 262.258C72.0643 264.444 67.3345 266.547 62.5749 268.511C57.8658 270.455 53.0265 272.244 47.781 273.981L46.7679 274.315C43.9011 275.255 41.6867 275.934 39.5883 276.517C36.9406 277.253 34.5529 277.811 32.2887 278.221C32.2741 278.224 32.2592 278.225 32.2444 278.225C32.1789 278.222 32.1162 278.198 32.066 278.156C32.0159 278.114 31.9811 278.056 31.967 277.992C31.9553 277.944 31.9619 277.894 31.9853 277.85C32.0088 277.807 32.0475 277.774 32.0938 277.758C35.2602 276.359 38.5515 275.086 41.7343 273.852C43.3461 273.228 45.0131 272.583 46.6426 271.93L47.4383 271.606C47.3422 271.601 47.2468 271.587 47.1532 271.564C45.1444 271.079 43.1192 270.398 41.1617 269.74L41.1569 269.738C40.3537 269.468 39.5232 269.189 38.7107 268.929C37.8982 268.67 37.0384 268.436 36.2061 268.209C34.3658 267.708 32.4626 267.191 30.805 266.335C30.7696 266.318 30.7409 266.29 30.7238 266.255C30.7067 266.22 30.7022 266.18 30.7111 266.142C30.7205 266.096 30.7443 266.054 30.7791 266.023C30.8139 265.991 30.8578 265.972 30.9045 265.967C31.1767 265.948 31.4618 265.939 31.7521 265.939C33.6073 265.939 35.5369 266.32 37.4029 266.69C38.0358 266.815 38.6322 266.933 39.2318 267.038L40.232 267.213C41.7649 267.483 43.5464 267.809 45.2877 268.242C45.3201 267.958 45.409 267.683 45.5493 267.434C45.6895 267.185 45.8781 266.966 46.1041 266.791C50.1672 263.778 50.5078 258.219 50.8085 253.315V253.312C50.8702 252.307 50.9284 251.358 51.0162 250.449L51.4039 246.442C52.0614 239.678 52.7956 232.486 53.9019 225.455C53.9105 225.388 53.9441 225.327 53.9959 225.284C54.0478 225.241 54.114 225.219 54.1814 225.223C54.2704 225.219 54.3574 225.25 54.4238 225.31C54.4903 225.369 54.5308 225.452 54.5369 225.541C54.5759 231.453 54.2776 237.447 53.9892 243.243C53.8567 245.906 53.7194 248.66 53.6168 251.374L53.5665 252.788L53.559 253.011C53.3818 258.257 53.1992 263.681 49.9012 267.714C50.1056 267.594 50.3379 267.529 50.5749 267.527C50.7276 267.524 50.879 267.556 51.0181 267.619C51.1572 267.682 51.2806 267.775 51.3793 267.892C51.8282 268.381 52.0859 269.016 52.1049 269.68C55.013 268.459 58.0487 267.147 61.1256 265.782C65.8513 263.685 70.6543 261.407 75.4012 259.011C80.0198 256.68 84.7092 254.175 89.3386 251.564C89.537 251.444 89.7572 251.365 89.9863 251.331C90.2155 251.297 90.4491 251.309 90.6736 251.366C90.8982 251.424 91.1091 251.525 91.2942 251.664C91.4794 251.804 91.635 251.979 91.7521 252.179L91.8226 252.169C91.8345 252.167 91.8465 252.166 91.8586 252.166L91.9284 252.162H91.9362C92.3513 251.939 92.8163 251.825 93.2875 251.832C94.334 251.86 95.3333 252.274 96.0937 252.994C96.1204 253.02 96.145 253.049 96.1669 253.073L96.1834 253.092C97.6098 252.449 98.926 251.585 100.084 250.531C101.306 249.41 102.437 248.193 103.466 246.893C104.417 245.708 105.367 244.388 106.372 242.856C107.195 241.602 108 240.29 108.78 239.021C109.962 237.097 111.184 235.107 112.508 233.244C113.811 231.368 115.301 229.63 116.957 228.057C118.763 226.399 120.787 224.998 122.974 223.893C125.159 222.792 127.449 221.912 129.809 221.268C129.801 221.199 129.808 221.128 129.83 221.062C129.852 220.996 129.889 220.935 129.938 220.885C129.991 220.813 130.059 220.753 130.137 220.709C130.215 220.664 130.301 220.636 130.39 220.626C130.487 220.63 130.581 220.656 130.666 220.701C130.688 220.711 130.705 220.728 130.716 220.748L131.177 219.96C131.512 219.39 131.702 219.081 131.777 218.988C132.309 218.317 132.863 217.643 133.426 216.985C134.358 215.825 135.466 214.819 136.71 214.004C137.716 213.382 138.879 213.06 140.061 213.076C141.74 213.076 143.458 213.638 145.12 214.182L145.158 214.194C146.269 214.558 147.395 214.935 148.486 215.3L148.516 215.31C149.088 215.501 149.68 215.7 150.263 215.894L150.438 215.951C150.543 215.985 150.648 216.018 150.766 216.055C151.37 216.221 151.956 216.45 152.513 216.736C153.04 217.003 153.463 217.437 153.717 217.97C153.97 218.504 154.039 219.107 153.913 219.684C158.533 218.539 163.278 217.973 168.037 218.001C171.968 218.012 175.893 218.338 179.772 218.976C183.603 219.601 187.388 220.488 191.099 221.628C191.337 221.693 191.554 221.82 191.729 221.995C191.904 222.17 192.03 222.387 192.096 222.626C192.777 226.088 193.246 229.588 193.498 233.108C193.749 236.628 193.727 240.161 193.433 243.678C193.179 246.706 192.695 249.71 191.984 252.664C191.271 255.618 190.282 258.498 189.031 261.266L188.887 261.58C187.382 264.839 185.848 267.42 184.199 269.468C183.246 270.674 182.149 271.758 180.931 272.695C179.748 273.605 178.406 274.286 176.973 274.702C175.455 275.101 173.889 275.287 172.32 275.255C170.957 275.255 169.572 275.157 168.233 275.061C167.53 275.011 166.803 274.96 166.101 274.924C165.326 274.885 164.534 274.853 163.767 274.822H163.765C161.108 274.714 158.362 274.603 155.715 274.182C154.234 273.961 152.803 273.482 151.487 272.766C150.177 272.042 149.033 271.05 148.129 269.856C146.497 267.705 145.639 265.081 144.955 262.568C144.586 262.685 144.284 262.791 144.003 262.901C142.708 263.439 141.534 264.232 140.55 265.234C139.583 266.172 138.7 267.219 137.845 268.231C136.824 269.501 135.712 270.695 134.519 271.804C132.488 273.573 130.191 275.009 127.713 276.059C125.612 276.948 123.445 277.675 121.233 278.232C119.031 278.807 116.76 279.276 114.563 279.731L114.545 279.735C113.599 279.93 112.622 280.133 111.662 280.34L111.284 280.423C109.575 280.798 107.339 281.32 105.177 282.025C103.175 282.654 101.248 283.501 99.43 284.551C99.3708 285.169 99.0806 285.741 98.6175 286.154C98.9365 286.448 99.154 286.835 99.2385 287.261C99.3186 287.722 99.2204 288.196 98.9638 288.587C97.659 290.661 95.546 291.999 93.5045 293.293L93.5018 293.295C93.1067 293.545 92.6977 293.805 92.3026 294.064L92.1455 294.168C89.7836 295.736 87.3674 297.295 84.9647 298.801C80.2576 301.752 75.3542 304.619 69.9695 307.565C65.7886 309.852 61.6221 312.039 57.5857 314.063C53.332 316.195 49.0831 318.22 44.957 320.077C45.2016 321.463 45.3419 322.866 45.3768 324.273C45.4148 325.423 45.5105 326.571 45.6634 327.711L45.7233 328.072C45.82 328.489 45.806 328.924 45.6826 329.334C45.5593 329.744 45.331 330.115 45.0203 330.409L44.9519 330.472V330.464L44.892 330.519L44.8716 330.536L44.8785 330.531C44.8063 330.598 44.7297 330.66 44.6491 330.717L44.5493 330.781C44.2315 330.971 43.8678 331.07 43.4978 331.067ZM92.2282 255.808C92.2312 256.016 92.2318 256.23 92.2327 256.419C92.2327 256.726 92.2351 257.016 92.2429 257.305C92.2774 258.617 92.2951 260.015 92.2951 261.461C92.2951 262.508 92.2747 263.573 92.2549 264.602C92.2198 266.426 92.1836 268.311 92.2606 270.164C92.3018 271.463 92.445 272.757 92.6887 274.034C92.9285 275.312 93.3566 276.547 93.9588 277.699C94.3797 278.488 94.9056 279.215 95.522 279.861C96.1257 280.484 96.783 281.051 97.4864 281.558C99.261 280.489 101.135 279.595 103.083 278.889C105.043 278.176 107.043 277.577 109.072 277.096C110.672 276.706 112.312 276.353 113.899 276.011H113.901C117.177 275.304 120.564 274.574 123.792 273.482C126.108 272.731 128.308 271.657 130.326 270.294C132.284 268.942 133.845 267.119 135.353 265.357L135.37 265.337C135.501 265.184 135.632 265.032 135.763 264.879L136.025 264.576C137.689 262.664 139.567 260.747 142.019 259.666C142.861 259.324 143.727 259.045 144.61 258.832C146.052 258.443 147.541 258.042 148.665 257.165C149.598 256.437 149.691 255.401 149.79 254.305L149.796 254.241C149.532 254.277 149.266 254.295 149 254.294C148.335 254.277 147.672 254.215 147.016 254.107H147.012C146.755 254.071 146.49 254.034 146.234 254.004L145.632 253.933C144.536 253.822 143.45 253.637 142.379 253.379C142.335 253.365 142.297 253.339 142.27 253.302C142.243 253.265 142.228 253.221 142.228 253.175C142.228 253.13 142.243 253.085 142.27 253.049C142.297 253.012 142.335 252.985 142.379 252.972C143.596 252.684 144.831 252.482 146.076 252.365L146.234 252.346L146.542 252.308C146.692 252.288 146.847 252.267 146.996 252.246H147C147.657 252.14 148.32 252.078 148.985 252.062C149.372 252.058 149.758 252.097 150.137 252.179C150.348 251.371 150.662 250.593 151.07 249.865C151.249 249.541 151.474 249.209 151.712 248.858C152.263 248.047 152.832 247.206 152.937 246.337C152.977 245.944 152.902 245.547 152.721 245.196L152.661 245.084C152.594 244.946 152.495 244.826 152.372 244.735C152.341 244.763 152.303 244.782 152.262 244.791C151.872 244.919 151.449 244.905 151.067 244.753C150.686 244.601 150.369 244.32 150.173 243.958C148.983 244.082 147.788 244.141 146.592 244.136C145.98 244.144 145.402 244.152 144.845 244.176L143.177 244.257C142.628 244.282 141.905 244.311 141.182 244.312C140.066 244.331 138.952 244.232 137.857 244.014C137.797 243.997 137.745 243.962 137.707 243.914C137.668 243.865 137.646 243.806 137.644 243.744C137.635 243.69 137.644 243.634 137.67 243.585C137.696 243.536 137.736 243.497 137.786 243.474C139.574 242.708 141.654 242.401 143.663 242.104C143.955 242.061 144.257 242.016 144.547 241.972C145.366 241.846 146.203 241.738 147.012 241.634L147.033 241.631C147.433 241.579 147.847 241.526 148.253 241.471C148.516 241.436 148.79 241.392 149.055 241.349H149.058C149.634 241.246 150.215 241.174 150.799 241.133C151.321 240.482 151.67 239.71 151.813 238.888C151.952 238.093 151.915 237.277 151.705 236.498C151.506 235.751 151.148 235.056 150.655 234.46C150.165 233.863 149.529 233.403 148.81 233.123C148.381 233.31 147.916 233.402 147.448 233.393C147.058 233.385 146.669 233.353 146.283 233.298H146.279C146.051 233.27 145.815 233.242 145.571 233.221C144.257 233.108 143.168 233.055 142.146 233.055H142.021C141.037 233.078 140.055 233.15 139.078 233.272C138.069 233.398 137.055 233.471 136.038 233.49C135.617 233.492 135.195 233.469 134.776 233.423C134.662 233.405 134.554 233.356 134.465 233.281C134.376 233.206 134.31 233.108 134.274 232.997C134.249 232.918 134.25 232.833 134.276 232.754C134.302 232.675 134.352 232.607 134.419 232.558C135.355 231.83 136.426 231.297 137.571 230.991C138.723 230.67 139.899 230.437 141.086 230.292L141.56 230.229C141.767 230.202 141.988 230.171 142.203 230.141C142.819 230.055 143.515 229.958 144.224 229.894C144.339 229.666 144.509 229.47 144.718 229.325C144.928 229.18 145.17 229.09 145.424 229.064C145.582 229.042 145.743 229.029 145.898 229.015L145.951 229.011L145.948 228.993C146.128 228.987 146.304 228.935 146.458 228.842C146.613 228.748 146.741 228.617 146.83 228.46C147.32 227.68 147.218 226.246 146.928 225.561C146.578 224.733 145.857 224.131 144.785 223.772C143.793 223.475 142.76 223.337 141.725 223.363C141.275 223.363 140.807 223.38 140.256 223.418C137.582 223.597 134.93 224.021 132.334 224.685C129.736 225.335 127.222 226.283 124.842 227.511C122.535 228.744 120.453 230.359 118.683 232.288C116.922 234.219 115.337 236.306 113.951 238.522L113.816 238.732C113.352 239.453 112.881 240.214 112.426 240.949L112.423 240.953C111.247 242.852 110.031 244.815 108.653 246.611C107.326 248.417 105.72 249.999 103.896 251.298C101.234 253.119 98.6835 254.309 96.3171 254.837C96.2243 255.006 96.0977 255.153 95.9451 255.27C95.7926 255.387 95.6175 255.471 95.4308 255.517L95.2464 255.56C94.4767 255.733 93.6912 255.828 92.9022 255.841C92.6771 255.842 92.4521 255.831 92.2282 255.808V255.808ZM48.568 271.031C48.5426 271.07 48.515 271.107 48.4852 271.143L48.4397 271.196L48.6759 271.1L48.568 271.031ZM161.742 219.866C159.083 219.866 156.375 219.938 153.83 220.011C153.558 220.835 153.045 221.557 152.357 222.085C151.695 222.632 150.877 222.954 150.02 223.005C150.653 223.992 151.024 225.125 151.095 226.295C151.181 227.45 150.989 228.609 150.535 229.674C151.492 230.051 152.376 230.589 153.151 231.266C153.946 231.963 154.602 232.805 155.084 233.747C155.421 234.401 155.673 235.096 155.834 235.814C155.988 236.505 156.055 237.212 156.033 237.92C155.982 239.328 155.6 240.705 154.919 241.939C155.513 242.492 155.977 243.171 156.275 243.927C156.588 244.69 156.734 245.511 156.705 246.336C156.637 247.931 155.794 249.316 154.978 250.655C154.873 250.828 154.764 251.006 154.66 251.18C153.876 252.494 153.708 253.679 153.513 255.05C153.468 255.366 153.423 255.693 153.366 256.033C153.18 257.246 152.637 258.377 151.807 259.282C150.972 260.151 149.965 260.837 148.851 261.295L148.973 261.776C149.253 262.951 149.62 264.104 150.071 265.225C150.512 266.336 151.165 267.349 151.994 268.209C154.01 270.221 157.074 270.352 159.778 270.469C160.01 270.479 160.219 270.488 160.426 270.499L160.565 270.506C162.711 270.613 164.892 270.738 167.001 270.858H167.005H167.021L168.465 270.94L170.44 271.051C171.059 271.085 171.789 271.12 172.508 271.12C173.624 271.142 174.738 271.02 175.823 270.755C176.933 270.473 177.969 269.953 178.858 269.23C180.715 267.725 182.444 265.646 183.998 263.051C185.366 260.724 186.513 258.273 187.422 255.73C188.333 253.219 189.038 250.638 189.53 248.012C190.019 245.39 190.328 242.737 190.453 240.072C190.577 237.4 190.549 234.723 190.369 232.054C190.2 229.487 189.893 226.811 189.457 224.102C183.78 222.258 177.93 221 171.998 220.348C168.59 220.002 165.167 219.841 161.742 219.866V219.866ZM141.602 219.34C142.813 219.326 144.022 219.462 145.2 219.744C146.33 220.015 147.394 220.511 148.329 221.202C148.333 221.196 148.336 221.189 148.339 221.183C148.342 221.177 148.349 221.163 148.356 221.153C148.648 220.733 148.981 220.343 149.349 219.987L149.361 219.975C149.395 219.943 149.429 219.909 149.465 219.872L149.666 219.658L149.207 219.499C148.509 219.251 147.725 218.955 147.256 218.778C147.067 218.707 146.931 218.655 146.878 218.636L146.866 218.632L146.226 218.416H146.224C145.205 218.07 144.148 217.713 143.115 217.346C142.931 217.281 142.749 217.212 142.556 217.14C141.723 216.827 140.861 216.503 139.992 216.503C139.821 216.502 139.651 216.516 139.482 216.542C138.611 216.716 137.789 217.08 137.074 217.607C136.306 218.156 135.571 218.751 134.874 219.389L134.872 219.391C134.488 219.728 134.125 220.047 133.766 220.338L134.613 220.174C136.867 219.741 139.272 219.34 141.602 219.34ZM198.758 330.784C198.553 330.785 198.354 330.716 198.193 330.589C198.106 330.519 198.033 330.432 197.981 330.333C197.928 330.234 197.896 330.125 197.886 330.014L197.752 328.713C197.625 327.065 197.313 325.437 196.822 323.858C196.219 321.993 195.823 320.068 195.639 318.116C195.293 315.041 195.138 311.888 195.01 308.923L194.92 306.8C194.633 300.168 194.511 293.687 194.557 287.536C194.606 280.933 194.85 274.455 195.283 268.282L195.348 267.367C195.621 263.659 195.886 260.821 196.209 258.16C196.623 254.754 197.127 251.736 197.748 248.933C199.26 242.115 201.498 236.51 204.591 231.8C204.611 231.767 204.639 231.74 204.672 231.722C204.706 231.703 204.743 231.694 204.781 231.694C204.817 231.694 204.851 231.702 204.883 231.717C204.915 231.732 204.943 231.754 204.965 231.782C204.985 231.809 205 231.84 205.006 231.873C205.013 231.906 205.011 231.941 205.002 231.973C203.447 238.356 201.867 245.215 200.855 252.123C200.457 254.837 200.152 257.615 199.923 260.616C199.719 263.289 199.58 266.079 199.499 269.144C199.349 274.837 199.424 280.631 199.497 286.235V286.289C199.509 287.235 199.522 288.213 199.533 289.175L199.541 289.814C199.608 295.726 199.708 302.722 199.941 309.78C199.968 310.591 200.001 311.419 200.034 312.22C200.137 314.742 200.244 317.35 200.153 319.903C200.093 320.933 199.963 321.959 199.765 322.971C199.636 323.716 199.503 324.486 199.43 325.258C199.338 326.573 199.343 327.893 199.446 329.207C199.46 329.457 199.476 329.741 199.488 330.015C199.497 330.115 199.486 330.215 199.454 330.311C199.423 330.406 199.372 330.494 199.305 330.568C199.233 330.64 199.148 330.696 199.054 330.733C198.96 330.77 198.859 330.787 198.758 330.784H198.758ZM231.864 330.227C231.505 330.232 231.149 330.165 230.817 330.029C230.485 329.894 230.184 329.693 229.931 329.438C229.746 329.242 229.604 329.01 229.514 328.755C229.425 328.501 229.39 328.231 229.412 327.962C229.873 320.936 230.253 313.386 229.909 305.801C229.577 298.482 228.882 291.033 227.844 283.662C227.199 279.081 226.304 274.466 225.439 270.003C225.137 268.446 224.825 266.836 224.526 265.239L224.347 264.27C223.449 259.4 222.509 254.451 221.601 249.667L221.599 249.658L221.404 248.629L219.925 240.825C217.906 230.175 215.531 217.811 212.898 205.833L212.748 205.149C211.254 198.471 209.677 193.153 207.783 188.415C206.711 185.705 205.453 183.073 204.019 180.536C202.59 178.014 200.934 175.626 199.072 173.405C198.131 172.292 197.13 171.233 196.074 170.23C195.06 169.266 193.961 168.321 192.809 167.423C190.544 165.673 188.148 164.099 185.645 162.713C183.396 161.451 180.868 160.193 177.914 158.867C175.204 157.651 172.411 156.499 169.948 155.483C169.861 155.45 169.789 155.388 169.744 155.308C169.699 155.227 169.685 155.133 169.703 155.042C169.716 154.964 169.756 154.892 169.817 154.841C169.878 154.789 169.955 154.762 170.035 154.763C170.071 154.764 170.106 154.768 170.141 154.776L170.995 154.981C176.953 156.41 183.271 158.043 189.258 160.908C192.155 162.298 194.871 164.037 197.346 166.087C199.817 168.14 202.048 170.466 203.998 173.02C207.5 177.591 210.313 182.93 212.597 189.34C214.767 195.434 216.212 201.82 217.339 207.264C218.669 213.688 219.964 220.231 221.216 226.559C222.59 233.5 224.01 240.677 225.482 247.723L226.004 250.231C227.568 257.763 228.719 263.572 229.738 269.068C231.01 275.932 232.037 282.13 232.877 288.016L233.008 288.937C234.079 296.591 234.682 302.885 234.906 308.744C235.038 312.199 235.033 315.548 234.892 318.697C234.749 322.005 234.431 325.303 233.94 328.577C233.908 328.825 233.826 329.064 233.7 329.28C233.573 329.495 233.403 329.682 233.202 329.83C232.808 330.1 232.34 330.239 231.863 330.227H231.864ZM141.533 319.207C141.232 319.209 140.938 319.116 140.693 318.941C140.448 318.765 140.265 318.517 140.17 318.231C139.716 316.653 139.499 315.017 139.526 313.376C139.519 311.701 139.663 310.015 139.804 308.385V308.38C139.845 307.901 139.884 307.449 139.919 306.996L140.136 304.198C140.329 301.689 140.548 298.73 140.718 295.801C140.942 291.928 141.13 287.985 141.3 284.3C141.355 283.116 141.415 281.894 141.485 280.564L141.586 278.697C141.597 278.492 141.607 278.281 141.616 278.077C141.681 276.678 141.749 275.232 142.311 273.977C142.355 273.886 142.424 273.81 142.511 273.758C142.597 273.707 142.697 273.682 142.798 273.687C142.904 273.684 143.01 273.709 143.103 273.76C143.197 273.811 143.275 273.886 143.331 273.977C144.026 275.261 144.167 276.901 144.29 278.347V278.355C144.304 278.51 144.317 278.671 144.332 278.826L144.347 278.992C144.57 281.356 144.709 283.175 144.797 284.89C144.987 288.631 145.078 292.402 145.066 296.097C145.053 300.393 144.956 304.151 144.771 307.585L144.715 308.611C144.641 310.329 144.467 312.041 144.195 313.739C143.938 315.418 143.411 317.044 142.633 318.554C142.528 318.754 142.369 318.921 142.175 319.036C141.981 319.151 141.759 319.21 141.533 319.206L141.533 319.207ZM12.1641 292.567C12.1479 292.567 12.1318 292.564 12.1164 292.559C11.9198 292.512 11.7357 292.422 11.5768 292.296C11.4179 292.171 11.2879 292.013 11.1957 291.832C10.9894 291.379 11.0593 290.747 11.4035 289.955C12.2402 288.031 13.6188 286.27 14.952 284.567L14.9751 284.537C15.1058 284.37 15.2358 284.204 15.3649 284.04C16.7719 282.235 18.302 280.53 19.9442 278.937L20.4257 278.471C20.6119 278.289 20.8014 278.096 21.0023 277.893C21.6787 277.17 22.4126 276.504 23.1969 275.901C24.1104 275.24 24.9508 274.921 25.7654 274.921C25.8302 274.921 25.8955 274.923 25.9603 274.927C26.1581 274.931 26.3526 274.98 26.529 275.07C26.7054 275.159 26.8593 275.288 26.9792 275.446C27.0991 275.603 27.1818 275.786 27.2212 275.981C27.2607 276.175 27.2558 276.375 27.2069 276.568C26.905 278.002 25.7042 278.893 24.5428 279.755C24.2112 280.001 23.8985 280.233 23.6037 280.478C22.1224 281.712 20.7468 283.011 19.3509 284.344C18.1531 285.487 16.9854 286.674 15.7807 287.974L15.3487 288.443C15.2755 288.523 15.1199 288.675 14.9233 288.868L14.9206 288.87C13.986 289.786 12.0424 291.691 12.3041 292.261L12.3215 292.291C12.3382 292.316 12.3476 292.346 12.3485 292.376C12.3494 292.406 12.3418 292.436 12.3266 292.463C12.311 292.493 12.2876 292.519 12.2589 292.537C12.2301 292.555 12.1969 292.565 12.1629 292.566L12.1641 292.567ZM126.076 255.427C125.361 255.42 124.679 255.13 124.177 254.62C123.647 254.084 123.267 253.417 123.074 252.687C122.912 251.947 122.856 251.188 122.907 250.432C122.923 249.545 122.94 248.627 122.614 247.842C122.43 247.437 122.211 247.048 121.958 246.682C121.711 246.324 121.495 245.946 121.312 245.551C120.976 244.752 120.781 243.9 120.737 243.034C120.747 242.306 120.879 241.585 121.129 240.901C121.439 239.861 121.759 238.784 121.277 237.899C121.232 237.805 121.21 237.702 121.215 237.598C121.22 237.494 121.25 237.393 121.304 237.304C121.342 237.233 121.399 237.173 121.468 237.131C121.537 237.09 121.616 237.067 121.697 237.067H121.708L121.752 237.07C122.346 237.14 122.896 237.416 123.308 237.851C123.723 238.291 124.016 238.832 124.158 239.421C124.289 239.977 124.387 240.539 124.451 241.106C124.598 242.213 124.737 243.258 125.448 244.308C126.577 245.975 127.219 247.251 127.375 249.215C127.395 249.468 127.405 249.725 127.418 249.973V249.977C127.426 250.542 127.484 251.106 127.593 251.661L127.725 252.224C127.893 252.817 127.956 253.434 127.911 254.048C127.901 254.326 127.806 254.594 127.638 254.816C127.47 255.037 127.237 255.2 126.972 255.284C126.683 255.378 126.38 255.426 126.076 255.427V255.427ZM69.1007 225.882C67.9462 225.891 66.7927 225.811 65.6507 225.642C65.5825 225.633 65.5197 225.6 65.4738 225.549C65.4279 225.498 65.402 225.432 65.401 225.363C65.3933 225.278 65.4136 225.193 65.4587 225.121C65.5038 225.049 65.5712 224.993 65.6507 224.963C67.8693 224.29 70.2756 224.015 72.6013 223.75C73.1331 223.69 73.6827 223.626 74.2203 223.56C76.7087 223.25 79.9794 222.83 83.2272 222.322C86.4676 221.816 89.3962 221.317 92.1803 220.798C93.5165 220.549 94.872 220.285 96.2086 220.013C96.4931 219.955 96.7782 219.882 97.0831 219.805C97.7594 219.604 98.4577 219.485 99.1626 219.452C99.5391 219.446 99.9134 219.512 100.265 219.646C100.436 219.71 100.589 219.816 100.71 219.953C100.83 220.09 100.916 220.255 100.958 220.433C100.989 220.583 100.981 220.739 100.935 220.886C100.888 221.032 100.805 221.164 100.693 221.27C99.884 222.083 98.7525 222.255 97.659 222.421C97.4492 222.453 97.2309 222.486 97.0201 222.523L96.9053 222.543C95.3874 222.825 93.8307 223.098 92.2789 223.356C89.3224 223.846 86.3816 224.273 83.5385 224.626C80.1746 225.043 77.2223 225.354 74.5123 225.578L73.3451 225.674C71.9903 225.782 70.5386 225.882 69.1007 225.882ZM141.761 211.97C141.575 211.971 141.393 211.923 141.232 211.83C141.071 211.737 140.937 211.604 140.844 211.443C139.666 209.483 139.066 207.221 138.486 205.034C138.194 203.932 137.892 202.794 137.52 201.709C137.035 200.293 136.509 198.865 136 197.485V197.482C135.374 195.783 134.727 194.029 134.151 192.28C133.455 190.225 132.931 188.116 132.583 185.974C132.233 183.84 132.169 181.67 132.392 179.519L132.379 179.497C132.368 179.48 132.358 179.462 132.349 179.444L132.006 178.694C131.085 176.691 130.184 174.9 128.47 173.268C128.039 172.856 127.591 172.45 127.159 172.057C125.819 170.84 124.434 169.583 123.379 168.034C122.832 167.239 122.413 166.363 122.135 165.438C121.878 164.567 121.731 163.666 121.697 162.757C121.613 160.947 121.892 159.062 122.162 157.238C122.329 156.105 122.503 154.934 122.589 153.785L122.631 153.189C122.707 152.039 122.7 150.773 122.076 150.111C121.548 149.551 120.519 149.289 119.612 149.058C119.245 148.964 118.9 148.877 118.617 148.776C116.068 147.89 113.588 146.818 111.195 145.569C108.918 144.391 106.741 143.029 104.686 141.497L103.649 140.716C102.007 139.475 100.313 138.123 99.2211 136.447C99.1961 136.406 99.1829 136.358 99.1829 136.31C99.1829 136.261 99.1961 136.214 99.2211 136.172C99.2424 136.128 99.2752 136.09 99.3162 136.063C99.3571 136.036 99.4046 136.02 99.4537 136.017C99.4826 136.016 99.5113 136.021 99.5383 136.032C100.911 136.639 102.228 137.364 103.476 138.198L103.48 138.201C103.896 138.462 104.327 138.732 104.752 138.988C104.78 138.923 104.811 138.86 104.845 138.798C105.889 136.91 106.647 134.877 107.094 132.766C107.534 130.653 107.67 128.488 107.498 126.337C107.472 126.121 107.492 125.902 107.556 125.694C107.62 125.486 107.727 125.295 107.871 125.131C108.037 124.963 108.235 124.831 108.454 124.744C108.673 124.656 108.907 124.614 109.143 124.621C109.601 124.617 110.046 124.768 110.407 125.051C110.601 125.207 110.76 125.402 110.873 125.623C110.987 125.845 111.053 126.088 111.066 126.337C111.439 131.298 110.348 136.259 107.928 140.604C107.916 140.625 107.904 140.644 107.891 140.664L107.872 140.694C109.621 141.606 111.078 142.308 112.455 142.903C114.593 143.828 116.583 144.583 118.538 145.213C119.066 145.383 119.617 145.521 120.2 145.667C121.651 146.031 123.15 146.406 124.275 147.304C125.016 147.901 125.585 148.686 125.922 149.576C126.26 150.487 126.442 151.448 126.461 152.419C126.54 154.422 126.143 156.587 125.824 158.326C125.784 158.541 125.744 158.762 125.706 158.975L125.606 159.536C125.295 161.33 125.056 163.229 125.829 164.992C126.583 166.71 128.026 168.007 129.422 169.262L129.438 169.276C129.558 169.383 129.677 169.49 129.794 169.596L130.094 169.866C131.497 171.147 132.925 172.551 133.87 174.144C134.648 172.533 135.684 171.171 136.781 169.731L136.785 169.726C136.925 169.542 137.07 169.352 137.214 169.161C137.945 168.194 137.659 167.745 137.186 166.999C137.075 166.825 136.949 166.627 136.826 166.404C136.517 165.86 136.289 165.273 136.151 164.662C136.017 164.051 135.997 163.419 136.091 162.8C136.181 162.224 136.361 161.665 136.624 161.144C136.886 160.63 137.209 160.15 137.586 159.713C138.36 158.841 139.246 158.076 140.221 157.438C141.526 156.579 142.873 155.787 144.257 155.064C145.237 154.531 146.251 153.98 147.216 153.386C151.979 150.487 156.48 147.176 160.666 143.491C160.692 143.468 160.725 143.455 160.76 143.455C160.788 143.455 160.815 143.463 160.839 143.476C160.863 143.49 160.882 143.51 160.896 143.534C160.907 143.554 160.912 143.577 160.91 143.599C160.908 143.622 160.9 143.643 160.887 143.662C157.7 148.608 153.706 152.982 149.071 156.601C147.441 157.865 145.703 158.97 144.022 160.037C143.705 160.239 143.419 160.421 143.133 160.603L142.552 160.977C141.619 161.582 140.708 162.259 140.364 163.102C140.083 163.789 140.479 164.356 140.861 164.904C140.981 165.076 141.104 165.253 141.205 165.431C141.519 165.972 141.74 166.563 141.857 167.178C141.957 167.735 141.958 168.305 141.859 168.862C141.611 170.029 141.078 171.115 140.307 172.024L140.233 172.116C138.625 174.1 137.439 175.926 136.872 178.39C136.313 180.823 136.314 183.48 136.877 186.513C137.382 189.241 138.271 191.911 139.155 194.39L139.226 194.588C139.463 195.249 139.706 195.917 139.943 196.564L139.946 196.572C140.681 198.589 141.441 200.674 142.081 202.761L142.313 203.524C143.083 206.077 143.703 208.58 142.847 211.179C142.773 211.409 142.628 211.609 142.432 211.751C142.237 211.893 142.002 211.97 141.761 211.97H141.761ZM151.348 175.587C151.113 175.587 150.873 175.578 150.635 175.56C149.224 175.476 147.848 175.081 146.606 174.403C146.095 174.074 145.619 173.694 145.185 173.268C144.278 172.444 143.34 171.592 142.302 171.592C142.105 171.592 141.908 171.624 141.721 171.685C141.704 171.691 141.687 171.693 141.669 171.693C141.626 171.691 141.585 171.675 141.552 171.649C141.518 171.623 141.493 171.587 141.479 171.546C141.466 171.513 141.463 171.477 141.472 171.443C141.481 171.408 141.501 171.378 141.529 171.356C141.966 170.986 142.519 170.784 143.091 170.785C144.129 170.785 145.193 171.402 146.222 171.998C146.829 172.383 147.474 172.702 148.148 172.952C149.622 173.422 151.206 173.425 152.682 172.959C154.158 172.493 155.454 171.581 156.393 170.349C158.47 167.676 160.383 164.879 162.122 161.973C163.012 160.53 163.81 159.032 164.513 157.488C164.88 156.607 165.163 155.694 165.36 154.76C165.519 154.045 165.719 153.34 165.956 152.648C166.113 152.216 166.41 151.85 166.8 151.608C167.168 151.381 167.592 151.261 168.025 151.261C168.284 151.254 168.543 151.3 168.784 151.396C169.026 151.492 169.245 151.636 169.429 151.819C169.594 152.002 169.718 152.218 169.794 152.452C169.871 152.686 169.898 152.933 169.874 153.178C169.781 154.849 169.116 156.394 168.473 157.889C168.412 158.031 168.351 158.174 168.29 158.316L168.214 158.494C167.492 160.21 166.627 161.862 165.627 163.432C163.67 166.448 161.458 169.291 159.015 171.928C158.037 173.025 156.861 173.93 155.55 174.594C154.245 175.246 152.806 175.586 151.348 175.587H151.348ZM168.783 150.055C168.307 150.041 167.856 149.842 167.525 149.499C166.142 148.198 164.864 146.787 163.706 145.281C162.531 143.789 161.609 142.114 160.977 140.323C160.962 140.276 160.959 140.227 160.967 140.179C160.976 140.13 160.996 140.085 161.025 140.046C161.058 140 161.101 139.962 161.151 139.936C161.201 139.909 161.256 139.895 161.313 139.894C161.37 139.893 161.426 139.91 161.473 139.941C162.416 140.589 163.312 141.301 164.157 142.073V142.073C164.56 142.425 164.977 142.789 165.394 143.131C166.843 144.317 168.31 145.484 169.756 146.6C170.114 146.86 170.38 147.229 170.513 147.651C170.616 148.011 170.606 148.393 170.483 148.746C170.368 149.113 170.143 149.435 169.839 149.669C169.535 149.903 169.166 150.038 168.783 150.055V150.055ZM158.675 144.221C158.25 144.218 157.839 144.069 157.51 143.798C155.603 142.257 154.195 140.183 153.465 137.84C153.097 136.683 152.891 135.481 152.854 134.267C152.814 133.041 152.95 131.817 153.256 130.63C153.335 130.262 153.539 129.934 153.834 129.702C154.129 129.47 154.497 129.349 154.872 129.36C155.165 129.359 155.455 129.423 155.721 129.547C155.987 129.671 156.222 129.852 156.411 130.077C156.57 130.277 156.68 130.51 156.732 130.76C156.785 131.009 156.779 131.268 156.715 131.514L156.699 131.58C156.245 133.321 156.316 135.158 156.901 136.859C157.492 138.554 158.54 140.052 159.929 141.186L160.034 141.271C160.301 141.471 160.498 141.751 160.597 142.07C160.672 142.345 160.66 142.638 160.563 142.907C160.413 143.288 160.153 143.616 159.817 143.85C159.482 144.084 159.084 144.213 158.675 144.221Z" fill="black"/>
<path d="M135.299 20.4719C180.426 21.9028 183.149 43.3712 183.149 79.3742C183.149 115.377 159.74 138.065 151.12 142.026C142.501 145.988 119.803 163.004 99.3202 155.162C78.8379 147.321 84.7691 114.192 84.7691 99.9576C84.7691 85.7232 90.175 19.0407 135.299 20.4719Z" fill="#D08B5B"/>
<path d="M91.6848 77.6084C101.015 39.502 118.048 20.9101 142.783 21.8328C179.887 23.2165 179.496 61.0943 177.168 57.6406C175.647 55.3842 164.999 47.5019 145.225 33.9936L144.002 33.1594L91.6848 77.6084Z" fill="#417505"/>
<path d="M136.091 188.167C129.798 188.167 123.806 185.75 118.775 183.387C109.801 179.174 100.854 174.469 92.203 169.921L92.1967 169.918C89.5379 168.52 86.789 167.074 84.0832 165.667C77.3616 162.171 71.8676 159.289 66.7932 156.595C66.3135 156.341 65.686 155.999 65.0675 155.61L64.9359 155.608H64.914C64.8109 155.606 64.6939 155.605 64.5806 155.605C64.1957 155.605 63.799 155.628 63.379 155.653C62.9535 155.678 62.5146 155.704 62.0841 155.704C61.4996 155.72 60.9163 155.645 60.3545 155.483C59.868 155.337 59.4257 155.072 59.0675 154.711C58.7093 154.351 58.4466 153.906 58.3031 153.418C58.1881 153.018 58.1433 152.601 58.1706 152.185C58.2366 151.334 58.5017 150.511 58.9444 149.783C59.9194 148.14 61.5633 146.754 63.0138 145.532L63.3022 145.289C65.0456 143.816 66.8424 142.496 68.3691 141.401C69.0799 140.89 69.8082 140.378 70.5145 139.882C71.7914 138.983 73.1115 138.055 74.3803 137.103L74.428 137.03C74.5179 136.893 74.6118 136.75 74.7008 136.606C76.6451 133.457 77.833 129.899 78.1708 126.212C77.4465 125.31 76.7681 124.372 76.1381 123.401C72.7208 118.005 70.0235 112.184 68.1151 106.086C66.1868 99.9976 64.8879 93.7268 64.2388 87.3725C63.5777 81.0659 63.6158 74.7053 64.3525 68.4071C65.6949 56.659 69.6339 45.358 75.883 35.3256C78.7593 30.6852 82.0931 26.3455 85.8344 22.3717C89.5671 18.4025 93.7064 14.8378 98.184 11.7363C102.66 8.63581 107.475 6.05885 112.536 4.05574C115.865 2.74358 119.306 1.73561 122.816 1.04412C126.316 0.354886 129.874 0.00523209 133.441 1.2534e-05C136.691 -0.00225143 139.935 0.302187 143.129 0.909292C145.829 1.42957 148.481 2.17786 151.055 3.14616C153.646 4.12055 156.156 5.29876 158.562 6.66977C160.97 8.04082 163.268 9.59583 165.437 11.321C167.59 13.0328 169.605 14.912 171.463 16.9412C173.044 18.6743 174.519 20.5007 175.88 22.4107C177.235 24.3127 178.484 26.2876 179.622 28.3264C181.895 32.427 183.782 36.7304 185.259 41.181C188.027 49.4299 189.745 58.7233 190.365 68.8026C191.125 81.2001 189.882 93.2006 186.671 104.47C185.08 110.004 183.032 115.396 180.549 120.589C178.062 125.794 175.187 130.803 171.947 135.574C172.257 136.039 172.599 136.535 173.057 137.178C174.581 139.314 176.208 141.622 177.779 144.019C179.196 146.121 180.444 148.334 181.508 150.636C182.572 152.92 183.266 155.359 183.565 157.862C183.655 158.687 183.691 159.518 183.673 160.348C183.629 161.262 183.239 162.125 182.582 162.761C181.958 163.414 181.103 163.795 180.201 163.823C179.613 163.823 179.042 163.633 178.57 163.282C177.256 162.319 175.664 161.811 174.036 161.836C172.585 161.871 171.15 162.141 169.785 162.634C168.211 164.631 166.578 166.636 164.934 168.592C162.716 171.227 160.707 173.593 158.563 175.871C156.375 178.24 154.004 180.433 151.473 182.429C149.283 184.153 146.858 185.555 144.272 186.591C141.68 187.618 138.919 188.153 136.131 188.167H136.091ZM91.7647 144.727C91.4817 144.73 91.2095 144.836 91.0001 145.027C90.7912 145.21 90.6424 145.453 90.5732 145.722C90.5062 145.961 90.5257 146.216 90.6282 146.442C90.7307 146.667 90.9096 146.849 91.1333 146.956C93.9917 148.474 96.9948 149.702 100.098 150.622C103.2 151.542 106.357 152.264 109.551 152.784C109.627 152.797 109.703 152.803 109.78 152.803C110.107 152.792 110.418 152.659 110.653 152.431C110.888 152.202 111.03 151.895 111.052 151.567C111.069 151.438 111.061 151.306 111.027 151.18C110.993 151.054 110.934 150.937 110.853 150.834C110.773 150.731 110.672 150.646 110.558 150.583C110.444 150.52 110.318 150.481 110.188 150.467C107.097 149.966 104.039 149.276 101.031 148.401C98.0222 147.528 95.111 146.348 92.3427 144.881C92.1658 144.782 91.9671 144.729 91.7647 144.727ZM100.596 134.882C100.336 134.891 100.084 134.975 99.8706 135.124C99.6573 135.273 99.4919 135.481 99.3946 135.723C99.3135 135.927 99.2992 136.152 99.3536 136.364C99.4081 136.577 99.5286 136.767 99.6977 136.907C101.549 138.599 103.545 140.123 105.664 141.464C107.775 142.796 109.984 143.965 112.273 144.959C116.879 146.931 121.706 148.339 126.649 149.15C126.725 149.163 126.803 149.17 126.88 149.17C127.047 149.171 127.213 149.136 127.367 149.069C127.52 149.002 127.658 148.903 127.771 148.78C127.987 148.548 128.121 148.251 128.15 147.935C128.168 147.805 128.159 147.674 128.125 147.547C128.091 147.421 128.032 147.303 127.952 147.2C127.871 147.098 127.771 147.012 127.657 146.949C127.543 146.886 127.417 146.846 127.287 146.832C122.547 146.059 117.913 144.73 113.483 142.873C111.282 141.934 109.157 140.827 107.127 139.56C105.089 138.285 103.17 136.828 101.395 135.206C101.18 135 100.894 134.884 100.596 134.882H100.596ZM144.778 34.5505C144.581 34.7107 144.384 34.8708 144.187 35.031L144.149 35.061L143.584 35.5211C142.611 36.3159 141.633 37.1195 140.688 37.8967L140.685 37.8988C139.264 39.0669 137.795 40.2747 136.341 41.4521C131.154 45.6535 126.027 49.9389 122.139 53.2028C114.542 59.5801 104.515 67.9771 94.3281 76.3699C93.7092 79.5025 93.4095 82.6899 93.4337 85.8831C93.4572 89.0747 93.7463 92.2588 94.2981 95.4023C94.9153 98.8447 95.8243 102.228 97.015 105.516C98.2943 109.125 99.8176 112.59 101.002 115.206C103.011 117.088 104.717 118.614 106.369 120.008C108.335 121.665 110.204 123.113 112.083 124.435C117.129 127.983 121.982 130.49 126.918 132.101C130.686 133.36 134.63 134.013 138.603 134.037C141.188 134.043 143.764 133.731 146.274 133.11C148.836 132.47 151.302 131.493 153.607 130.204C157.184 128.174 160.413 125.584 163.171 122.532C165.93 119.483 168.302 116.104 170.233 112.472C174.264 104.978 176.489 96.2671 177.033 85.8417C177.252 81.1754 177.202 76.5005 176.883 71.84C176.575 66.902 176.056 62.0505 175.589 57.9543C175.524 57.9635 175.458 57.9681 175.393 57.9681C175.256 57.9673 175.119 57.9486 174.986 57.9125C173.792 57.5918 172.902 56.5961 172.041 55.633C171.778 55.3391 171.531 55.0625 171.275 54.8045C170.062 53.5803 168.821 52.3911 167.587 51.2698C165.234 49.1311 162.706 47.0429 160.071 45.0631C157.464 43.1061 154.704 41.2825 152.035 39.5182C149.631 37.9291 147.143 36.285 144.778 34.5505ZM145.923 28.8931C144.38 28.9054 142.84 29.0375 141.318 29.2882C139.818 29.5373 138.338 29.8968 136.891 30.3636C133.963 31.3258 131.169 32.6571 128.576 34.3253C126.076 35.9148 123.506 37.7333 120.936 39.7306C118.598 41.5485 116.185 43.5743 113.765 45.749C111.566 47.718 109.468 49.7978 107.48 51.9803C105.494 54.1604 103.654 56.4699 101.974 58.8936C100.301 61.3077 98.8334 63.8578 97.5855 66.5171C96.3318 69.1988 95.35 71.9999 94.6549 74.8781L94.6351 74.9618C94.5949 75.1318 94.5532 75.3075 94.5151 75.4813C102.678 67.481 111.358 59.3711 120.314 51.377C123.049 48.9363 125.838 46.4658 128.535 44.0764L128.54 44.0716L128.544 44.0688C130.354 42.4653 132.225 40.8074 134.064 39.1741C136.141 37.3291 138.28 35.4847 140.349 33.701L141.109 33.0455L141.949 32.3212L141.956 32.3149C142.837 31.5551 143.748 30.7696 144.646 30.0002C144.8 29.8684 144.955 29.73 145.106 29.5972L145.108 29.5951C145.372 29.3585 145.645 29.1162 145.923 28.8931ZM149.998 29.1393C149.984 29.2281 149.963 29.3156 149.934 29.4006C149.721 30.0173 149.379 30.5815 148.931 31.0555C148.482 31.5203 147.999 31.9509 147.486 32.3437L147.482 32.347C147.393 32.4191 147.303 32.4918 147.212 32.5653C146.808 32.8917 146.404 33.2233 146.057 33.5082C148.975 34.3873 151.785 35.5893 154.437 37.0919C157.094 38.5914 159.656 40.2529 162.109 42.0671C164.919 44.1146 167.613 46.3181 170.177 48.6672C171.423 49.8044 172.661 50.9966 173.859 52.2106C174.048 52.4016 174.251 52.5944 174.466 52.7986L174.468 52.8004C174.66 52.9824 174.858 53.1704 175.052 53.3637L175.019 53.0809L175.015 53.0463C174.998 52.8962 174.98 52.746 174.962 52.5959C174.911 52.1012 175.05 51.6055 175.349 51.2089C174.529 48.3296 173.292 45.586 171.678 43.0656C170.088 40.58 168.154 38.3334 165.933 36.3931C163.716 34.4531 161.232 32.8426 158.557 31.6113C155.844 30.3611 152.958 29.5278 149.997 29.1393H149.998Z" fill="black"/>
<path d="M144.314 117.774C143.187 117.762 142.076 117.507 141.055 117.027C140.018 116.554 139.092 115.869 138.335 115.016C137.787 114.399 137.365 113.681 137.092 112.902C136.816 112.105 136.732 111.254 136.846 110.419C136.868 110.197 136.977 109.993 137.149 109.851C137.32 109.709 137.54 109.641 137.762 109.66C137.965 109.659 138.166 109.703 138.35 109.789C138.533 109.876 138.695 110.002 138.824 110.16L139.005 110.407C139.563 111.21 140.231 111.93 140.99 112.546C141.729 113.165 142.656 113.513 143.619 113.531C144.235 113.532 144.843 113.384 145.391 113.1C145.938 112.816 146.41 112.404 146.764 111.899C147.107 111.388 147.345 110.814 147.463 110.21C147.57 109.723 147.739 109.251 147.968 108.808C148.189 108.433 148.507 108.124 148.889 107.913C149.27 107.703 149.701 107.598 150.136 107.611C151.133 107.611 152.261 108.166 152.535 109.406C152.715 110.231 152.683 111.089 152.441 111.899C152.193 112.717 151.791 113.48 151.257 114.147C149.638 116.222 146.852 117.713 144.482 117.773C144.427 117.774 144.37 117.774 144.314 117.774ZM146.476 101.686C144.402 101.686 142.005 101.152 139.35 100.1C138.934 99.9309 138.592 99.6181 138.386 99.2181C138.218 98.8668 138.171 98.4698 138.253 98.089C138.331 97.7086 138.527 97.3628 138.814 97.1011C139.117 96.827 139.512 96.677 139.921 96.6807C140.143 96.6825 140.364 96.72 140.575 96.7918L140.937 96.9419H140.938C142.49 97.5888 144.836 98.5665 146.845 98.5665C147.468 98.5808 148.087 98.4601 148.66 98.2128C149.233 97.9484 149.712 97.516 150.035 96.9729C150.216 96.5543 150.305 96.1017 150.295 95.6457C150.286 95.1897 150.179 94.7411 149.981 94.3303C149.566 93.4595 148.752 92.6445 147.563 91.9121C146.579 91.3207 145.526 90.8509 144.429 90.5127C144.268 90.4437 144.135 90.3209 144.054 90.1651C143.973 90.0093 143.948 89.8302 143.983 89.6581C144.045 89.2977 144.364 88.9056 145.07 88.8893C145.157 88.8872 145.244 88.8863 145.329 88.8863C147.594 88.8863 149.573 89.577 151.053 90.886C151.71 91.4637 152.254 92.1588 152.656 92.9358C153.038 93.6675 153.279 94.4646 153.367 95.2855C153.451 96.0562 153.381 96.836 153.161 97.5791C152.939 98.3268 152.553 99.0153 152.031 99.5947C151.173 100.548 149.513 101.685 146.477 101.685L146.476 101.686ZM113.27 88.6158C113.125 88.6093 112.985 88.5603 112.868 88.4749C112.75 88.3894 112.661 88.2714 112.61 88.1353C112.571 88.0323 112.567 87.9193 112.597 87.8135C112.628 87.7077 112.693 87.6149 112.781 87.5491C114.083 86.4896 115.488 85.5626 116.973 84.782C118.473 83.984 120.04 83.3202 121.657 82.7982C121.425 82.4268 121.276 82.0093 121.222 81.5746C121.163 81.1475 121.214 80.7126 121.368 80.3103C121.42 80.1371 121.485 79.9704 121.541 79.8299L121.675 79.5041C121.688 79.3504 121.716 79.1984 121.759 79.0503L121.766 79.0053L121.77 79.008C121.89 78.6213 122.099 78.2686 122.382 77.9789C122.663 77.6859 123.017 77.4727 123.407 77.3612C123.602 77.3074 123.803 77.2802 124.005 77.2801C124.32 77.2807 124.633 77.3453 124.922 77.4702C125.441 77.572 125.92 77.8223 126.299 78.1909C126.683 78.5538 126.967 79.0085 127.127 79.5122C127.151 79.5977 127.178 79.683 127.207 79.7656L127.254 79.8902L127.129 79.5737C127.175 79.757 127.247 79.9329 127.342 80.0962C127.418 80.2333 127.481 80.3772 127.531 80.5259C127.641 80.9305 127.676 81.352 127.634 81.7691C128.015 81.7731 128.329 81.7866 128.621 81.8121L128.938 81.8403C130.697 82.0052 132.663 82.3097 133.717 83.8469C133.87 84.0795 133.953 84.3512 133.957 84.6297C133.964 84.9195 133.908 85.2073 133.792 85.4729C133.7 85.7148 133.549 85.9296 133.353 86.0973C133.156 86.265 132.92 86.38 132.667 86.4318C132.471 86.4615 132.273 86.4764 132.075 86.4762C131.289 86.4394 130.514 86.2858 129.773 86.0204C129.16 85.8149 128.529 85.666 127.889 85.5756C127.354 85.5169 126.816 85.4879 126.278 85.4885C125.215 85.4918 124.155 85.5912 123.11 85.7855C121.226 86.175 119.372 86.6953 117.56 87.3425C116.344 87.7461 115.087 88.1632 113.821 88.4939L113.395 88.6023V88.6002C113.354 88.6103 113.312 88.6155 113.27 88.6158ZM163.137 86.0933C162.896 86.0996 162.658 86.0338 162.454 85.9044C162.25 85.775 162.09 85.5878 161.992 85.3666L161.962 85.303C161.585 84.4237 160.55 83.9781 158.886 83.9781C158.387 83.9816 157.889 84.0141 157.394 84.0754C156.45 84.2033 155.517 84.4072 154.606 84.685C154.273 84.7811 153.949 84.8841 153.648 84.9811L153.33 85.0847C153.188 85.1303 152.636 85.4285 152.648 85.5051C152.65 85.5177 152.667 85.524 152.698 85.524C152.741 85.5222 152.784 85.5164 152.826 85.5066C152.836 85.5045 152.846 85.5035 152.856 85.5036C152.891 85.505 152.924 85.5178 152.951 85.5402C152.978 85.5626 152.997 85.5932 153.004 85.6273C153.011 85.6545 153.008 85.6833 152.996 85.7084C152.983 85.7336 152.962 85.7533 152.936 85.7639C152.824 85.8183 152.702 85.8467 152.578 85.8471C152.453 85.8438 152.33 85.8152 152.217 85.7629C152.103 85.7107 152.002 85.6359 151.918 85.5432C151.818 85.4374 151.74 85.3124 151.69 85.1756C151.64 85.0388 151.618 84.8932 151.626 84.7477C151.693 83.6694 153.205 83.0211 154.205 82.5922C154.338 82.5349 154.464 82.4808 154.575 82.4307L154.631 82.4052C155 82.2346 155.377 82.0748 155.752 81.9334C155.53 81.5975 155.347 81.2381 155.204 80.8617C155.064 80.5053 154.967 80.1331 154.917 79.7533C154.866 79.5665 154.866 79.3695 154.917 79.1827L154.924 79.1284C154.898 79.0015 154.885 78.8721 154.887 78.7425L154.882 78.6921H154.887C154.899 78.2408 155.076 77.8095 155.383 77.4795C155.532 77.3264 155.709 77.2048 155.906 77.1219C156.102 77.0389 156.313 76.9963 156.526 76.9966C156.969 77.0071 157.398 77.1608 157.748 77.4348L157.842 77.5092C158.514 77.8654 159.069 78.4074 159.441 79.0707C159.83 79.656 160.052 80.3366 160.084 81.0391C161.943 81.0451 163.444 81.6661 164.551 82.8844C164.902 83.2703 165.229 83.9439 164.997 84.5724L164.868 84.9216C164.722 85.2625 164.481 85.5541 164.174 85.7618C163.867 85.9696 163.507 86.0846 163.137 86.0933H163.137ZM111.762 77.1363C111.611 77.1293 111.465 77.0769 111.345 76.9858C111.224 76.8947 111.134 76.7692 111.086 76.6258C110.86 75.8695 110.886 75.0601 111.162 74.3204C111.413 73.568 111.752 72.8478 112.171 72.1746C113.111 70.6905 114.381 69.4447 115.882 68.535C117.531 67.4915 119.335 66.9135 121.043 66.4096L121.493 66.2784C121.822 66.1826 122.159 66.0754 122.484 65.9718C123.549 65.6321 124.649 65.2811 125.696 65.2811C126.65 65.266 127.574 65.6148 128.282 66.2567C128.692 66.648 128.948 67.1739 129.004 67.7387C129.086 68.2987 128.971 68.8698 128.68 69.3548C128.234 70.0841 127.539 70.6266 126.723 70.8818C125.934 71.0918 125.12 71.1967 124.303 71.1938C123.959 71.2088 123.603 71.2238 123.245 71.2539C120.267 71.5683 117.423 72.6584 114.997 74.4156C114.506 74.7876 114.053 75.2062 113.642 75.6654C113.187 76.1861 112.668 76.6471 112.097 77.0375C111.997 77.1014 111.88 77.1357 111.762 77.1363V77.1363ZM162.956 73.9565C162.538 73.9394 162.13 73.8275 161.762 73.6292C161.394 73.431 161.075 73.1516 160.831 72.8121L160.783 72.752C160.158 71.915 159.431 71.1591 158.619 70.5019C157.804 69.8451 156.908 69.2962 155.953 68.869C154.993 68.4329 153.983 68.1175 152.945 67.93L152.616 67.8735C152.275 67.8098 151.931 67.7735 151.585 67.7648C151.455 67.7639 151.326 67.7739 151.199 67.7948C150.98 67.824 150.769 67.8977 150.58 68.0113C150.596 68.0477 150.602 68.0876 150.599 68.1272C150.595 68.1669 150.581 68.2049 150.559 68.2378C150.535 68.2754 150.503 68.3066 150.465 68.3285C150.426 68.3505 150.383 68.3625 150.339 68.3636C150.297 68.3633 150.255 68.3523 150.219 68.3317C150.039 68.2498 149.883 68.1252 149.763 67.9687C149.642 67.8123 149.562 67.6288 149.529 67.4342C149.523 67.1746 149.577 66.9172 149.688 66.6826C149.799 66.448 149.964 66.2426 150.168 66.0829C150.675 65.6141 151.455 65.276 152.485 65.0772C153.333 64.9257 154.192 64.8539 155.053 64.8628H155.056C157.027 64.8797 158.962 65.3962 160.68 66.3642C162.403 67.3179 163.882 68.6586 165.001 70.2812C165.163 70.5286 165.273 70.807 165.322 71.0989C165.371 71.3908 165.359 71.6897 165.287 71.9767C165.214 72.3162 165.074 72.6375 164.874 72.9214C164.675 73.2052 164.42 73.4456 164.125 73.6283C163.772 73.8408 163.368 73.9542 162.956 73.9565V73.9565Z" fill="black"/>
</g>
<defs>
<clipPath id="clip0_7_21">
<rect width="235" height="333" fill="white"/>
</clipPath>
</defs>
</svg>
