<svg width="279" height="331" viewBox="0 0 279 331" fill="none" xmlns="http://www.w3.org/2000/svg">
<g clip-path="url(#clip0_8_32)">
<path d="M272.175 191.697L260.242 192.864C241.192 194.317 222.149 197.351 203.245 199.172C202.775 198.407 201.852 198.532 201.294 199.065C199.408 198.9 197.294 197.461 195.584 198.958C195.528 198.95 195.472 198.941 195.416 198.935C192.374 193.107 190.271 186.89 188.23 180.665C186.927 176.838 185.174 173.133 181.934 170.564C176.406 166.734 163.741 158.968 157.25 159.294C157.148 158.097 156.6 156.982 155.715 156.167C157.675 152.831 149.837 150.654 149.283 151.041C149.638 139.895 144.385 130.216 132.802 127.996C122.425 125.838 107.666 125.477 102.085 136.299C101.472 136.23 95.2012 136.198 94.5942 136.266C93.651 135.073 83.2914 146.373 87.5372 150.306C49.5777 167.067 27.9936 165.069 17.4869 212.186C16.0663 216.612 15.9629 221.456 14.4632 225.783C9.12684 238.22 4.79887 251.463 3.72168 264.994C1.12022 265.66 0.820771 270.238 3.83311 270.9C4.98411 271.154 5.94681 271.5 6.78583 272.155C6.12982 283.245 8.8168 308.578 10.5099 308.5C13.9623 319.466 29.3613 322.561 40.2636 318.708C38.3841 322.237 40.2636 324.456 40.2636 326.341C79.4922 327.823 122.385 326.97 161.602 329.001C166.619 328.93 171.895 330.231 176.843 329.482C179.861 328.759 179.866 324.024 176.805 323.439L190.18 320.54C189.881 320.428 195.693 316.568 200.085 309.358C204.174 301.292 201.391 291.556 203.244 282.782C217.713 281.601 232.422 281.096 246.734 278.651C248.685 284.478 257.132 277.509 259.817 274.705L259.807 274.692C260.471 274.506 261.058 274.114 261.485 273.573C261.912 273.033 262.157 272.371 262.183 271.683C263.094 270.383 263.286 268.552 262.412 267.296C266.417 244.228 272.523 220.675 274.73 197.39C275.517 197.222 276.251 196.865 276.868 196.35L276.818 196.3C277.873 195.125 278.078 193.098 276.319 192.102C274.9 191.296 273.715 191.545 272.175 191.697Z" fill="#D08B5B"/>
<path d="M170.617 331C165.349 331 157.617 330.485 147.636 329.471C143.244 329.024 134.206 328.603 120.774 328.219C109.398 327.895 97.0889 327.656 88.1015 327.482H88.0736C83.3843 327.391 79.6806 327.32 77.4839 327.262L76.8811 327.246C70.6595 327.067 64.3886 326.976 58.2427 326.976C52.0969 326.976 45.9026 327.067 39.8328 327.246V319.739L74.6526 302.501L105.851 284.985L120.893 278.034L123.958 279.98L149.028 288.043L164.349 289.989L176.884 288.043V309.452L179.391 329.47C179.112 329.978 178.235 330.363 176.779 330.617C175.323 330.871 173.251 331 170.617 331ZM51.2704 274.86H44.7989L7.14197 265.784L3.74829 264.666C4.03511 261.309 4.50331 257.971 5.15083 254.664C5.76951 251.482 6.57371 248.169 7.54087 244.819C9.44976 238.336 11.7615 231.979 14.4628 225.783C15.238 223.547 15.6475 221.129 16.0436 218.79C16.4155 216.593 16.7999 214.325 17.4865 212.186C19.5685 202.849 22.1137 195.284 25.2678 189.057C26.026 187.559 26.8341 186.115 27.669 184.764C28.4879 183.439 29.3601 182.159 30.2596 180.962C31.9778 178.669 33.9111 176.544 36.0333 174.618C39.8113 171.184 44.2638 168.286 50.0448 165.496C55.2858 162.966 60.9771 160.814 67.5661 158.32H67.5686C73.5348 156.063 80.2968 153.504 87.536 150.308C87.2166 150.006 86.962 149.642 86.7878 149.238C86.6135 148.835 86.5232 148.401 86.5223 147.961C86.5217 146.936 86.7302 145.922 87.1351 144.979C87.8641 143.126 89.2522 140.95 90.945 139.01C91.5739 138.275 92.2606 137.591 92.9985 136.965C93.6236 136.45 94.1036 136.178 94.3863 136.178C94.4253 136.175 94.4644 136.182 94.5005 136.197C94.5365 136.212 94.5685 136.236 94.5938 136.266L94.6532 136.26L94.7819 136.254L94.9473 136.248C95.3821 136.235 96.1716 136.228 97.1702 136.228C99.1962 136.228 101.713 136.257 102.085 136.299C102.396 135.695 102.745 135.11 103.131 134.55L105.433 136.266L100.406 144.509L124.895 164.281V180.073L132.648 187.392L137.079 180.073L143.324 171.784L147.762 158.349L146.251 149.497L149.289 149.211C149.304 149.814 149.301 150.43 149.282 151.041C149.36 151.004 149.447 150.989 149.533 150.997C150.075 150.997 151.348 151.291 152.64 151.836C153.281 152.099 153.893 152.428 154.467 152.817C154.983 153.151 155.42 153.593 155.748 154.113C155.937 154.424 156.034 154.782 156.028 155.145C156.022 155.508 155.914 155.863 155.715 156.167C156.602 156.981 157.15 158.097 157.252 159.295C157.385 159.288 157.522 159.285 157.658 159.285C159.2 159.285 161.157 159.7 163.475 160.52C165.795 161.368 168.056 162.37 170.243 163.518C172.322 164.589 174.524 165.834 176.788 167.22C179.072 168.619 180.849 169.812 181.937 170.565C183.506 171.834 184.821 173.387 185.81 175.144C186.801 176.899 187.612 178.749 188.232 180.667L188.538 181.6L188.855 182.559L189.174 183.516C190.852 188.526 192.769 193.862 195.418 198.936C195.459 198.94 195.501 198.947 195.54 198.952H195.547L195.585 198.958C196.089 198.509 196.744 198.268 197.419 198.284C198.145 198.323 198.862 198.458 199.551 198.686C200.12 198.865 200.703 198.991 201.294 199.065C201.566 198.798 201.929 198.643 202.311 198.633C202.49 198.63 202.667 198.674 202.825 198.759C202.983 198.845 203.116 198.969 203.212 199.12L203.246 199.172L179.742 203.794L164.237 258.079L150.735 247.139L143.488 248.215L124.348 255.105L102.088 260.876L51.2704 274.86Z" fill="#4A90E2"/>
<path d="M158.348 288.167C159.929 282.194 161.15 277.282 162.19 272.706C162.582 270.982 162.974 269.231 163.353 267.538V267.534C164.26 263.482 165.197 259.293 166.199 255.189C168.999 243.713 172.223 231.962 175.781 220.261C176.512 217.857 177.273 215.416 178.043 213.004L178.583 211.317L179 209.972C179.297 208.938 179.698 207.937 180.197 206.984C180.689 206.041 181.425 205.247 182.329 204.685C183.245 204.162 184.233 203.778 185.262 203.545C186.311 203.283 187.404 203.112 188.462 202.946C189.019 202.859 189.544 202.777 190.059 202.683L191.756 202.365C194.283 201.894 196.85 201.435 199.384 201C211.518 198.917 223.882 197.224 236.133 195.967C242.476 195.317 248.947 194.77 255.366 194.341C261.728 193.915 268.214 193.594 274.645 193.385L275.931 193.345L275.231 197.237C275.066 197.291 274.896 197.338 274.724 197.376C274.511 199.629 274.25 201.973 273.954 204.347L269.613 228.492C268.841 232.896 268.121 237.247 267.449 241.326L266.514 245.925L265.935 248.785C264.756 254.624 263.512 260.907 262.406 267.283C262.565 267.513 262.692 267.763 262.782 268.028L262.7 268.374L262.645 268.604L262.586 268.832C262.382 269.637 262.125 270.429 261.818 271.2C261.521 271.952 261.143 272.668 260.689 273.337C260.245 273.99 259.698 274.567 259.07 275.046C258.401 275.547 257.643 275.916 256.836 276.134C254.902 276.666 252.811 276.84 250.789 277.008C250.099 277.065 249.386 277.125 248.698 277.197L248.4 277.229L201.417 282.503C196.473 283.059 191.222 283.661 184.393 284.459L179.476 285.035C178.291 285.172 177.085 285.306 175.919 285.436L175.905 285.437C170.324 286.058 164.554 286.7 158.971 287.884C158.745 287.93 158.533 288.026 158.35 288.166L158.348 288.167ZM228.001 226.475C227.846 226.472 227.692 226.503 227.551 226.568C227.411 226.632 227.286 226.728 227.188 226.847C227.089 226.966 227.019 227.106 226.982 227.256C226.946 227.407 226.944 227.563 226.976 227.714L227.009 227.881C227.189 228.883 227.075 229.917 226.681 230.856C226.287 231.798 225.705 232.651 224.971 233.362C224.503 233.789 223.994 234.168 223.452 234.495C222.464 235.139 221.444 235.805 221.058 236.899C220.894 237.344 220.884 237.831 221.028 238.283C221.174 238.722 221.433 239.115 221.78 239.423L221.618 239.502L221.461 239.583L221.306 239.664L221.156 239.748L221.009 239.831C220.28 240.234 219.614 240.74 219.031 241.334C218.495 241.86 218.123 242.53 217.958 243.262C217.78 244.196 218.076 245.151 218.836 246.101C219.324 246.701 219.917 247.207 220.586 247.595C221.273 247.992 222.008 248.298 222.773 248.508C224.369 248.922 226.014 249.117 227.663 249.087C228.379 249.087 229.13 249.059 229.957 249.006L230.199 248.989C232.841 248.791 237.587 247.926 239.689 244.354C240.113 243.653 240.309 242.836 240.247 242.019C240.177 241.201 239.826 240.432 239.252 239.843C238.563 239.124 237.263 238.306 236.036 238.211C236.099 237.578 236.008 236.939 235.772 236.348C235.5 235.75 235.049 235.25 234.483 234.915C233.914 234.563 233.262 234.367 232.594 234.346C232.637 233.317 232.328 232.203 231.649 230.942C231.028 229.859 230.33 228.822 229.56 227.838C229.444 227.683 229.324 227.523 229.208 227.366L229.057 227.16L228.911 226.958C228.809 226.81 228.673 226.689 228.514 226.605C228.356 226.52 228.179 226.475 228 226.473L228.001 226.475ZM157.687 287.86C157.373 287.647 157 287.537 156.621 287.545H156.537C153.692 287.515 150.862 287.123 148.116 286.38C145.365 285.636 142.657 284.743 140.004 283.706L139.191 283.397L136.925 282.528C134.838 281.729 132.405 280.815 129.947 280.071L128.993 279.786L128.509 279.643C126.858 279.162 124.911 278.654 122.986 278.531L122.733 278.517L123.274 278.233C123.349 278.194 123.419 278.147 123.484 278.094C123.855 278.122 124.202 278.135 124.546 278.135C125.238 278.137 125.929 278.077 126.61 277.955C128.644 277.586 130.607 276.894 132.422 275.906L133.23 275.468L133.561 275.293L133.78 275.179L133.998 275.07C134.558 274.781 135.143 274.542 135.745 274.354C136.348 274.169 136.975 274.075 137.606 274.073C138.076 274.074 138.545 274.124 139.005 274.223C140.794 274.599 142.431 275.459 144.013 276.29C144.401 276.494 144.802 276.705 145.198 276.905L145.555 277.082L145.795 277.198L146.039 277.312L146.286 277.425C148.157 278.266 149.756 278.692 151.036 278.692C152.797 278.692 153.919 277.879 154.372 276.275C154.757 274.912 154.543 273.539 153.736 272.188C153.785 272.184 153.835 272.182 153.884 272.182C154.58 272.182 155.51 272.56 156.495 272.96C157.46 273.352 158.457 273.758 159.321 273.845L159.441 273.855L157.686 287.856L157.687 287.86ZM227.555 247.139C226.429 247.154 225.304 247.064 224.195 246.868C223.128 246.695 222.108 246.301 221.201 245.711C220.43 245.183 219.981 244.55 219.905 243.882C219.882 243.558 219.931 243.233 220.048 242.93C220.166 242.627 220.349 242.354 220.585 242.13C221.238 241.421 221.913 240.688 222.613 239.974C222.994 240.161 223.413 240.259 223.837 240.261C224.461 240.235 225.072 240.079 225.631 239.801C225.657 239.789 225.679 239.769 225.691 239.743C225.704 239.717 225.707 239.687 225.699 239.659C225.693 239.626 225.676 239.595 225.651 239.572C225.625 239.549 225.593 239.536 225.558 239.533C225.267 239.533 224.596 239.269 223.963 238.906C223.614 238.705 222.793 238.191 222.728 237.76C222.641 237.185 223.58 236.696 224.201 236.372H224.203C224.271 236.337 224.335 236.304 224.393 236.273L224.476 236.227L224.549 236.185C225.153 235.82 225.718 235.396 226.238 234.92C227.544 233.751 228.48 232.226 228.928 230.533L228.964 230.382L230.313 235.423L230.289 235.465C230.215 235.606 230.179 235.764 230.186 235.923C230.192 236.083 230.241 236.238 230.327 236.372C230.416 236.525 230.543 236.653 230.695 236.745C230.847 236.836 231.02 236.887 231.198 236.894C231.31 236.893 231.422 236.869 231.525 236.824C231.628 236.779 231.721 236.713 231.798 236.63L231.872 236.551C231.962 236.451 232.071 236.372 232.194 236.317C232.316 236.262 232.448 236.234 232.582 236.233C232.782 236.246 232.978 236.299 233.156 236.389C233.335 236.479 233.494 236.604 233.624 236.757C233.908 237.043 234.08 237.421 234.111 237.823C234.119 238.464 233.926 239.092 233.559 239.618C233.196 240.136 232.734 240.577 232.2 240.915L232.126 240.963L231.931 241.083C231.773 241.175 231.651 241.317 231.585 241.486C231.518 241.655 231.511 241.842 231.564 242.015C231.627 242.217 231.753 242.393 231.923 242.518C232.094 242.643 232.3 242.71 232.511 242.711C232.564 242.71 232.617 242.706 232.669 242.698C233.751 242.533 234.746 241.706 235.399 240.428C235.627 240.489 235.858 240.536 236.091 240.57C236.555 240.62 237.005 240.752 237.422 240.96C237.658 241.067 237.863 241.231 238.02 241.436C238.177 241.642 238.281 241.883 238.322 242.138C238.35 242.585 238.231 243.029 237.985 243.404C237.728 243.826 237.41 244.207 237.041 244.536L236.997 244.576L236.908 244.653C235.896 245.489 234.721 246.105 233.458 246.463C232.196 246.826 230.894 247.035 229.581 247.086L229.432 247.093C228.924 247.114 228.248 247.139 227.555 247.139Z" fill="white"/>
<path d="M179.422 330.746C179.276 330.746 179.132 330.716 178.999 330.657C178.865 330.598 178.746 330.511 178.648 330.403C178.144 329.856 177.773 329.201 177.563 328.488C177.359 327.776 177.209 327.05 177.115 326.316V326.314V326.31C177.078 326.069 177.039 325.819 176.997 325.574C176.704 323.86 176.437 322.08 176.183 320.132C175.649 316.035 175.356 312.663 175.259 309.518C175.148 305.896 175.191 302.218 175.387 298.588C175.483 296.819 175.605 294.918 175.851 292.995C175.964 292.111 176.063 291.368 176.175 290.621C176.217 290.343 176.263 290.061 176.317 289.759L173.306 290.098C168.896 290.59 164.19 291.076 159.418 291.15H159.391C159.154 291.152 158.919 291.099 158.705 290.993C158.492 290.888 158.307 290.734 158.166 290.543C158.005 290.803 157.779 291.016 157.509 291.16C157.239 291.304 156.936 291.374 156.63 291.363H156.621C149.995 291.338 143.839 289.117 138.173 286.721C136.757 286.122 135.329 285.489 133.948 284.878L133.942 284.875C132.42 284.201 130.845 283.504 129.283 282.85C128.136 282.369 126.935 281.938 125.774 281.521C124.085 280.948 122.427 280.286 120.808 279.54L113.671 283.276C113.486 283.942 113.071 284.522 112.499 284.912C112.084 285.203 111.636 285.442 111.164 285.626C110.487 285.907 109.761 286.051 109.027 286.051C108.828 286.05 108.628 286.04 108.43 286.019C101.903 289.433 96.8934 292.049 92.186 294.499L86.7672 297.319C83.634 298.947 80.4782 300.597 77.4266 302.192C69.8835 306.135 62.0836 310.212 54.3541 314.11L53.5544 314.512C50.0568 316.263 45.9023 318.249 41.6084 319.714C41.5485 320.777 41.5689 321.843 41.6696 322.903L41.6908 323.146C41.7003 323.247 41.7106 323.347 41.7212 323.454V323.466C41.8078 324.108 41.829 324.757 41.7844 325.403C41.7515 326.028 41.4787 326.617 41.0226 327.047C40.7703 327.266 40.4472 327.387 40.1128 327.387C39.9079 327.395 39.7052 327.343 39.5285 327.24C39.3518 327.136 39.2085 326.984 39.1155 326.801C38.8512 326.207 38.7469 325.554 38.8128 324.907C38.8652 324.206 38.9628 323.51 39.105 322.822C39.164 322.502 39.2197 322.201 39.2615 321.921C39.3334 321.396 39.4357 320.877 39.5679 320.364C37.8835 320.87 36.1693 321.271 34.4352 321.565C32.7213 321.855 30.9864 322.004 29.2482 322.01C27.8311 322.012 26.4162 321.9 25.0174 321.673C23.8653 321.483 22.7398 321.158 21.6644 320.704C20.615 320.257 19.6143 319.704 18.678 319.053C17.7358 318.397 16.8485 317.666 16.0247 316.866C15.1887 316.054 14.4028 315.193 13.6711 314.286C12.1193 312.374 10.7834 310.296 9.68776 308.091C8.59332 305.885 7.7427 303.567 7.15093 301.178C6.49957 298.455 6.09017 295.68 5.92749 292.886C5.73863 290.071 5.72665 287.189 5.74198 284.495C5.76092 281.186 5.83613 278.263 5.97262 275.557C6.13363 272.359 6.37876 269.445 6.72167 266.648C6.01979 266.467 5.29975 266.365 4.57509 266.345C4.46144 266.345 4.34946 266.348 4.24249 266.356C4.07032 266.627 3.82573 266.844 3.53635 266.983C3.25208 267.121 2.94017 267.192 2.62435 267.191C2.5414 267.191 2.45852 267.186 2.37615 267.176C2.23529 267.311 2.13214 267.48 2.07693 267.667C2.02172 267.853 2.01636 268.051 2.06138 268.241C2.20261 268.794 2.77365 269.373 3.75808 269.962C4.44965 270.369 5.17839 270.709 5.93446 270.978C6.03378 271.014 6.11688 271.085 6.16903 271.177C6.22119 271.269 6.23904 271.377 6.21942 271.48C6.20837 271.571 6.16372 271.653 6.09434 271.712C6.02497 271.771 5.93597 271.801 5.84504 271.798H5.82359L5.51356 271.783C3.58314 271.68 1.64382 271.344 0.53599 269.597C0.113467 268.941 -0.0675344 268.16 0.0239994 267.386C0.12014 266.628 0.454914 265.921 0.980013 265.365C1.61095 259.41 3.05082 253.501 4.44306 247.787L4.45197 247.75C4.61103 247.097 4.77565 246.422 4.9361 245.758C6.36205 239.856 8.0178 233.646 9.99807 226.774L10.8109 223.958C12.1856 219.206 13.6801 214.126 15.2929 209.167C17.0623 203.726 18.7941 198.984 20.5875 194.67C21.6948 192.005 22.7536 189.723 23.8243 187.691C25.0077 185.415 26.3668 183.234 27.8893 181.168C29.3081 179.263 30.8727 177.47 32.5691 175.807C34.2682 174.146 36.0886 172.613 38.0152 171.221C41.2805 168.858 45.0839 166.717 49.6431 164.677C53.6613 162.878 57.8291 161.343 62.1014 159.799L62.4752 159.664C66.6341 158.163 71.0774 156.538 75.3942 154.829C77.3491 154.056 79.294 153.161 81.1723 152.295C82.9292 151.486 84.746 150.65 86.5652 149.916C86.441 149.69 86.3218 149.464 86.2109 149.243L86.1416 149.302H86.1402C86.1293 149.31 86.1179 149.319 86.1062 149.327C85.9643 149.422 85.7966 149.472 85.6257 149.469C85.3414 149.465 85.0683 149.358 84.8582 149.166C84.6701 149.01 84.5222 148.811 84.4269 148.586C84.3315 148.361 84.2914 148.116 84.31 147.872C84.3792 147.394 84.5697 146.94 84.8635 146.555L84.9404 146.446C85.4889 145.679 85.9989 144.866 86.4945 144.08C86.6399 143.849 86.8045 143.587 86.965 143.335L87.3809 142.683C88.4717 140.979 89.6611 139.194 91.1514 137.751C91.8066 137.117 92.5636 136.597 93.3911 136.213C93.3863 136.201 93.385 136.187 93.3871 136.174C93.3893 136.161 93.3949 136.148 93.4033 136.138C93.5467 135.985 93.7439 135.893 93.9535 135.882C94.0027 135.879 94.0516 135.893 94.0911 135.923C95.5525 135.43 97.0894 135.198 98.6316 135.237C99.8985 135.237 101.181 135.346 102.285 135.448L102.81 133.782C103.004 133.257 103.351 132.802 103.806 132.475C104.195 132.208 104.656 132.065 105.128 132.066C105.66 132.066 106.177 132.241 106.6 132.562C107.023 132.884 107.329 133.335 107.47 133.847C107.58 134.251 107.603 134.674 107.539 135.088C107.279 136.905 106.324 138.791 105.329 140.559C104.694 141.687 103.807 143.119 102.568 144.187C104.63 146.105 106.781 147.965 108.963 149.712C111.362 151.624 113.871 153.396 116.476 155.017C117.18 155.456 117.904 155.886 118.605 156.302C120.223 157.223 121.788 158.232 123.293 159.326C124.304 160.07 125.234 160.917 126.07 161.851C126.909 162.785 127.576 163.859 128.042 165.023C128.508 166.242 128.698 167.549 128.601 168.851C128.502 170.15 128.258 171.433 127.873 172.678L127.79 172.963C127.702 173.258 127.609 173.552 127.511 173.864C126.789 176.155 125.97 178.752 127.544 180.831C128.206 181.704 129.095 182.4 129.956 183.072C130.274 183.32 130.602 183.577 130.911 183.837C131.925 184.689 132.873 185.616 133.747 186.61C135.669 188.755 137.169 191.242 138.17 193.941L138.257 194.187C138.715 195.438 139.016 196.74 139.154 198.064C139.309 199.374 139.109 200.702 138.575 201.908C138.514 202.036 138.418 202.143 138.297 202.216C138.177 202.29 138.037 202.326 137.896 202.321C137.704 202.325 137.515 202.267 137.358 202.157C137.201 202.046 137.084 201.888 137.023 201.706C136.822 200.893 136.684 200.066 136.609 199.232C136.54 198.526 136.434 197.824 136.289 197.13C135.924 195.561 135.341 194.05 134.556 192.642C133.04 189.932 131.018 187.537 128.6 185.586L127.878 185C126.937 184.269 126.079 183.436 125.321 182.516C124.567 181.581 124.073 180.463 123.889 179.276C123.562 177.095 124.204 174.974 124.824 172.923L124.826 172.917C124.98 172.41 125.138 171.885 125.279 171.37C125.838 169.32 125.876 167.683 125.4 166.221C124.895 167.002 124.34 167.75 123.739 168.46C123.539 168.707 123.349 168.94 123.169 169.171C122.086 170.555 120.984 171.949 119.917 173.296L119.773 173.478L118.971 174.492C117.38 176.504 116.015 178.322 114.798 180.049C114.155 180.961 113.539 181.851 113.022 182.601C112.78 182.951 112.482 183.307 112.192 183.652L112.191 183.654C111.949 183.942 111.698 184.24 111.48 184.537C111.546 184.706 111.572 184.888 111.553 185.069C111.535 185.249 111.474 185.423 111.376 185.576C110.921 186.188 110.403 186.499 109.836 186.499C108.884 186.499 107.778 185.637 106.549 183.934C105.71 182.727 104.959 181.462 104.3 180.148L104.246 180.046L104.227 180.008C103.265 178.166 102.412 176.235 101.587 174.368C100.752 172.48 99.8904 170.528 98.9151 168.665C96.9056 164.81 94.6164 161.107 92.0659 157.584C91.481 156.781 90.8612 155.985 90.2612 155.215C89.277 153.952 88.2594 152.645 87.3823 151.286C85.6723 152.788 83.7933 154.087 81.7832 155.156C79.7055 156.302 77.4656 157.322 75.6655 158.141H75.6633C72.2312 159.703 68.6392 161.064 65.1652 162.381L65.1583 162.383C64.1655 162.76 63.1387 163.149 62.1323 163.536L60.7952 164.055C56.3923 165.77 52.7293 167.277 49.1632 169.057C44.9436 171.164 41.4618 173.379 38.5189 175.829C36.6427 177.398 34.9148 179.136 33.3569 181.021C31.8181 182.888 30.4214 184.867 29.1785 186.943C27.9303 189.027 26.802 191.181 25.7993 193.393C24.8494 195.469 23.9455 197.685 23.036 200.166C21.2279 205.099 19.4777 210.327 17.6855 216.151C16.2091 220.953 14.7183 226.098 12.9979 232.345C11.4605 237.926 10.0034 243.535 8.66684 249.016C8.25792 250.693 7.86626 252.403 7.48742 254.058V254.063C6.75732 257.254 6.00215 260.553 5.08903 263.754C5.21271 263.75 5.33695 263.748 5.45757 263.748C7.17822 263.748 8.98356 264.142 10.7296 264.523C11.7265 264.74 12.6678 264.945 13.5129 265.056C19.4083 265.826 24.7305 266.77 29.7833 267.941C32.5204 268.575 35.2046 269.286 37.7615 270.054C40.4454 270.86 43.0819 271.754 45.5951 272.714C45.8769 272.816 46.1348 272.974 46.3527 273.179C46.5707 273.384 46.744 273.631 46.862 273.906C47.0734 274.413 47.1088 274.976 46.9628 275.506L47.8436 275.256L47.8765 275.246C48.3364 275.116 48.7514 274.999 49.171 274.881C48.5141 273.877 48.647 272.232 48.7531 270.911C48.7774 270.612 48.8002 270.327 48.8119 270.074L48.8158 269.98C48.8587 268.782 48.9604 267.565 49.059 266.388V266.382C49.1102 265.771 49.1632 265.138 49.2069 264.516C49.466 260.841 49.7885 257.454 50.1933 254.161L50.3013 253.299C50.5058 251.701 50.6913 250.074 50.8685 248.502V248.5C51.1092 246.378 51.3582 244.182 51.6588 242.033L51.7206 241.604C51.5025 240.772 51.2404 239.894 50.8707 238.758C50.2994 237.004 49.5506 235.292 48.8269 233.637C48.5155 232.925 48.1938 232.189 47.889 231.457C47.8724 231.422 47.8651 231.384 47.8677 231.346C47.8703 231.307 47.8827 231.271 47.9038 231.239C47.9351 231.197 47.976 231.163 48.0229 231.141C48.0699 231.118 48.1216 231.107 48.1737 231.108C48.2451 231.107 48.3145 231.132 48.3687 231.178C49.2252 231.956 50.0006 232.819 50.6833 233.753C51.3699 234.692 51.9881 235.678 52.5332 236.705C52.5415 236.664 52.5493 236.622 52.5571 236.58C52.5666 236.529 52.5775 236.471 52.5886 236.416L52.7131 235.804C53.0231 234.3 53.4017 232.73 54.3126 231.528C54.3361 231.496 54.3668 231.469 54.4021 231.451C54.4375 231.432 54.4766 231.422 54.5165 231.421C54.5533 231.421 54.5894 231.431 54.621 231.45C54.6527 231.468 54.6786 231.495 54.6962 231.528C55.0974 232.239 55.3708 233.016 55.504 233.821C55.6418 234.633 55.7358 235.451 55.7853 236.273C55.7934 236.376 55.8015 236.478 55.8096 236.579C55.9823 238.735 55.975 240.899 55.9547 242.339C55.9126 245.334 55.7319 248.382 55.5578 251.33C55.5168 252.022 55.4703 252.806 55.4271 253.572C55.2382 256.931 54.8669 260.508 54.292 264.507L54.1925 265.189C54.1237 265.656 54.0569 266.133 53.9923 266.594V266.597C53.8173 267.847 53.6368 269.137 53.3908 270.391L53.2956 270.858C53.2399 271.123 53.1906 271.421 53.1385 271.736C53.0384 272.474 52.8735 273.202 52.6457 273.911C61.4657 271.456 70.7983 268.916 80.3846 266.363C85.1387 265.097 89.974 263.823 94.6499 262.592C96.5569 262.09 98.5288 261.57 100.479 261.056C100.838 260.406 101.29 259.812 101.822 259.295C102.385 258.74 103.035 258.281 103.747 257.936C104.412 257.61 105.142 257.438 105.882 257.43C106.713 257.433 107.527 257.669 108.23 258.111C108.275 258.139 108.311 258.178 108.335 258.224C108.36 258.27 108.371 258.322 108.37 258.374C108.37 258.422 108.357 258.469 108.332 258.51C108.308 258.551 108.272 258.584 108.23 258.607C107.733 258.878 107.333 259.104 106.972 259.319L110.994 258.231C111.881 257.992 112.787 257.729 113.663 257.476H113.667C115.773 256.866 117.952 256.236 120.12 255.835C125.678 253.098 131.69 251.087 137.505 249.142L137.855 249.025L138.559 248.788C138.965 248.649 139.389 248.504 139.763 248.375C142.431 247.457 145.191 246.508 147.936 246.006C148.418 245.918 148.906 245.873 149.395 245.872C150.323 245.853 151.243 246.055 152.078 246.46C152.911 246.877 153.558 247.589 153.893 248.457C155.059 249.253 156.179 250.114 157.246 251.037C157.792 251.493 158.33 251.978 158.85 252.446L158.857 252.453C159.072 252.647 159.294 252.846 159.513 253.041L159.653 253.162L159.789 253.28L159.795 253.284C160.338 253.751 160.768 254.119 160.907 254.902C160.929 255.033 160.923 255.168 160.89 255.297C160.856 255.426 160.796 255.546 160.712 255.651C160.656 255.722 160.584 255.779 160.502 255.819C160.42 255.858 160.33 255.878 160.239 255.879C160.214 255.879 160.19 255.877 160.166 255.875C158.841 255.733 157.726 254.493 156.741 253.398C156.495 253.124 156.262 252.865 156.037 252.636C155.056 251.635 154.249 250.782 153.5 249.862C153.327 249.957 153.134 250.007 152.937 250.008C152.766 250.013 152.598 249.968 152.451 249.88C152.305 249.792 152.186 249.665 152.11 249.512C151.854 249.003 151.443 248.589 150.935 248.329C150.44 248.097 149.898 247.984 149.351 247.998C148.01 247.998 146.46 248.523 145.214 248.945H145.212C144.811 249.081 144.432 249.21 144.094 249.31L140.782 250.288C139.409 250.694 137.604 251.23 135.819 251.771C134.153 252.276 132.466 252.811 130.836 253.328C128.006 254.225 125.08 255.152 122.175 255.954C122.279 256.067 122.355 256.205 122.394 256.354C122.434 256.503 122.437 256.66 122.402 256.81C122.36 256.972 122.278 257.12 122.164 257.242C122.05 257.364 121.908 257.455 121.749 257.508C119.144 258.528 116.324 259.199 113.597 259.847H113.593C112.573 260.089 111.519 260.339 110.501 260.603C108.168 261.206 105.793 261.826 103.445 262.441C103.018 263.125 102.74 263.891 102.63 264.689C102.432 266.341 102.481 268.014 102.775 269.652C103.055 271.3 103.427 272.931 103.89 274.538L104.016 274.993C104.366 276.312 104.828 277.598 105.397 278.838C106.091 280.27 106.893 281.306 107.849 282.005C108.389 282.399 109.025 282.641 109.69 282.705C113.912 280.537 118.041 278.415 122.15 276.311C122.314 276.224 122.496 276.177 122.682 276.176C122.942 276.187 123.191 276.282 123.393 276.445C123.595 276.609 123.739 276.833 123.803 277.085C125.249 276.844 126.673 276.486 128.061 276.016C129.35 275.531 130.582 274.907 131.735 274.156C132.505 273.692 133.301 273.213 134.142 272.812C135.145 272.33 136.246 272.083 137.359 272.091C138.739 272.124 140.102 272.405 141.383 272.921C142.694 273.439 143.977 274.027 145.225 274.683C145.472 274.808 145.728 274.936 145.977 275.06L146.814 275.47C147.928 276.01 149.557 276.727 150.831 276.727C151.747 276.727 152.347 276.354 152.614 275.618C152.792 275.111 152.805 274.562 152.653 274.048C152.492 273.508 152.232 273.003 151.887 272.558C151.211 271.682 150.38 270.937 149.436 270.36C148.507 269.807 147.52 269.357 146.494 269.017C145.41 268.645 144.308 268.365 143.374 268.141C142.161 267.849 140.951 267.618 139.775 267.453C139.338 267.391 138.889 267.352 138.454 267.314C137.51 267.268 136.574 267.111 135.666 266.845C135.504 266.785 135.364 266.674 135.269 266.529C135.174 266.384 135.128 266.212 135.137 266.039C135.14 265.89 135.194 265.746 135.29 265.633C135.387 265.519 135.519 265.442 135.666 265.414C136.246 265.288 136.839 265.227 137.432 265.232C138.989 265.232 140.666 265.587 142.247 265.971L143.356 266.244C145.15 266.683 147.481 267.333 149.598 268.468C150.346 268.87 151.052 269.345 151.706 269.886C152.382 270.439 152.98 271.08 153.484 271.793C153.954 271.354 154.58 271.119 155.224 271.138C155.651 271.146 156.075 271.209 156.485 271.326L157.082 271.491C157.717 271.696 158.378 271.813 159.045 271.839C159.306 271.839 159.568 271.813 159.825 271.762C159.948 271.095 160.081 270.378 160.222 269.674C161.618 262.676 163.138 255.798 164.738 249.232C166.149 243.442 167.7 237.571 169.346 231.783C170.976 226.055 172.745 220.248 174.606 214.518L174.979 213.374C175.171 212.79 175.357 212.182 175.538 211.594L175.54 211.588C176.178 209.512 176.837 207.364 177.91 205.497C178.532 204.412 179.387 203.479 180.413 202.764C181.447 202.061 182.594 201.538 183.803 201.218C185.94 200.662 188.103 200.213 190.284 199.874L190.294 199.872C191.012 199.748 191.755 199.62 192.479 199.486C192.863 199.415 193.263 199.344 193.616 199.281C193.876 199.234 194.145 199.186 194.41 199.138C194.024 198.409 193.681 197.658 193.383 196.889C193.282 196.642 193.188 196.411 193.094 196.193L193.03 196.046C192.174 194.097 191.42 192.117 190.858 190.609L190.348 189.234C189.174 186.074 187.88 182.723 186.118 179.568C185.225 177.968 184.157 176.472 182.935 175.106C181.71 173.745 180.346 172.515 178.865 171.436C175.999 169.336 172.805 167.689 169.717 166.098C167.955 165.189 166.132 164.249 164.39 163.235C162.634 162.232 160.956 161.097 159.373 159.839C159.336 159.812 159.308 159.775 159.295 159.731C159.281 159.688 159.282 159.641 159.297 159.598C159.319 159.542 159.358 159.493 159.407 159.459C159.457 159.424 159.516 159.405 159.576 159.404C159.616 159.404 159.654 159.413 159.689 159.431C162.499 160.841 165.511 161.952 168.424 163.026H168.425C169.679 163.488 170.973 163.966 172.232 164.46L173.057 164.784C176.288 166.063 179.683 167.489 182.579 169.633C184.15 170.794 185.586 172.124 186.862 173.601C188.134 175.082 189.243 176.695 190.169 178.413C191.686 181.216 192.768 184.32 193.814 187.322V187.325C194.048 187.997 194.29 188.692 194.532 189.369L194.883 190.347C195.388 191.745 195.944 193.24 196.587 194.703C196.787 195.159 197.053 195.635 197.335 196.138C197.773 196.864 198.142 197.63 198.435 198.425L198.665 198.385L198.675 198.383C199.731 198.201 200.824 198.011 201.899 197.832C208.125 196.794 214.459 195.85 220.723 195.026C226.983 194.202 233.344 193.476 239.631 192.866C245.918 192.257 252.298 191.749 258.601 191.355C264.904 190.961 271.301 190.671 277.614 190.493H277.657C277.843 190.489 278.028 190.527 278.197 190.604C278.367 190.681 278.517 190.795 278.636 190.938C278.785 191.123 278.892 191.339 278.951 191.569C279.009 191.8 279.017 192.04 278.974 192.274C277.602 200.372 276.296 208.607 275.034 216.571L275.031 216.588C274.051 222.77 273.038 229.162 272.001 235.441C270.943 241.85 269.875 248.181 268.826 254.257C268.591 255.616 268.338 256.991 268.093 258.321C267.763 260.108 267.423 261.955 267.125 263.777C267.036 264.326 266.95 264.885 266.867 265.425L266.864 265.445C266.597 267.467 266.203 269.47 265.683 271.443C264.938 274.041 263.872 276.048 262.422 277.578C261.55 278.479 260.509 279.199 259.358 279.697C258.207 280.194 256.999 280.547 255.761 280.746C251.427 281.491 246.948 281.937 242.616 282.368C240.705 282.558 238.73 282.754 236.796 282.974L203.245 286.783C203.483 288.942 203.62 291.115 203.663 293.428C203.703 295.539 203.665 297.725 203.545 300.111L203.417 302.568C203.317 304.457 203.194 306.469 202.903 308.478C202.729 309.667 202.364 310.82 201.822 311.892C201.271 312.962 200.58 313.953 199.766 314.84C198.302 316.461 196.56 317.835 194.601 319.335C192.896 320.641 190.886 322.11 188.616 323.025L188.331 323.138C187.295 323.543 186.235 323.886 185.158 324.167C183.929 324.504 182.662 324.688 181.387 324.716C180.979 324.718 180.571 324.687 180.168 324.625C180.234 324.957 180.314 325.3 180.391 325.632C180.721 327.052 181.063 328.521 180.586 329.893C180.498 330.142 180.336 330.358 180.122 330.512C179.919 330.66 179.674 330.742 179.422 330.746V330.746ZM201.623 286.967L198.108 287.366C193.985 287.834 189.927 288.278 186.502 288.65L178.097 289.562C178.086 289.798 178.067 290.028 178.048 290.249V290.251C178.03 290.473 178.012 290.686 178.007 290.869C177.951 292.803 177.907 294.767 177.872 296.457C177.795 300.17 177.88 303.936 178.126 307.654C178.403 311.845 178.734 315.279 179.167 318.462L179.267 319.179L179.325 319.556C179.543 319.58 179.754 319.646 179.945 319.752C180.137 319.858 180.305 320 180.441 320.172C180.647 320.417 181.029 320.542 181.576 320.542C182.547 320.542 183.828 320.159 184.732 319.838C186.414 319.241 188.025 318.202 189.378 317.264C190.765 316.28 192.064 315.177 193.258 313.967L194.252 312.987C195.222 312.024 196.22 310.98 196.834 309.73C197.511 308.352 197.7 306.73 197.883 305.163C197.92 304.84 197.959 304.506 198.002 304.186C198.261 302.226 198.587 300.095 199.024 297.479L201.623 286.967L201.623 286.967ZM7.16374 266.759L7.14842 270.403C7.13003 275.361 7.13421 280.641 7.40219 285.884L7.45233 286.84C7.75289 292.452 8.2192 298.389 10.2825 303.862C11.1173 306.08 12.1926 308.201 13.4893 310.186C14.7816 312.173 16.3117 313.996 18.0456 315.614C18.8924 316.414 19.818 317.127 20.8084 317.742C21.801 318.353 22.8771 318.818 24.0032 319.121C25.5349 319.515 27.112 319.704 28.6935 319.685C29.3181 319.685 29.9568 319.661 30.646 319.613C39.8718 318.971 48.223 314.549 56.3012 310.271H56.3026C57.5247 309.625 58.7885 308.956 60.0242 308.317C74.4978 300.838 89.9263 292.868 105.433 284.893C105.019 284.612 104.635 284.289 104.287 283.93C102.583 282.173 101.373 279.716 100.481 276.195C99.7175 273.195 99.2984 270.118 99.2316 267.024L99.5711 263.461L99.2065 263.557C95.4351 264.558 91.6097 265.581 87.9101 266.57C78.5926 269.063 68.9578 271.641 59.4484 274.044C55.6586 275.002 51.7961 275.935 48.0609 276.837C45.314 277.501 42.4736 278.187 39.6838 278.878L38.618 279.144C33.514 280.431 28.1958 282.005 24.1918 285.791C24.1636 285.819 24.1257 285.835 24.0859 285.835C24.0542 285.834 24.0234 285.824 23.9972 285.806C23.971 285.788 23.9505 285.763 23.938 285.734C23.9258 285.707 23.9224 285.676 23.9281 285.647C23.9339 285.617 23.9485 285.59 23.97 285.569C25.9063 283.512 28.3693 281.825 31.5 280.411C34.336 279.132 37.3556 278.229 40.2053 277.416C40.8008 277.246 41.407 277.075 41.9931 276.91L42.0181 276.903C42.436 276.785 42.9566 276.639 43.4527 276.498C34.5945 273.346 26.6408 271.039 19.1345 269.444C18.0788 269.219 16.9988 269.021 15.9548 268.83H15.9534C14.8918 268.635 13.794 268.434 12.7221 268.205C11.7661 268.001 10.8095 267.734 9.88442 267.476C9.37327 267.333 8.84484 267.186 8.3192 267.049L7.16374 266.759ZM275.938 193.358C269.29 193.558 262.587 193.879 256.016 194.311C249.379 194.747 242.692 195.308 236.141 195.979C223.894 197.234 211.53 198.926 199.392 201.011C196.859 201.446 194.293 201.905 191.764 202.376L190.241 202.662C189.673 202.769 189.089 202.861 188.47 202.958C187.412 203.125 186.32 203.295 185.27 203.556C184.241 203.79 183.253 204.174 182.337 204.696C181.339 205.326 180.543 206.23 180.044 207.298C179.536 208.376 179.121 209.495 178.804 210.643C178.71 210.949 178.614 211.263 178.515 211.568C177.588 214.446 176.671 217.374 175.789 220.273C172.233 231.97 169.009 243.722 166.207 255.201C165.207 259.3 164.27 263.483 163.366 267.529V267.531V267.535C162.985 269.234 162.592 270.991 162.199 272.719C161.159 277.296 159.938 282.209 158.357 288.181C158.54 288.041 158.752 287.945 158.978 287.899C164.562 286.713 170.333 286.072 175.915 285.451C177.083 285.321 178.29 285.187 179.483 285.049L180.146 284.972C186.88 284.181 194.118 283.337 201.426 282.517L248.407 277.243C249.192 277.155 250.007 277.088 250.795 277.021C252.818 276.854 254.909 276.679 256.843 276.147C258.886 275.584 260.406 274.22 261.488 271.976C262.395 270.094 262.849 267.931 263.27 265.696L263.294 265.572C264.681 258.209 265.919 250.684 267.116 243.407V243.402C267.92 238.519 268.751 233.469 269.621 228.506L275.938 193.358ZM156.622 287.559H156.629C157.008 287.55 157.38 287.661 157.693 287.874L159.448 273.872C158.557 273.813 157.513 273.388 156.503 272.977C155.517 272.576 154.587 272.199 153.891 272.199C153.841 272.199 153.791 272.201 153.744 272.205C154.55 273.555 154.764 274.929 154.38 276.292C153.927 277.895 152.804 278.708 151.043 278.708C150.015 278.677 148.999 278.482 148.033 278.13C147.134 277.819 146.257 277.449 145.408 277.021C144.942 276.789 144.474 276.543 144.021 276.305C142.439 275.474 140.803 274.614 139.013 274.239C138.554 274.14 138.085 274.09 137.615 274.088C135.806 274.088 134.356 274.876 132.675 275.788L132.43 275.921C130.614 276.909 128.652 277.601 126.618 277.971C125.936 278.092 125.246 278.152 124.554 278.15C124.21 278.15 123.863 278.137 123.492 278.109C123.427 278.163 123.357 278.209 123.282 278.248L122.741 278.532C125.192 278.643 127.723 279.41 129.956 280.087C132.41 280.83 134.845 281.745 136.934 282.544L139.2 283.413C141.981 284.519 144.819 285.477 147.702 286.284C150.581 287.095 153.554 287.524 156.545 287.56L156.622 287.559ZM94.1735 137.694C93.6472 137.997 93.1678 138.375 92.7504 138.815C91.4116 140.233 90.4472 141.99 89.5149 143.689L89.4592 143.79C89.2269 144.214 88.9976 144.64 88.7762 145.053L88.7731 145.059C88.5021 145.563 88.2218 146.085 87.9394 146.594C87.6948 147.035 87.4433 147.469 87.2513 147.798C87.1507 147.951 87.0415 148.097 86.9243 148.237V148.237C86.8302 148.355 86.7327 148.478 86.6658 148.573C86.8296 148.801 87.0079 149.04 87.2109 149.302C87.2254 149.321 87.4338 149.55 87.7803 149.931L87.7945 149.946C89.2113 151.503 92.53 155.146 93.886 156.803C95.2128 158.423 96.4594 160.082 97.5909 161.733C98.7661 163.448 99.8572 165.211 100.834 166.976C101.992 169.069 103.004 171.272 103.982 173.402C104.655 174.869 105.351 176.384 106.09 177.854C106.966 179.686 108.043 181.415 109.301 183.01C109.33 183.046 109.362 183.081 109.392 183.116L109.394 183.118L109.397 183.122C109.417 183.144 109.436 183.166 109.455 183.188C109.855 182.109 110.761 180.97 111.423 180.139C111.572 179.951 111.714 179.774 111.83 179.62L111.888 179.543C113.149 177.847 114.55 176.089 116.297 174.01C117.645 172.409 119.079 170.779 120.559 169.166L121.107 168.572C121.291 168.374 121.481 168.161 121.681 167.937C122.57 166.941 123.677 165.702 124.894 165.061C124.729 164.769 124.544 164.488 124.339 164.222C122.905 162.351 120.853 161.011 119.041 159.902L117.783 159.138C114.046 156.867 112.08 155.54 110.783 154.638C108.496 153.066 106.314 151.345 104.252 149.488C102.283 147.696 100.012 145.537 98.0937 143.113L97.4458 142.295L94.1735 137.694ZM102.088 136.264C101.568 136.308 101.027 136.34 100.504 136.37C98.775 136.471 96.9872 136.576 95.4156 137.129C96.5 138.152 97.5686 139.24 98.6018 140.292C99.3054 141.008 100.033 141.749 100.757 142.46C100.9 141.528 101.092 140.604 101.334 139.692C101.394 139.45 101.456 139.199 101.514 138.952L102.088 136.264ZM101.517 316.968C101.325 316.958 101.138 316.901 100.974 316.8C100.809 316.699 100.673 316.559 100.577 316.392C100.474 316.232 100.416 316.047 100.407 315.856C100.399 315.666 100.441 315.477 100.529 315.308C103.208 310.207 106.366 305.361 109.379 300.886L109.791 300.274C111.209 298.167 112.676 295.989 114.133 293.854C114.92 292.702 115.565 291.78 116.165 290.952L116.583 290.38L118.844 287.91C118.874 287.894 118.907 287.885 118.941 287.885C118.993 287.886 119.043 287.906 119.079 287.943C119.116 287.979 119.137 288.028 119.139 288.08C119.178 289.071 118.721 290.033 118.279 290.964C118.212 291.105 118.137 291.264 118.068 291.414L118.018 291.525C117.496 292.683 116.883 293.929 116.145 295.335C114.8 297.895 113.419 300.388 112.042 302.746C108.849 308.213 105.64 312.751 102.231 316.62C102.145 316.727 102.036 316.813 101.913 316.873C101.79 316.933 101.655 316.966 101.517 316.969V316.968ZM158.691 267.478C157.503 267.478 156.36 266.871 155.093 265.567L154.242 264.679C153.696 264.072 153.07 263.542 152.382 263.102C151.644 262.665 150.799 262.443 149.942 262.46C149.867 262.46 149.791 262.461 149.714 262.464C148.264 262.548 146.821 262.718 145.393 262.975H145.391C144.575 263.105 143.731 263.24 142.903 263.337C140.444 263.627 137.859 263.89 135.219 264.118H135.21C135.186 264.118 135.164 264.108 135.147 264.092C135.13 264.076 135.12 264.053 135.119 264.03C135.114 264.005 135.119 263.979 135.133 263.958C135.146 263.936 135.167 263.92 135.192 263.913L138.067 263.199L149.243 260.949C149.625 260.901 150.009 260.877 150.394 260.875C151.756 260.834 153.088 261.281 154.148 262.136C154.666 262.579 155.152 263.057 155.603 263.568C156.125 264.168 156.703 264.718 157.33 265.208C157.972 265.696 158.742 265.986 159.547 266.042C159.707 266.05 159.859 266.115 159.975 266.225C160.092 266.335 160.165 266.483 160.181 266.642C160.202 266.792 160.166 266.944 160.081 267.07C159.996 267.195 159.868 267.285 159.721 267.322C159.387 267.423 159.04 267.475 158.691 267.478V267.478ZM160.913 260.497C160.879 260.497 160.846 260.493 160.813 260.485C159.922 260.259 159.072 259.9 158.29 259.42C157.51 258.939 156.756 258.419 156.029 257.863C155.469 257.449 154.891 257.022 154.299 256.636C152.983 255.778 151.551 255.395 149.658 255.395C148.76 255.395 147.848 255.476 146.885 255.562L146.715 255.577C143.95 255.823 141.296 256.158 138.827 256.572C137.975 256.715 137.109 256.89 136.271 257.058C134.674 257.412 133.057 257.673 131.43 257.842V257.837C131.358 257.834 131.29 257.806 131.236 257.76C131.182 257.714 131.145 257.651 131.13 257.581C131.113 257.52 131.118 257.456 131.145 257.398C131.171 257.341 131.217 257.295 131.274 257.268C133.736 256.041 136.546 255.453 139.263 254.885L139.442 254.848L147.504 253.596L147.801 253.567C148.734 253.476 149.447 253.436 150.113 253.436C150.973 253.426 151.832 253.517 152.672 253.704C153.545 253.906 154.381 254.245 155.148 254.709L155.596 254.979C157.667 256.236 159.988 257.751 161.314 259.833C161.354 259.894 161.376 259.965 161.379 260.038C161.381 260.111 161.363 260.184 161.327 260.247C161.286 260.322 161.226 260.384 161.154 260.428C161.081 260.471 160.998 260.495 160.913 260.497V260.497ZM227.671 249.101C226.022 249.131 224.377 248.936 222.782 248.522C222.016 248.313 221.281 248.006 220.594 247.609C219.925 247.221 219.332 246.715 218.844 246.115C218.056 245.131 217.768 244.142 217.986 243.176C218.217 242.332 218.702 241.579 219.374 241.019C220.1 240.38 220.913 239.847 221.789 239.436C221.442 239.129 221.183 238.737 221.037 238.298C220.893 237.846 220.903 237.359 221.066 236.914C221.452 235.82 222.473 235.154 223.46 234.511C224.003 234.184 224.512 233.804 224.98 233.377C225.714 232.666 226.295 231.813 226.69 230.871C227.084 229.932 227.198 228.898 227.018 227.896L226.995 227.785C226.957 227.628 226.954 227.464 226.988 227.305C227.022 227.147 227.091 226.998 227.19 226.871C227.29 226.751 227.416 226.655 227.558 226.589C227.699 226.523 227.854 226.489 228.01 226.49C228.19 226.492 228.366 226.537 228.525 226.621C228.684 226.706 228.82 226.827 228.921 226.975L229.068 227.177C229.227 227.395 229.392 227.616 229.566 227.849L229.571 227.856C230.341 228.839 231.038 229.877 231.659 230.96C232.338 232.22 232.646 233.333 232.603 234.362C233.272 234.384 233.923 234.58 234.492 234.932C235.059 235.266 235.509 235.767 235.781 236.365C236.018 236.956 236.108 237.595 236.045 238.228C237.272 238.323 238.573 239.141 239.262 239.86C239.835 240.449 240.187 241.217 240.257 242.035C240.318 242.853 240.123 243.669 239.698 244.371C237.596 247.942 232.85 248.808 230.208 249.005L230.084 249.014C229.21 249.072 228.42 249.101 227.671 249.101L227.671 249.101ZM222.619 239.988C221.923 240.697 221.246 241.434 220.591 242.144C220.355 242.368 220.171 242.641 220.054 242.944C219.936 243.247 219.887 243.572 219.91 243.896C219.987 244.563 220.435 245.197 221.207 245.726C222.114 246.315 223.133 246.709 224.201 246.882C225.31 247.078 226.435 247.169 227.561 247.154H227.562C228.256 247.154 228.931 247.128 229.441 247.107C230.779 247.064 232.106 246.86 233.394 246.499C234.685 246.142 235.885 245.518 236.917 244.667L237.006 244.59C237.385 244.259 237.712 243.874 237.977 243.447C238.233 243.068 238.357 242.616 238.332 242.159C238.293 241.903 238.19 241.66 238.032 241.453C237.875 241.246 237.669 241.082 237.432 240.974C237.015 240.767 236.565 240.634 236.102 240.584C235.868 240.55 235.637 240.503 235.409 240.442C234.756 241.72 233.76 242.547 232.679 242.712C232.627 242.72 232.574 242.724 232.521 242.724C232.309 242.724 232.103 242.657 231.933 242.532C231.763 242.407 231.637 242.231 231.574 242.029C231.521 241.855 231.528 241.669 231.595 241.499C231.661 241.33 231.783 241.188 231.941 241.097L232.136 240.977C232.687 240.637 233.165 240.192 233.541 239.665C233.924 239.132 234.126 238.491 234.118 237.835C234.087 237.433 233.914 237.055 233.63 236.769C233.501 236.616 233.342 236.491 233.163 236.401C232.984 236.311 232.789 236.258 232.589 236.245C232.455 236.246 232.323 236.274 232.2 236.329C232.078 236.384 231.969 236.463 231.879 236.562L231.839 236.606C231.761 236.699 231.664 236.774 231.555 236.826C231.445 236.879 231.325 236.906 231.204 236.907C231.026 236.901 230.854 236.849 230.701 236.758C230.549 236.667 230.422 236.539 230.333 236.386C230.247 236.251 230.199 236.096 230.192 235.937C230.185 235.777 230.221 235.619 230.296 235.478L230.319 235.436L228.971 230.394C228.769 231.258 228.43 232.084 227.968 232.841C227.495 233.616 226.915 234.32 226.244 234.933C225.725 235.409 225.159 235.833 224.556 236.198L224.483 236.24C224.404 236.284 224.304 236.336 224.206 236.387C223.586 236.711 222.648 237.199 222.735 237.774C222.8 238.205 223.62 238.719 223.97 238.92C224.603 239.283 225.274 239.547 225.565 239.547C225.599 239.549 225.632 239.563 225.657 239.586C225.683 239.609 225.7 239.64 225.706 239.673C225.713 239.701 225.71 239.731 225.698 239.757C225.685 239.782 225.664 239.803 225.637 239.815C225.079 240.092 224.467 240.249 223.844 240.274C223.419 240.273 223 240.175 222.619 239.988V239.988ZM65.3633 225.215C65.1661 225.228 64.9712 225.166 64.8182 225.041C64.6652 224.916 64.5654 224.738 64.539 224.543C64.0357 221.309 63.5362 218.025 63.0504 214.849V214.845C62.4777 211.092 61.8855 207.208 61.2869 203.392C60.861 200.677 60.3735 197.925 59.9022 195.263V195.259C59.759 194.452 59.6111 193.616 59.4654 192.784L57.9032 182.579C57.9026 182.553 57.9073 182.527 57.9168 182.503C57.9264 182.48 57.9407 182.458 57.9589 182.44C58.0015 182.398 58.0588 182.374 58.1185 182.374C58.154 182.373 58.189 182.382 58.2198 182.4C58.2505 182.418 58.2759 182.443 58.2932 182.474C59.8155 185.147 60.674 188.309 61.5044 191.365C61.5989 191.713 61.6961 192.071 61.7927 192.422C62.6379 195.492 63.4022 198.812 64.1981 202.869C64.8981 206.435 65.436 210.022 65.797 213.53C66.1636 217.093 66.3622 220.714 66.3873 224.294C66.3889 224.407 66.3675 224.52 66.3245 224.625C66.2814 224.73 66.2175 224.825 66.1366 224.905C65.9292 225.105 65.6517 225.217 65.3633 225.215V225.215ZM76.8305 215.071C76.6576 215.069 76.4871 215.03 76.3306 214.956C76.1742 214.883 76.0353 214.777 75.9235 214.645C75.8193 214.521 75.7451 214.374 75.7064 214.216C75.6678 214.058 75.6658 213.893 75.7006 213.735L74.7569 187.784C74.7402 187.74 74.7347 187.692 74.7408 187.645C74.7469 187.598 74.7645 187.553 74.792 187.514C74.8237 187.474 74.8643 187.443 74.9105 187.421C74.9567 187.4 75.0073 187.389 75.0583 187.391C75.1291 187.389 75.1986 187.41 75.2574 187.449C75.3162 187.489 75.3613 187.545 75.3867 187.611C76.2445 189.713 76.9535 191.871 77.5085 194.071C78.0649 196.277 78.4567 198.52 78.6806 200.784C79.1497 205.309 78.8407 209.88 77.767 214.301C77.7276 214.519 77.6118 214.717 77.4402 214.857C77.2687 214.998 77.0526 215.074 76.8305 215.07V215.071ZM128.993 191.232C128.911 191.234 128.831 191.217 128.757 191.183C128.683 191.148 128.619 191.097 128.569 191.033C128.435 190.855 128.311 190.67 128.198 190.477C128.006 190.106 127.737 189.78 127.409 189.519C126.878 189.144 126.214 189.01 125.571 188.882C125.286 188.825 124.992 188.765 124.718 188.687C123.588 188.373 122.562 187.763 121.746 186.92L118.829 180.349C118.826 180.314 118.83 180.279 118.841 180.245C118.852 180.212 118.87 180.182 118.893 180.156C118.92 180.129 118.953 180.108 118.988 180.094C119.024 180.08 119.062 180.073 119.1 180.074C119.151 180.073 119.202 180.084 119.248 180.107C119.294 180.129 119.334 180.162 119.364 180.203C119.84 180.904 120.27 181.635 120.652 182.39C121.086 183.269 121.597 184.107 122.178 184.895C122.779 185.691 123.578 186.315 124.497 186.705C125.042 186.912 125.605 187.07 126.178 187.178C127.07 187.372 127.991 187.571 128.764 188.183C129.188 188.503 129.524 188.926 129.739 189.413C129.842 189.651 129.885 189.912 129.863 190.171C129.842 190.431 129.756 190.681 129.614 190.899C129.545 191 129.452 191.083 129.344 191.141C129.236 191.199 129.115 191.23 128.993 191.232V191.232ZM133.91 186.229C133.811 186.231 133.712 186.212 133.621 186.175C133.529 186.138 133.445 186.083 133.375 186.013C132.612 185.207 132.449 184.006 132.89 182.44C133.284 181.201 133.83 180.016 134.515 178.911C135.746 176.821 137.429 175.373 139.21 173.839C139.547 173.548 139.896 173.248 140.244 172.941C142.591 170.869 144.095 168.032 145.422 165.528C145.812 164.795 146.2 164.042 146.577 163.313L146.585 163.298L146.589 163.291C147.05 162.398 147.527 161.475 148.009 160.575C147.224 159.882 146.889 158.588 146.62 157.549C146.572 157.365 146.527 157.191 146.48 157.024L146.453 156.923C145.93 155.121 145.534 153.285 145.268 151.428C145.015 149.664 144.919 147.881 144.981 146.1L145 145.644L145.878 142.372C145.927 142.346 145.981 142.332 146.036 142.331C146.091 142.333 146.145 142.348 146.193 142.375C146.24 142.402 146.281 142.44 146.312 142.485C146.349 142.522 146.377 142.567 146.395 142.616C146.412 142.666 146.419 142.718 146.414 142.77C146.409 142.823 146.392 142.873 146.366 142.918C146.339 142.963 146.302 143.001 146.259 143.031C146.505 143.671 146.7 144.328 146.844 144.999C147.007 145.718 147.184 146.453 147.385 147.244C147.575 147.993 147.757 148.758 147.933 149.496L147.935 149.506L147.936 149.512C148.113 150.255 148.295 151.022 148.486 151.774C148.872 153.288 149.352 154.881 149.915 156.508C149.947 156.602 149.984 156.703 150.028 156.817L150.089 156.974L150.104 156.951C150.118 156.926 150.138 156.905 150.162 156.891C150.186 156.876 150.214 156.868 150.242 156.867C150.267 156.868 150.291 156.873 150.313 156.884C150.336 156.895 150.355 156.91 150.371 156.929C150.389 156.95 150.402 156.974 150.41 157C150.417 157.026 150.419 157.054 150.415 157.081C150.399 157.182 150.381 157.284 150.362 157.383V157.386V157.393C150.351 157.454 150.34 157.517 150.329 157.579L150.385 157.728C150.739 158.678 150.977 159.672 150.332 160.505C150.137 160.793 149.835 160.992 149.493 161.058C148.953 162.797 148.315 164.504 147.58 166.171L147.371 166.652C146.364 168.96 145.238 171.386 143.529 173.478C142.724 174.416 141.851 175.293 140.916 176.103C139.732 177.181 138.507 178.295 137.601 179.69C136.885 180.818 136.323 182.037 135.93 183.314L135.773 183.802C135.473 184.724 135.132 185.596 134.279 186.128C134.168 186.196 134.04 186.231 133.91 186.229ZM148.342 183.745C147.979 183.75 147.627 183.629 147.344 183.403L145.432 181.818C145.11 181.551 144.79 181.283 144.478 181.022C144.188 180.778 143.923 180.552 143.67 180.331L143.271 179.98C143.226 179.939 143.142 179.853 143.036 179.743C142.725 179.424 142.256 178.942 142.086 178.915C142.07 178.913 142.053 178.911 142.036 178.911C141.527 178.911 140.509 179.971 139.962 180.541L139.96 180.542C139.887 180.618 139.824 180.684 139.772 180.737L139.715 180.793C138.875 181.62 138.099 182.51 137.393 183.455C137.377 183.479 137.355 183.498 137.33 183.512C137.305 183.525 137.277 183.532 137.248 183.533C137.219 183.533 137.192 183.526 137.167 183.512C137.142 183.499 137.12 183.479 137.105 183.455C137.089 183.43 137.081 183.4 137.08 183.37C137.079 183.34 137.086 183.311 137.1 183.284C137.729 181.92 138.486 180.619 139.36 179.397L139.538 179.154C139.638 179.02 139.743 178.869 139.854 178.709L139.859 178.702C140.406 177.914 141.088 176.934 141.944 176.742C142.067 176.714 142.191 176.701 142.317 176.701C143.256 176.701 144.187 177.456 144.935 178.063C145.094 178.192 145.244 178.313 145.387 178.423L145.445 178.467C145.921 178.823 146.39 179.186 146.745 179.462C146.709 178.277 146.797 177.092 147.01 175.925C147.218 174.765 147.632 173.65 148.231 172.634C148.862 171.669 149.606 170.783 150.447 169.993C150.8 169.633 151.166 169.261 151.509 168.878C152.156 168.108 152.723 167.273 153.202 166.388C153.593 165.683 154.031 165.004 154.513 164.357C154.65 164.182 154.85 164.069 155.07 164.04C155.104 163.139 155.216 162.222 155.324 161.335L155.326 161.322C155.356 161.074 155.387 160.818 155.416 160.568L155.455 160.225C155.474 160.046 155.496 159.866 155.52 159.674C155.659 158.559 155.816 157.294 155.293 156.296C154.832 155.417 153.879 154.732 153.037 154.127C152.818 153.97 152.611 153.822 152.414 153.672L151.614 153.052L149.304 150.849C149.27 150.805 149.248 150.751 149.244 150.695C149.239 150.639 149.25 150.583 149.277 150.533C149.313 150.466 149.367 150.41 149.432 150.37C149.497 150.33 149.572 150.308 149.648 150.306C149.672 150.306 149.695 150.309 149.718 150.313C151.166 150.612 152.566 151.39 153.919 152.143C154.132 152.261 154.372 152.395 154.602 152.52L154.765 152.608C155.923 153.232 157.195 154.043 157.845 155.338C158.522 156.686 158.489 158.226 158.388 159.817L158.379 159.958C158.354 160.343 158.333 160.74 158.313 161.122V161.13C158.276 162.564 158.125 163.993 157.862 165.403C157.807 165.711 157.639 165.987 157.391 166.178C157.165 166.341 156.892 166.427 156.613 166.421C156.453 166.421 156.295 166.397 156.142 166.35C155.524 168.297 154.076 169.871 152.676 171.392C152.191 171.92 151.689 172.465 151.241 173.008C150.319 174.125 149.779 175.508 149.589 177.238C149.421 178.762 149.539 180.346 149.653 181.878C149.667 182.063 149.68 182.248 149.694 182.432C149.71 182.593 149.693 182.756 149.642 182.91C149.592 183.064 149.509 183.205 149.4 183.325C149.262 183.463 149.096 183.572 148.914 183.644C148.732 183.716 148.538 183.751 148.342 183.745V183.745Z" fill="black"/>
<path d="M164.187 48.1615C163.111 41.6669 166.641 40.3192 164.187 34.1455C158.732 22.706 143.867 23.199 132.958 22.3196C120.791 21.8533 108.477 23.4573 97.2605 28.3246C94.585 29.4878 92.002 30.8527 89.5341 32.4075C87.3981 33.7507 87.6904 36.3047 89.0386 37.6979C79.3266 51.425 84.8814 69.8509 77.133 84.2998C75.7015 86.8828 73.8081 89.1988 72.5646 91.8863C70.6732 95.9714 70.552 101.825 74.8413 104.537C80.8824 107.773 84.2535 101.365 87.2218 110.654C102.044 143.044 131.85 144.868 160.143 127.982C162.591 126.623 165.09 125.087 166.938 122.951C171.134 118.238 170.64 111.611 170.733 105.725C170.785 102.276 170.794 98.8263 170.761 95.3765C170.629 81.403 165.989 62.0195 164.187 48.1615Z" fill="#D08B5B"/>
<path d="M126.884 139.431C125.254 139.451 123.629 139.246 122.055 138.822C120.234 138.313 118.643 137.445 117.575 136.375C116.989 135.806 116.539 135.112 116.259 134.346C115.976 133.52 115.92 132.634 116.099 131.779C116.154 131.467 116.33 131.189 116.589 131.005C116.838 130.836 117.134 130.748 117.435 130.752C117.694 130.746 117.95 130.805 118.179 130.925C118.409 131.044 118.605 131.22 118.748 131.435L118.889 131.661C119.551 132.708 120.369 133.878 121.712 134.507C122.472 134.854 123.276 135.095 124.101 135.226C124.926 135.359 125.76 135.427 126.595 135.43C126.698 135.43 126.801 135.432 126.903 135.432C131.371 135.432 136.002 134.329 140.361 133.2C144.569 132.126 148.679 130.698 152.646 128.932C156.62 127.178 160.369 124.954 163.813 122.31C165.241 121.22 166.51 119.937 167.581 118.496C168.102 117.781 168.553 117.017 168.93 116.216C169.312 115.397 169.605 114.54 169.805 113.658C170.626 110.026 170.162 106.135 169.712 102.37C169.614 101.55 169.513 100.702 169.429 99.8835C168.611 91.8622 167.612 83.3457 166.189 72.2694L165.953 70.4313C165.871 69.802 165.79 69.1727 165.708 68.5434L165.706 68.5309C164.805 61.5945 163.873 54.4218 163.418 47.3294C163.209 47.0492 163.072 46.723 163.017 46.3785L162.939 45.8753C162.872 45.4821 162.861 45.0814 162.908 44.6853C162.911 43.2479 162.951 41.8808 163.03 40.5062C163.044 40.2559 163.055 40.0038 163.064 39.7585C161.706 40.0571 160.271 40.3179 158.674 40.5565C151.771 41.5918 144.8 42.1123 137.82 42.1135C134.36 42.1135 130.857 41.9839 127.408 41.7281C122.597 41.3703 117.524 40.755 111.901 39.8456C109.206 39.4107 106.571 38.9355 104.071 38.4331C102.539 38.1273 101.009 37.7267 99.5285 37.3391L99.5141 37.3352C99.1815 37.2482 98.8377 37.1581 98.4993 37.0708C97.5404 38.4626 96.8112 39.9987 96.3393 41.6208C95.8616 43.2367 95.666 44.9225 95.761 46.6046C95.8552 48.1994 96.3619 49.7561 96.8519 51.2614C97.2188 52.3141 97.5203 53.3884 97.7544 54.4782C97.9853 55.5717 98.0084 56.6988 97.8224 57.8007C97.6918 58.5883 97.3981 59.34 96.96 60.0079C96.522 60.6758 95.9492 61.2451 95.2783 61.6796C93.9908 62.5548 92.3506 63.0759 90.9147 63.4954L89.5971 63.8755C89.1406 63.9798 88.7074 64.1673 88.3191 64.4285C88.1324 64.5818 87.9782 64.7707 87.8657 64.9842C87.7531 65.1977 87.6844 65.4315 87.6636 65.6719C87.4408 67.1416 87.5683 68.7425 87.6915 70.2906C87.7441 70.9579 87.7937 71.5862 87.8177 72.209C87.8477 72.9717 87.8806 73.7413 87.9126 74.4856C87.9856 76.1799 88.0608 77.9332 88.1018 79.657C88.1099 79.9993 88.1196 80.3477 88.1296 80.6857V80.693C88.1553 81.6194 88.182 82.5769 88.1803 83.5173C88.2232 84.2577 88.0521 84.9949 87.6873 85.6412C87.9626 85.9886 88.2084 86.3584 88.4221 86.7466C88.433 86.766 88.4386 86.7878 88.4382 86.81C88.4378 86.8322 88.4315 86.8539 88.4199 86.8729C88.4077 86.8931 88.3907 86.91 88.3703 86.9219C88.3499 86.9339 88.3268 86.9405 88.3032 86.9412C88.2871 86.9411 88.2712 86.9377 88.2565 86.9312C88.2418 86.9246 88.2286 86.9152 88.2177 86.9034C87.9464 86.6217 87.6529 86.3622 87.3399 86.1274C87.1682 86.336 86.9849 86.5347 86.7909 86.7227L86.7745 86.7005C86.6103 86.8656 86.415 86.9968 86.1999 87.0863C85.9848 87.1758 85.754 87.2219 85.5209 87.2221C85.0459 87.2153 84.5893 87.0376 84.2351 86.7216L84.0195 86.535C83.4543 86.0407 83.0086 85.5919 82.8373 84.7V84.6981C82.8289 84.6541 82.8206 84.6099 82.8153 84.5666C82.7206 84.5632 82.622 84.5615 82.522 84.5615C81.0647 84.5624 79.6313 84.9313 78.3553 85.6339C76.284 86.7387 74.6527 88.5161 73.7312 90.6722C74.1004 91.1048 74.531 91.4813 75.0092 91.7896C75.0215 91.7969 75.0309 91.8082 75.0359 91.8215C75.041 91.8348 75.0414 91.8494 75.0371 91.863C75.0331 91.8767 75.0248 91.8887 75.0135 91.8974C75.0022 91.9061 74.9884 91.911 74.9741 91.9114C74.9633 91.9113 74.9526 91.9087 74.9429 91.9039C74.4533 91.675 73.9962 91.3824 73.5836 91.0336C73.2521 91.8972 73.0195 92.7954 72.89 93.7111C72.6291 95.4557 72.7614 97.2363 73.2772 98.9234C73.5365 99.7572 73.9233 100.546 74.424 101.262C74.9269 101.977 75.5661 102.587 76.3051 103.056C77.611 103.883 79.1237 104.326 80.6701 104.335H80.6921C81.4108 104.322 82.1251 104.219 82.8181 104.029C82.9342 104.001 83.0523 103.968 83.1666 103.937H83.1696C83.5466 103.817 83.938 103.747 84.3334 103.73C84.7692 103.728 85.1975 103.843 85.5733 104.063L85.4675 104.072C85.4128 104.073 85.3584 104.081 85.3059 104.096C85.4093 104.11 85.5138 104.113 85.6179 104.107C85.8671 104.112 86.1108 104.182 86.3255 104.308C86.5401 104.435 86.7185 104.615 86.8435 104.83C86.9674 105.049 87.0336 105.295 87.0361 105.546C87.0386 105.798 86.9772 106.045 86.8577 106.267L86.7906 106.418L86.7731 106.456L86.7552 106.494L86.7148 106.755L86.7101 106.782V106.789C86.7079 106.802 86.7056 106.817 86.7031 106.83L86.6875 106.883C86.6848 106.892 86.6817 106.9 86.6781 106.908L88.3494 109.452C90.3199 112.444 92.4473 115.608 94.8763 118.505C96.5457 120.516 98.3198 122.438 100.191 124.263C101.283 125.32 102.49 126.005 103.767 126.731C104.436 127.111 105.127 127.504 105.796 127.953C106.055 128.124 106.273 128.349 106.435 128.613C106.597 128.878 106.698 129.174 106.733 129.482C106.76 129.755 106.725 130.03 106.63 130.288C106.535 130.545 106.383 130.778 106.186 130.968C105.798 131.369 105.333 131.687 104.819 131.903C104.304 132.119 103.752 132.229 103.194 132.225C102.092 132.19 101.017 131.881 100.066 131.326C99.092 130.787 98.1969 130.118 97.4056 129.336C95.5432 127.504 93.7462 125.195 91.9125 122.279C90.5153 120.084 89.29 117.784 88.2475 115.401C87.7352 114.216 87.2834 113.006 86.894 111.775C86.504 110.54 86.1868 109.282 85.9441 108.01C85.5216 108.364 85.0318 108.63 84.5039 108.791C83.4377 109.136 82.3263 109.321 81.2058 109.342C81.079 109.346 80.9501 109.348 80.8225 109.348C78.8287 109.327 76.8646 108.864 75.0716 107.993C73.4168 107.207 71.977 106.033 70.8754 104.571C69.7986 103.134 69.0229 101.494 68.5946 99.7503C68.0411 97.5337 67.9607 95.2257 68.3584 92.976C68.7333 90.7405 69.6112 88.619 70.9261 86.7711C70.4661 85.347 70.0931 83.8963 69.8094 82.4271C69.7186 82.0022 69.6328 81.6019 69.5442 81.2104L69.3679 80.4464C68.7988 77.9649 68.3912 75.9097 68.0865 73.9784C67.7319 71.8154 67.5137 69.6322 67.4333 67.4419C67.2787 62.6116 67.977 58.3999 69.5676 54.5661C70.0063 53.4856 70.5211 52.4375 71.108 51.4296C71.2626 51.1671 71.4495 50.9041 71.6476 50.6255C72.0551 50.0525 72.4763 49.4603 72.6287 48.8383C72.9652 47.4818 71.671 46.0666 70.5289 44.8182C70.0051 44.2911 69.5373 43.7115 69.1328 43.0885C68.6034 42.1861 68.3196 41.1612 68.3096 40.1155C68.3161 39.4554 68.4679 38.8048 68.7545 38.2098C69.041 37.6148 69.4552 37.09 69.9676 36.6726C69.2786 35.4407 68.9315 34.0475 68.962 32.637C68.998 31.1909 69.4784 29.7908 70.3381 28.6263C71.54 27.0009 73.3206 25.8974 75.3131 25.5429C75.7733 25.4657 76.2393 25.4277 76.7059 25.4295C77.5846 25.4302 78.4591 25.5496 79.3057 25.7842C82.9419 22.4113 86.8356 19.3261 90.9517 16.5566C95.0669 13.7893 99.4049 11.3675 103.921 9.31598C110.797 6.21693 117.991 3.8753 125.376 2.33259C136.431 0.0121435 147.78 -0.581762 159.017 0.572079C168.226 1.4805 177.275 3.59428 185.931 6.85899L186.688 7.15093L187.065 7.29495C189.105 8.07345 191.215 8.87975 192.74 10.4506C193.204 10.9272 193.593 11.4721 193.892 12.0663C194.184 12.6467 194.385 13.2689 194.486 13.9108C194.698 15.2184 194.458 16.559 193.807 17.7129C193.272 18.6416 192.555 19.4524 191.698 20.0965C190.839 20.7475 189.885 21.2613 188.868 21.6193C189.59 22.2102 190.262 22.8603 190.876 23.5627C191.389 24.1313 191.682 24.8633 191.703 25.6277C191.708 25.9959 191.642 26.3617 191.508 26.7045C191.363 27.0679 191.149 27.3994 190.876 27.6802C189.773 28.8275 188.515 29.8157 187.139 30.6165C185.765 31.4193 184.286 32.0292 182.745 32.429C183.094 34.1704 182.89 35.9769 182.163 37.5976C181.731 38.572 181.091 39.44 180.287 40.1405C179.502 40.8099 178.606 41.3386 177.641 41.7031C175.933 42.3704 173.808 42.7071 171.324 42.7071C170.721 42.7071 170.086 42.6871 169.438 42.6473L169.299 42.6387L169.043 45.5664C168.996 46.2982 168.721 46.9971 168.257 47.5657C167.777 48.1195 167.11 48.4785 166.383 48.5747C166.327 48.5831 166.271 48.5886 166.216 48.5939C168.754 57.7565 170.291 67.3095 171.647 76.3087C172.288 80.5545 172.909 85.0514 173.662 90.8902L173.87 92.5125C174.022 93.705 174.186 94.9214 174.344 96.0975V96.1011C174.883 100.113 175.44 104.261 175.664 108.344C175.731 109.526 175.717 110.712 175.624 111.893C175.532 113.047 175.344 114.191 175.062 115.314C174.78 116.431 174.389 117.519 173.896 118.562C173.387 119.632 172.767 120.647 172.045 121.589C169.622 124.753 166.199 127.444 161.867 129.588C157.483 131.773 152.954 133.654 148.311 135.217C145.967 135.999 143.599 136.686 141.271 137.258C138.871 137.849 136.443 138.336 134.056 138.704L133.407 138.804C131.251 139.177 129.071 139.386 126.884 139.431V139.431ZM88.136 98.361C87.7428 98.3602 87.3609 98.2297 87.0497 97.9898C86.5711 97.6322 86.1368 97.2599 85.717 96.8999C84.683 96.0132 83.7064 95.1761 82.2529 94.7062C80.805 94.2279 79.293 93.9712 77.7681 93.9449C77.2471 93.9424 76.727 93.9851 76.2135 94.0725C76.2002 94.0748 76.1868 94.0759 76.1733 94.0759C76.1187 94.0749 76.0656 94.0579 76.0206 94.027C75.9755 93.9961 75.9406 93.9527 75.9201 93.9021C75.9053 93.8633 75.9034 93.8207 75.9146 93.7807C75.9257 93.7407 75.9495 93.7053 75.9822 93.6797C76.7999 92.9379 77.7343 92.3355 78.7481 91.8967C79.7521 91.4734 80.8318 91.2586 81.9217 91.2652C82.181 91.2652 82.4479 91.2769 82.7153 91.2994C84.137 91.4196 85.5298 91.7685 86.8399 92.3326C87.4984 92.619 88.1213 92.9809 88.696 93.4111C89.2544 93.8282 89.7424 94.3317 90.1414 94.9028C90.3464 95.2117 90.4604 95.5719 90.4702 95.9423C90.4801 96.3127 90.3854 96.6784 90.1971 96.9977C90.0045 97.3862 89.7124 97.7169 89.3505 97.9563C88.9885 98.1957 88.5695 98.3353 88.136 98.361Z" fill="black"/>
<path d="M141.677 107.268C141.493 107.268 141.306 107.261 141.123 107.248C139.668 107.146 138.268 106.651 137.073 105.816C135.887 104.971 134.97 103.803 134.432 102.452C134.001 101.339 133.805 100.15 133.855 98.959C133.911 97.9609 134.21 96.6235 135.324 95.9226C135.34 95.9131 135.359 95.9082 135.377 95.9084C135.391 95.908 135.405 95.9104 135.417 95.9157C135.43 95.9209 135.442 95.9288 135.451 95.9387C135.964 96.534 136.216 97.3061 136.46 98.0518C136.642 98.7112 136.915 99.3422 137.271 99.9266C137.66 100.508 138.153 101.013 138.725 101.417C139.295 101.824 139.959 102.079 140.655 102.159C140.771 102.171 140.888 102.177 141.004 102.177C142.032 102.177 142.846 101.717 143.183 100.946C143.366 100.596 143.407 100.188 143.296 99.8087L143.22 99.5029C142.963 98.46 142.828 97.64 143.443 96.5743C143.667 96.2014 143.973 95.8846 144.338 95.6482C144.699 95.3956 145.127 95.2538 145.568 95.2403C145.631 95.2403 145.693 95.2439 145.755 95.2512C146.397 95.3139 147.014 95.5347 147.55 95.8937C148.016 96.2205 148.394 96.657 148.651 97.1646C149.113 98.1407 149.29 99.2268 149.162 100.299C149.065 101.402 148.746 102.475 148.224 103.453C147.579 104.619 146.626 105.585 145.468 106.246C144.316 106.913 143.008 107.265 141.677 107.268ZM144.627 86.8103C143.439 86.7913 142.263 86.5549 141.16 86.1127C139.703 85.5287 138.332 84.7519 137.082 83.8031C136.792 83.5779 136.591 83.2581 136.513 82.8998C136.446 82.5607 136.474 82.2096 136.594 81.8855C136.731 81.5005 136.968 81.1588 137.28 80.8951C137.576 80.6343 137.955 80.4866 138.35 80.4781C138.645 80.4806 138.932 80.5687 139.178 80.7316C139.266 80.7997 139.359 80.8712 139.456 80.9463C140.264 81.5961 141.118 82.1882 142.009 82.7182C143.163 83.3735 144.164 83.6913 145.069 83.6913C145.513 83.6943 145.952 83.608 146.362 83.4377C146.817 83.2396 147.227 82.9498 147.566 82.5864C147.888 82.1703 148.117 81.6903 148.238 81.1785C148.359 80.6667 148.368 80.1351 148.266 79.6192C148.02 78.6223 147.505 77.712 146.776 76.9876C146.109 76.284 145.35 75.6728 144.52 75.1704C144.407 75.074 144.328 74.9442 144.294 74.7999C144.26 74.6556 144.273 74.5042 144.33 74.3677C144.394 74.1702 144.515 73.996 144.678 73.8672C144.869 73.7212 145.104 73.6438 145.344 73.6476C145.425 73.6479 145.505 73.6549 145.584 73.6687C146.523 73.8187 147.426 74.1441 148.244 74.628C148.946 75.0498 149.555 75.61 150.033 76.2745C150.922 77.5496 151.326 79.0988 151.175 80.6446C151.108 81.4362 150.911 82.2112 150.59 82.9384C150.272 83.6685 149.825 84.3359 149.272 84.9094C148.669 85.5269 147.946 86.0142 147.147 86.3412C146.348 86.6682 145.491 86.8279 144.627 86.8103V86.8103ZM121.628 77.7842C121.579 77.7842 121.531 77.7842 121.481 77.7823C120.276 77.7445 119.107 77.359 118.116 76.6723C117.126 75.991 116.334 75.0588 115.824 73.9715C115.332 72.9286 115.092 71.785 115.123 70.6326C115.161 69.484 115.377 68.3483 115.764 67.2659C115.775 67.2329 115.796 67.2042 115.824 67.1836C115.852 67.163 115.886 67.1514 115.921 67.1505C115.941 67.1503 115.96 67.1544 115.978 67.1623C115.996 67.1703 116.013 67.182 116.026 67.1966C116.861 68.1252 117.605 69.1322 118.247 70.2036L118.939 71.2879C119.205 71.7209 119.52 72.1226 119.876 72.4854C120.2 72.8447 120.654 73.0614 121.137 73.0879C121.167 73.0879 121.197 73.0879 121.226 73.0849L121.375 73.0704C121.409 73.0673 121.439 73.0657 121.464 73.0643C121.634 73.0543 121.634 73.0543 121.794 72.7721L121.819 72.7276C121.878 72.5888 121.909 72.4402 121.912 72.2897C121.918 72.2022 121.93 72.1152 121.947 72.0292L121.963 71.9602L121.954 71.9232C121.921 71.722 121.902 71.5187 121.896 71.3149L121.892 71.2434C121.878 70.9451 121.85 70.6343 121.821 70.3053C121.705 68.9986 121.573 67.5183 122.307 66.419C122.575 66.013 122.942 65.6818 123.373 65.4567C123.775 65.2481 124.221 65.139 124.673 65.1386C125.231 65.1352 125.777 65.3051 126.233 65.6249C126.726 65.978 127.087 66.4851 127.258 67.066C127.497 67.8342 127.387 68.5396 127.27 69.2855C127.186 69.7413 127.142 70.2036 127.139 70.6671C127.194 71.7573 127.07 72.849 126.772 73.8992C126.596 74.4563 126.337 74.9836 126.003 75.4634C125.679 75.9307 125.284 76.3453 124.833 76.6926C123.917 77.4026 122.789 77.7868 121.628 77.7842V77.7842ZM156.08 76.3009C155.953 76.3009 155.823 76.2959 155.695 76.2861C154.808 76.2167 153.953 75.9302 153.205 75.452C152.456 74.975 151.839 74.3179 151.411 73.5411C150.952 72.6702 150.636 71.7315 150.475 70.7608C150.339 69.9267 150.287 68.7609 150.813 67.9354C150.827 67.9123 150.846 67.8932 150.87 67.8799C150.893 67.8666 150.92 67.8596 150.947 67.8595C150.988 67.8601 151.028 67.8757 151.058 67.9034C151.63 68.4094 151.892 69.191 152.147 69.9467C152.271 70.3499 152.425 70.7434 152.606 71.1242C153.3 72.4715 154.175 73.2217 155.207 73.3543C155.315 73.3685 155.424 73.3758 155.533 73.3762C155.702 73.3917 155.873 73.3671 156.031 73.3043C156.189 73.2415 156.329 73.1423 156.442 73.0148C156.659 72.7315 156.695 72.2869 156.546 71.7286C156.372 71.1463 156.137 70.5839 155.845 70.0504C155.425 69.3291 155.15 68.5331 155.035 67.7068C155 67.4304 155.025 67.1496 155.107 66.8834C155.19 66.6172 155.328 66.3716 155.513 66.1632C155.783 65.9035 156.105 65.7046 156.458 65.5801C156.811 65.4557 157.187 65.4085 157.56 65.4418C157.933 65.4752 158.294 65.5882 158.619 65.7733C158.945 65.9585 159.226 66.2113 159.445 66.5146C160.042 67.4577 160.225 68.6555 160.358 69.8029L160.422 70.3426C160.558 71.5003 160.613 72.7215 160.106 73.8103C159.753 74.5741 159.18 75.2157 158.461 75.6536C157.741 76.0829 156.918 76.3068 156.08 76.3009V76.3009ZM111.934 63.7218C111.901 63.7239 111.869 63.7148 111.842 63.6961C111.816 63.6774 111.797 63.6501 111.788 63.6189C111.612 62.7433 111.731 61.8343 112.127 61.0332C112.511 60.219 112.985 59.4495 113.538 58.7386C114.779 57.1035 116.261 55.6659 117.934 54.4749C119.321 53.4548 121.01 52.579 123.248 51.7187L123.817 51.501C124.996 51.0565 126.37 50.6022 127.62 50.6022C128.061 50.5963 128.501 50.6642 128.92 50.8032C129.34 50.9474 129.721 51.1851 130.034 51.4983C130.508 51.959 130.812 52.5661 130.897 53.2211C130.982 53.876 130.843 54.5404 130.502 55.1063C130.173 55.6756 129.654 56.1113 129.035 56.3372C128.426 56.5419 127.794 56.6747 127.153 56.7328C126.995 56.7537 126.831 56.7751 126.67 56.7984C124.981 57.0427 123.329 57.4987 121.754 58.1558C120.023 58.9034 118.363 59.803 116.791 60.8438C116.353 61.1272 115.924 61.4555 115.47 61.8036C114.378 62.641 113.249 63.5055 111.964 63.7193C111.954 63.7209 111.944 63.7218 111.934 63.7218V63.7218ZM155.727 63.6995C153.973 63.6945 152.222 63.5668 150.486 63.3172C148.968 63.1198 147.464 62.8235 145.985 62.4303L145.309 62.2357L145.128 62.1842C143.958 61.8525 142.634 61.4766 141.786 60.62C141.722 60.5587 141.674 60.4819 141.647 60.3968C141.62 60.3117 141.616 60.2213 141.634 60.134C141.659 60.0319 141.708 59.9374 141.778 59.8588C141.848 59.7802 141.936 59.7198 142.034 59.683C142.889 59.3996 143.789 59.2722 144.689 59.3069C145.092 59.3069 145.505 59.3199 145.87 59.3313H145.881C146.274 59.3438 146.645 59.3558 147.005 59.3558C147.139 59.3558 147.261 59.3541 147.378 59.3508C149.176 59.2994 151.067 59.1692 153.159 58.9524C154.52 58.8114 155.873 58.545 157.182 58.2879C157.678 58.1903 158.191 58.0893 158.699 57.9965L158.873 57.9662C159.206 57.9072 159.543 57.8757 159.88 57.8719C160.28 57.8554 160.678 57.9253 161.047 58.077C161.417 58.2287 161.749 58.4584 162.021 58.7505C162.352 59.0854 162.588 59.5008 162.708 59.9552C162.821 60.4111 162.798 60.8903 162.64 61.3329C162.487 61.786 162.243 62.2029 161.921 62.5576C161.603 62.9218 161.174 63.1719 160.7 63.2694C159.059 63.5655 157.395 63.7095 155.727 63.6995V63.6995Z" fill="black"/>
</g>
<defs>
<clipPath id="clip0_8_32">
<rect width="279" height="331" fill="white"/>
</clipPath>
</defs>
</svg>
